<svg width="279" height="375" viewBox="0 0 279 375" fill="none" xmlns="http://www.w3.org/2000/svg">
<path d="M2 371L2 373H4H70.2715C79.6603 373 87.2715 365.389 87.2715 356V342C87.2715 332.611 79.6603 325 70.2715 325H4H2L2 327L2 371Z" fill="url(#paint0_linear_1575_8125)" stroke="white" stroke-width="4"/>
<path d="M2 308V310H4H103.271C112.66 310 120.271 302.389 120.271 293V279C120.271 269.611 112.66 262 103.271 262H4H2V264L2 308Z" fill="url(#paint1_linear_1575_8125)" stroke="white" stroke-width="4"/>
<path d="M2 113V115H4L246 115C255.389 115 263 107.389 263 98V84C263 74.6112 255.389 67 246 67L4 67H2V69L2 113Z" fill="url(#paint2_linear_1575_8125)" stroke="white" stroke-width="4"/>
<path d="M2 48V50H4L260 50C269.389 50 277 42.3888 277 33V19C277 9.61116 269.389 2 260 2L4 2H2V4L2 48Z" fill="url(#paint3_linear_1575_8125)" stroke="white" stroke-width="4"/>
<path d="M209.523 26.63L209.127 27.107C209.355 27.005 209.601 26.927 209.865 26.873C210.129 26.819 210.414 26.792 210.72 26.792C211.206 26.792 211.68 26.873 212.142 27.035C212.604 27.197 213.015 27.44 213.375 27.764C213.735 28.088 214.023 28.496 214.239 28.988C214.461 29.474 214.572 30.047 214.572 30.707C214.572 31.313 214.458 31.886 214.23 32.426C214.008 32.966 213.69 33.437 213.276 33.839C212.868 34.241 212.376 34.559 211.8 34.793C211.23 35.027 210.594 35.144 209.892 35.144C209.178 35.144 208.539 35.033 207.975 34.811C207.411 34.583 206.931 34.265 206.535 33.857C206.139 33.449 205.836 32.963 205.626 32.399C205.416 31.829 205.311 31.202 205.311 30.518C205.311 29.888 205.434 29.249 205.68 28.601C205.932 27.953 206.313 27.287 206.823 26.603L209.856 22.517C209.976 22.361 210.153 22.226 210.387 22.112C210.621 21.998 210.888 21.941 211.188 21.941H213.393L209.523 26.63ZM209.847 33.146C210.171 33.146 210.471 33.089 210.747 32.975C211.023 32.861 211.26 32.702 211.458 32.498C211.656 32.294 211.812 32.057 211.926 31.787C212.04 31.511 212.097 31.211 212.097 30.887C212.097 30.533 212.043 30.215 211.935 29.933C211.827 29.651 211.674 29.414 211.476 29.222C211.278 29.024 211.041 28.874 210.765 28.772C210.489 28.67 210.183 28.619 209.847 28.619C209.529 28.619 209.238 28.676 208.974 28.79C208.71 28.898 208.482 29.054 208.29 29.258C208.104 29.456 207.957 29.693 207.849 29.969C207.747 30.245 207.696 30.548 207.696 30.878C207.696 31.22 207.741 31.532 207.831 31.814C207.921 32.09 208.056 32.327 208.236 32.525C208.416 32.723 208.638 32.876 208.902 32.984C209.172 33.092 209.487 33.146 209.847 33.146ZM224.437 32.723C224.707 32.723 224.917 32.798 225.067 32.948C225.223 33.098 225.301 33.296 225.301 33.542V35H216.247V34.19C216.247 34.034 216.28 33.866 216.346 33.686C216.412 33.5 216.523 33.332 216.679 33.182L220.549 29.303C220.879 28.973 221.17 28.658 221.422 28.358C221.674 28.052 221.884 27.755 222.052 27.467C222.22 27.173 222.346 26.876 222.43 26.576C222.514 26.276 222.556 25.961 222.556 25.631C222.556 25.049 222.406 24.608 222.106 24.308C221.806 24.002 221.383 23.849 220.837 23.849C220.597 23.849 220.375 23.885 220.171 23.957C219.973 24.023 219.793 24.116 219.631 24.236C219.475 24.356 219.34 24.497 219.226 24.659C219.112 24.821 219.028 24.998 218.974 25.19C218.866 25.49 218.719 25.691 218.533 25.793C218.353 25.889 218.095 25.91 217.759 25.856L216.445 25.622C216.541 24.986 216.721 24.428 216.985 23.948C217.249 23.468 217.579 23.069 217.975 22.751C218.371 22.433 218.824 22.196 219.334 22.04C219.844 21.878 220.393 21.797 220.981 21.797C221.599 21.797 222.16 21.89 222.664 22.076C223.174 22.256 223.609 22.511 223.969 22.841C224.329 23.165 224.608 23.558 224.806 24.02C225.004 24.482 225.103 24.992 225.103 25.55C225.103 26.03 225.034 26.474 224.896 26.882C224.758 27.29 224.569 27.68 224.329 28.052C224.095 28.418 223.822 28.775 223.51 29.123C223.198 29.471 222.868 29.822 222.52 30.176L219.748 33.011C220.054 32.921 220.357 32.852 220.657 32.804C220.957 32.75 221.239 32.723 221.503 32.723H224.437ZM227.624 37.214C227.558 37.16 227.51 37.106 227.48 37.052C227.456 36.998 227.444 36.932 227.444 36.854C227.444 36.8 227.462 36.74 227.498 36.674C227.54 36.614 227.588 36.557 227.642 36.503C227.708 36.431 227.789 36.341 227.885 36.233C227.981 36.131 228.077 36.014 228.173 35.882C228.269 35.756 228.356 35.615 228.434 35.459C228.518 35.303 228.581 35.138 228.623 34.964C228.425 34.958 228.245 34.916 228.083 34.838C227.921 34.76 227.783 34.658 227.669 34.532C227.555 34.406 227.465 34.259 227.399 34.091C227.339 33.917 227.309 33.731 227.309 33.533C227.309 33.353 227.342 33.185 227.408 33.029C227.474 32.873 227.567 32.738 227.687 32.624C227.813 32.51 227.96 32.42 228.128 32.354C228.302 32.288 228.494 32.255 228.704 32.255C228.95 32.255 229.163 32.3 229.343 32.39C229.529 32.474 229.682 32.588 229.802 32.732C229.922 32.876 230.012 33.047 230.072 33.245C230.132 33.437 230.162 33.641 230.162 33.857C230.162 34.151 230.117 34.463 230.027 34.793C229.937 35.117 229.802 35.444 229.622 35.774C229.442 36.104 229.22 36.425 228.956 36.737C228.698 37.055 228.398 37.343 228.056 37.601L227.624 37.214ZM240.779 33.173V35H233.453V33.173H236.045V26.027C236.045 25.871 236.048 25.712 236.054 25.55C236.06 25.388 236.069 25.223 236.081 25.055L234.371 26.477C234.251 26.567 234.134 26.624 234.02 26.648C233.906 26.672 233.798 26.675 233.696 26.657C233.594 26.633 233.504 26.597 233.426 26.549C233.348 26.495 233.288 26.441 233.246 26.387L232.463 25.334L236.477 21.932H238.52V33.173H240.779ZM249.178 25.1C249.178 25.586 249.094 26.027 248.926 26.423C248.758 26.819 248.53 27.161 248.242 27.449C247.96 27.731 247.633 27.95 247.261 28.106C246.889 28.256 246.502 28.331 246.1 28.331C245.656 28.331 245.248 28.256 244.876 28.106C244.504 27.95 244.18 27.731 243.904 27.449C243.634 27.161 243.421 26.819 243.265 26.423C243.115 26.027 243.04 25.586 243.04 25.1C243.04 24.596 243.115 24.143 243.265 23.741C243.421 23.333 243.634 22.988 243.904 22.706C244.18 22.418 244.504 22.196 244.876 22.04C245.248 21.884 245.656 21.806 246.1 21.806C246.544 21.806 246.955 21.884 247.333 22.04C247.711 22.196 248.035 22.418 248.305 22.706C248.581 22.988 248.794 23.333 248.944 23.741C249.1 24.143 249.178 24.596 249.178 25.1ZM247.27 25.1C247.27 24.776 247.24 24.506 247.18 24.29C247.12 24.068 247.036 23.891 246.928 23.759C246.826 23.627 246.703 23.534 246.559 23.48C246.415 23.42 246.262 23.39 246.1 23.39C245.938 23.39 245.785 23.42 245.641 23.48C245.503 23.534 245.383 23.627 245.281 23.759C245.185 23.891 245.107 24.068 245.047 24.29C244.993 24.506 244.966 24.776 244.966 25.1C244.966 25.418 244.993 25.682 245.047 25.892C245.107 26.102 245.185 26.273 245.281 26.405C245.383 26.531 245.503 26.621 245.641 26.675C245.785 26.729 245.938 26.756 246.1 26.756C246.262 26.756 246.415 26.729 246.559 26.675C246.703 26.621 246.826 26.531 246.928 26.405C247.036 26.273 247.12 26.102 247.18 25.892C247.24 25.682 247.27 25.418 247.27 25.1ZM253.408 22.319C253.492 22.223 253.591 22.136 253.705 22.058C253.825 21.98 253.99 21.941 254.2 21.941H256.009L246.244 34.64C246.16 34.742 246.058 34.829 245.938 34.901C245.818 34.967 245.671 35 245.497 35H243.652L253.408 22.319ZM256.612 31.931C256.612 32.417 256.528 32.858 256.36 33.254C256.192 33.65 255.964 33.992 255.676 34.28C255.394 34.562 255.067 34.781 254.695 34.937C254.323 35.087 253.936 35.162 253.534 35.162C253.09 35.162 252.682 35.087 252.31 34.937C251.938 34.781 251.614 34.562 251.338 34.28C251.068 33.992 250.855 33.65 250.699 33.254C250.549 32.858 250.474 32.417 250.474 31.931C250.474 31.427 250.549 30.974 250.699 30.572C250.855 30.164 251.068 29.819 251.338 29.537C251.614 29.249 251.938 29.03 252.31 28.88C252.682 28.724 253.09 28.646 253.534 28.646C253.978 28.646 254.389 28.724 254.767 28.88C255.145 29.03 255.469 29.249 255.739 29.537C256.015 29.819 256.228 30.164 256.378 30.572C256.534 30.974 256.612 31.427 256.612 31.931ZM254.704 31.931C254.704 31.607 254.674 31.337 254.614 31.121C254.554 30.899 254.47 30.722 254.362 30.59C254.26 30.458 254.137 30.365 253.993 30.311C253.849 30.251 253.696 30.221 253.534 30.221C253.372 30.221 253.219 30.251 253.075 30.311C252.937 30.365 252.817 30.458 252.715 30.59C252.619 30.722 252.541 30.899 252.481 31.121C252.427 31.337 252.4 31.607 252.4 31.931C252.4 32.249 252.427 32.513 252.481 32.723C252.541 32.933 252.619 33.104 252.715 33.236C252.817 33.362 252.937 33.452 253.075 33.506C253.219 33.56 253.372 33.587 253.534 33.587C253.696 33.587 253.849 33.56 253.993 33.506C254.137 33.452 254.26 33.362 254.362 33.236C254.47 33.104 254.554 32.933 254.614 32.723C254.674 32.513 254.704 32.249 254.704 31.931Z" fill="#F7F7F7"/>
<path d="M2 178V180H4H148.271C157.66 180 165.271 172.389 165.271 163V149C165.271 139.611 157.66 132 148.271 132H4H2V134L2 178Z" fill="url(#paint4_linear_1575_8125)" stroke="white" stroke-width="4"/>
<path d="M2 243V245H4H124.271C133.66 245 141.271 237.389 141.271 228V214C141.271 204.611 133.66 197 124.271 197H4H2V199L2 243Z" fill="url(#paint5_linear_1575_8125)" stroke="white" stroke-width="4"/>
<path d="M26.8361 353.173V355H19.5101V353.173H22.1021V346.027C22.1021 345.871 22.1051 345.712 22.1111 345.55C22.1171 345.388 22.1261 345.223 22.1381 345.055L20.4281 346.477C20.3081 346.567 20.1911 346.624 20.0771 346.648C19.9631 346.672 19.8551 346.675 19.7531 346.657C19.6511 346.633 19.5611 346.597 19.4831 346.549C19.4051 346.495 19.3451 346.441 19.3031 346.387L18.5201 345.334L22.5341 341.932H24.5771V353.173H26.8361ZM38.3125 341.941V343.003C38.3125 343.315 38.2765 343.567 38.2045 343.759C38.1385 343.951 38.0725 344.113 38.0065 344.245L33.2545 354.172C33.1345 354.4 32.9725 354.595 32.7685 354.757C32.5645 354.919 32.2885 355 31.9405 355H30.1405L35.0095 345.307C35.1295 345.079 35.2525 344.872 35.3785 344.686C35.5045 344.5 35.6455 344.323 35.8015 344.155H29.7805C29.6365 344.155 29.5045 344.098 29.3845 343.984C29.2705 343.87 29.2135 343.741 29.2135 343.597V341.941H38.3125ZM40.4379 357.214C40.3719 357.16 40.3239 357.106 40.2939 357.052C40.2699 356.998 40.2579 356.932 40.2579 356.854C40.2579 356.8 40.2759 356.74 40.3119 356.674C40.3539 356.614 40.4019 356.557 40.4559 356.503C40.5219 356.431 40.6029 356.341 40.6989 356.233C40.7949 356.131 40.8909 356.014 40.9869 355.882C41.0829 355.756 41.1699 355.615 41.2479 355.459C41.3319 355.303 41.3949 355.138 41.4369 354.964C41.2389 354.958 41.0589 354.916 40.8969 354.838C40.7349 354.76 40.5969 354.658 40.4829 354.532C40.3689 354.406 40.2789 354.259 40.2129 354.091C40.1529 353.917 40.1229 353.731 40.1229 353.533C40.1229 353.353 40.1559 353.185 40.2219 353.029C40.2879 352.873 40.3809 352.738 40.5009 352.624C40.6269 352.51 40.7739 352.42 40.9419 352.354C41.1159 352.288 41.3079 352.255 41.5179 352.255C41.7639 352.255 41.9769 352.3 42.1569 352.39C42.3429 352.474 42.4959 352.588 42.6159 352.732C42.7359 352.876 42.8259 353.047 42.8859 353.245C42.9459 353.437 42.9759 353.641 42.9759 353.857C42.9759 354.151 42.9309 354.463 42.8409 354.793C42.7509 355.117 42.6159 355.444 42.4359 355.774C42.2559 356.104 42.0339 356.425 41.7699 356.737C41.5119 357.055 41.2119 357.343 40.8699 357.601L40.4379 357.214ZM50.5508 350.014V346.126C50.5508 345.922 50.5568 345.706 50.5688 345.478C50.5868 345.244 50.6108 345.001 50.6408 344.749L46.8608 350.014H50.5508ZM54.2228 350.014V351.418C54.2228 351.55 54.1778 351.664 54.0878 351.76C54.0038 351.85 53.8838 351.895 53.7278 351.895H52.7108V355H50.5508V351.895H45.1598C45.0038 351.895 44.8598 351.847 44.7278 351.751C44.6018 351.655 44.5238 351.529 44.4938 351.373L44.2328 350.131L50.3528 341.932H52.7108V350.014H54.2228ZM61.9912 345.1C61.9912 345.586 61.9072 346.027 61.7392 346.423C61.5712 346.819 61.3432 347.161 61.0552 347.449C60.7732 347.731 60.4462 347.95 60.0742 348.106C59.7022 348.256 59.3152 348.331 58.9132 348.331C58.4692 348.331 58.0612 348.256 57.6892 348.106C57.3172 347.95 56.9932 347.731 56.7172 347.449C56.4472 347.161 56.2342 346.819 56.0782 346.423C55.9282 346.027 55.8532 345.586 55.8532 345.1C55.8532 344.596 55.9282 344.143 56.0782 343.741C56.2342 343.333 56.4472 342.988 56.7172 342.706C56.9932 342.418 57.3172 342.196 57.6892 342.04C58.0612 341.884 58.4692 341.806 58.9132 341.806C59.3572 341.806 59.7682 341.884 60.1462 342.04C60.5242 342.196 60.8482 342.418 61.1182 342.706C61.3942 342.988 61.6072 343.333 61.7572 343.741C61.9132 344.143 61.9912 344.596 61.9912 345.1ZM60.0832 345.1C60.0832 344.776 60.0532 344.506 59.9932 344.29C59.9332 344.068 59.8492 343.891 59.7412 343.759C59.6392 343.627 59.5162 343.534 59.3722 343.48C59.2282 343.42 59.0752 343.39 58.9132 343.39C58.7512 343.39 58.5982 343.42 58.4542 343.48C58.3162 343.534 58.1962 343.627 58.0942 343.759C57.9982 343.891 57.9202 344.068 57.8602 344.29C57.8062 344.506 57.7792 344.776 57.7792 345.1C57.7792 345.418 57.8062 345.682 57.8602 345.892C57.9202 346.102 57.9982 346.273 58.0942 346.405C58.1962 346.531 58.3162 346.621 58.4542 346.675C58.5982 346.729 58.7512 346.756 58.9132 346.756C59.0752 346.756 59.2282 346.729 59.3722 346.675C59.5162 346.621 59.6392 346.531 59.7412 346.405C59.8492 346.273 59.9332 346.102 59.9932 345.892C60.0532 345.682 60.0832 345.418 60.0832 345.1ZM66.2212 342.319C66.3052 342.223 66.4042 342.136 66.5182 342.058C66.6382 341.98 66.8032 341.941 67.0132 341.941H68.8222L59.0572 354.64C58.9732 354.742 58.8712 354.829 58.7512 354.901C58.6312 354.967 58.4842 355 58.3102 355H56.4652L66.2212 342.319ZM69.4252 351.931C69.4252 352.417 69.3412 352.858 69.1732 353.254C69.0052 353.65 68.7772 353.992 68.4892 354.28C68.2072 354.562 67.8802 354.781 67.5082 354.937C67.1362 355.087 66.7492 355.162 66.3472 355.162C65.9032 355.162 65.4952 355.087 65.1232 354.937C64.7512 354.781 64.4272 354.562 64.1512 354.28C63.8812 353.992 63.6682 353.65 63.5122 353.254C63.3622 352.858 63.2872 352.417 63.2872 351.931C63.2872 351.427 63.3622 350.974 63.5122 350.572C63.6682 350.164 63.8812 349.819 64.1512 349.537C64.4272 349.249 64.7512 349.03 65.1232 348.88C65.4952 348.724 65.9032 348.646 66.3472 348.646C66.7912 348.646 67.2022 348.724 67.5802 348.88C67.9582 349.03 68.2822 349.249 68.5522 349.537C68.8282 349.819 69.0412 350.164 69.1912 350.572C69.3472 350.974 69.4252 351.427 69.4252 351.931ZM67.5172 351.931C67.5172 351.607 67.4872 351.337 67.4272 351.121C67.3672 350.899 67.2832 350.722 67.1752 350.59C67.0732 350.458 66.9502 350.365 66.8062 350.311C66.6622 350.251 66.5092 350.221 66.3472 350.221C66.1852 350.221 66.0322 350.251 65.8882 350.311C65.7502 350.365 65.6302 350.458 65.5282 350.59C65.4322 350.722 65.3542 350.899 65.2942 351.121C65.2402 351.337 65.2132 351.607 65.2132 351.931C65.2132 352.249 65.2402 352.513 65.2942 352.723C65.3542 352.933 65.4322 353.104 65.5282 353.236C65.6302 353.362 65.7502 353.452 65.8882 353.506C66.0322 353.56 66.1852 353.587 66.3472 353.587C66.5092 353.587 66.6622 353.56 66.8062 353.506C66.9502 353.452 67.0732 353.362 67.1752 353.236C67.2832 353.104 67.3672 352.933 67.4272 352.723C67.4872 352.513 67.5172 352.249 67.5172 351.931Z" fill="white"/>
<path d="M59.7691 291.723C60.0391 291.723 60.2491 291.798 60.3991 291.948C60.5551 292.098 60.6331 292.296 60.6331 292.542V294H51.5791V293.19C51.5791 293.034 51.6121 292.866 51.6781 292.686C51.7441 292.5 51.8551 292.332 52.0111 292.182L55.8811 288.303C56.2111 287.973 56.5021 287.658 56.7541 287.358C57.0061 287.052 57.2161 286.755 57.3841 286.467C57.5521 286.173 57.6781 285.876 57.7621 285.576C57.8461 285.276 57.8881 284.961 57.8881 284.631C57.8881 284.049 57.7381 283.608 57.4381 283.308C57.1381 283.002 56.7151 282.849 56.1691 282.849C55.9291 282.849 55.7071 282.885 55.5031 282.957C55.3051 283.023 55.1251 283.116 54.9631 283.236C54.8071 283.356 54.6721 283.497 54.5581 283.659C54.4441 283.821 54.3601 283.998 54.3061 284.19C54.1981 284.49 54.0511 284.691 53.8651 284.793C53.6851 284.889 53.4271 284.91 53.0911 284.856L51.7771 284.622C51.8731 283.986 52.0531 283.428 52.3171 282.948C52.5811 282.468 52.9111 282.069 53.3071 281.751C53.7031 281.433 54.1561 281.196 54.6661 281.04C55.1761 280.878 55.7251 280.797 56.3131 280.797C56.9311 280.797 57.4921 280.89 57.9961 281.076C58.5061 281.256 58.9411 281.511 59.3011 281.841C59.6611 282.165 59.9401 282.558 60.1381 283.02C60.3361 283.482 60.4351 283.992 60.4351 284.55C60.4351 285.03 60.3661 285.474 60.2281 285.882C60.0901 286.29 59.9011 286.68 59.6611 287.052C59.4271 287.418 59.1541 287.775 58.8421 288.123C58.5301 288.471 58.2001 288.822 57.8521 289.176L55.0801 292.011C55.3861 291.921 55.6891 291.852 55.9891 291.804C56.2891 291.75 56.5711 291.723 56.8351 291.723H59.7691ZM68.2755 289.014V285.126C68.2755 284.922 68.2815 284.706 68.2935 284.478C68.3115 284.244 68.3355 284.001 68.3655 283.749L64.5855 289.014H68.2755ZM71.9475 289.014V290.418C71.9475 290.55 71.9025 290.664 71.8125 290.76C71.7285 290.85 71.6085 290.895 71.4525 290.895H70.4355V294H68.2755V290.895H62.8845C62.7285 290.895 62.5845 290.847 62.4525 290.751C62.3265 290.655 62.2485 290.529 62.2185 290.373L61.9575 289.131L68.0775 280.932H70.4355V289.014H71.9475ZM73.9379 296.214C73.8719 296.16 73.8239 296.106 73.7939 296.052C73.7699 295.998 73.7579 295.932 73.7579 295.854C73.7579 295.8 73.7759 295.74 73.8119 295.674C73.8539 295.614 73.9019 295.557 73.9559 295.503C74.0219 295.431 74.1029 295.341 74.1989 295.233C74.2949 295.131 74.3909 295.014 74.4869 294.882C74.5829 294.756 74.6699 294.615 74.7479 294.459C74.8319 294.303 74.8949 294.138 74.9369 293.964C74.7389 293.958 74.5589 293.916 74.3969 293.838C74.2349 293.76 74.0969 293.658 73.9829 293.532C73.8689 293.406 73.7789 293.259 73.7129 293.091C73.6529 292.917 73.6229 292.731 73.6229 292.533C73.6229 292.353 73.6559 292.185 73.7219 292.029C73.7879 291.873 73.8809 291.738 74.0009 291.624C74.1269 291.51 74.2739 291.42 74.4419 291.354C74.6159 291.288 74.8079 291.255 75.0179 291.255C75.2639 291.255 75.4769 291.3 75.6569 291.39C75.8429 291.474 75.9959 291.588 76.1159 291.732C76.2359 291.876 76.3259 292.047 76.3859 292.245C76.4459 292.437 76.4759 292.641 76.4759 292.857C76.4759 293.151 76.4309 293.463 76.3409 293.793C76.2509 294.117 76.1159 294.444 75.9359 294.774C75.7559 295.104 75.5339 295.425 75.2699 295.737C75.0119 296.055 74.7119 296.343 74.3699 296.601L73.9379 296.214ZM81.5218 285.621C81.7918 285.567 82.0498 285.528 82.2958 285.504C82.5478 285.48 82.7908 285.468 83.0248 285.468C83.7088 285.468 84.3118 285.573 84.8338 285.783C85.3618 285.987 85.8028 286.269 86.1568 286.629C86.5168 286.989 86.7868 287.412 86.9668 287.898C87.1468 288.384 87.2368 288.906 87.2368 289.464C87.2368 290.16 87.1138 290.796 86.8678 291.372C86.6218 291.942 86.2798 292.434 85.8418 292.848C85.4098 293.256 84.8908 293.574 84.2848 293.802C83.6848 294.03 83.0278 294.144 82.3138 294.144C81.8998 294.144 81.5038 294.099 81.1258 294.009C80.7478 293.925 80.3938 293.811 80.0638 293.667C79.7398 293.517 79.4368 293.346 79.1548 293.154C78.8728 292.962 78.6208 292.761 78.3988 292.551L79.1638 291.507C79.3258 291.285 79.5358 291.174 79.7938 291.174C79.9558 291.174 80.1148 291.222 80.2708 291.318C80.4268 291.414 80.6038 291.522 80.8018 291.642C80.9998 291.756 81.2308 291.861 81.4948 291.957C81.7588 292.053 82.0798 292.101 82.4578 292.101C82.8478 292.101 83.1868 292.038 83.4748 291.912C83.7628 291.78 83.9998 291.603 84.1858 291.381C84.3778 291.153 84.5188 290.886 84.6088 290.58C84.7048 290.268 84.7528 289.935 84.7528 289.581C84.7528 288.903 84.5578 288.381 84.1678 288.015C83.7838 287.643 83.2228 287.457 82.4848 287.457C81.8788 287.457 81.2698 287.571 80.6578 287.799L79.1188 287.367L80.2168 280.941H86.7688V281.985C86.7688 282.159 86.7418 282.318 86.6878 282.462C86.6398 282.6 86.5558 282.723 86.4358 282.831C86.3218 282.933 86.1718 283.014 85.9858 283.074C85.8058 283.128 85.5838 283.155 85.3198 283.155H81.9448L81.5218 285.621ZM95.4912 284.1C95.4912 284.586 95.4072 285.027 95.2392 285.423C95.0712 285.819 94.8432 286.161 94.5552 286.449C94.2732 286.731 93.9462 286.95 93.5742 287.106C93.2022 287.256 92.8152 287.331 92.4132 287.331C91.9692 287.331 91.5612 287.256 91.1892 287.106C90.8172 286.95 90.4932 286.731 90.2172 286.449C89.9472 286.161 89.7342 285.819 89.5782 285.423C89.4282 285.027 89.3532 284.586 89.3532 284.1C89.3532 283.596 89.4282 283.143 89.5782 282.741C89.7342 282.333 89.9472 281.988 90.2172 281.706C90.4932 281.418 90.8172 281.196 91.1892 281.04C91.5612 280.884 91.9692 280.806 92.4132 280.806C92.8572 280.806 93.2682 280.884 93.6462 281.04C94.0242 281.196 94.3482 281.418 94.6182 281.706C94.8942 281.988 95.1072 282.333 95.2572 282.741C95.4132 283.143 95.4912 283.596 95.4912 284.1ZM93.5832 284.1C93.5832 283.776 93.5532 283.506 93.4932 283.29C93.4332 283.068 93.3492 282.891 93.2412 282.759C93.1392 282.627 93.0162 282.534 92.8722 282.48C92.7282 282.42 92.5752 282.39 92.4132 282.39C92.2512 282.39 92.0982 282.42 91.9542 282.48C91.8162 282.534 91.6962 282.627 91.5942 282.759C91.4982 282.891 91.4202 283.068 91.3602 283.29C91.3062 283.506 91.2792 283.776 91.2792 284.1C91.2792 284.418 91.3062 284.682 91.3602 284.892C91.4202 285.102 91.4982 285.273 91.5942 285.405C91.6962 285.531 91.8162 285.621 91.9542 285.675C92.0982 285.729 92.2512 285.756 92.4132 285.756C92.5752 285.756 92.7282 285.729 92.8722 285.675C93.0162 285.621 93.1392 285.531 93.2412 285.405C93.3492 285.273 93.4332 285.102 93.4932 284.892C93.5532 284.682 93.5832 284.418 93.5832 284.1ZM99.7212 281.319C99.8052 281.223 99.9042 281.136 100.018 281.058C100.138 280.98 100.303 280.941 100.513 280.941H102.322L92.5572 293.64C92.4732 293.742 92.3712 293.829 92.2512 293.901C92.1312 293.967 91.9842 294 91.8102 294H89.9652L99.7212 281.319ZM102.925 290.931C102.925 291.417 102.841 291.858 102.673 292.254C102.505 292.65 102.277 292.992 101.989 293.28C101.707 293.562 101.38 293.781 101.008 293.937C100.636 294.087 100.249 294.162 99.8472 294.162C99.4032 294.162 98.9952 294.087 98.6232 293.937C98.2512 293.781 97.9272 293.562 97.6512 293.28C97.3812 292.992 97.1682 292.65 97.0122 292.254C96.8622 291.858 96.7872 291.417 96.7872 290.931C96.7872 290.427 96.8622 289.974 97.0122 289.572C97.1682 289.164 97.3812 288.819 97.6512 288.537C97.9272 288.249 98.2512 288.03 98.6232 287.88C98.9952 287.724 99.4032 287.646 99.8472 287.646C100.291 287.646 100.702 287.724 101.08 287.88C101.458 288.03 101.782 288.249 102.052 288.537C102.328 288.819 102.541 289.164 102.691 289.572C102.847 289.974 102.925 290.427 102.925 290.931ZM101.017 290.931C101.017 290.607 100.987 290.337 100.927 290.121C100.867 289.899 100.783 289.722 100.675 289.59C100.573 289.458 100.45 289.365 100.306 289.311C100.162 289.251 100.009 289.221 99.8472 289.221C99.6852 289.221 99.5322 289.251 99.3882 289.311C99.2502 289.365 99.1302 289.458 99.0282 289.59C98.9322 289.722 98.8542 289.899 98.7942 290.121C98.7402 290.337 98.7132 290.607 98.7132 290.931C98.7132 291.249 98.7402 291.513 98.7942 291.723C98.8542 291.933 98.9322 292.104 99.0282 292.236C99.1302 292.362 99.2502 292.452 99.3882 292.506C99.5322 292.56 99.6852 292.587 99.8472 292.587C100.009 292.587 100.162 292.56 100.306 292.506C100.45 292.452 100.573 292.362 100.675 292.236C100.783 292.104 100.867 291.933 100.927 291.723C100.987 291.513 101.017 291.249 101.017 290.931Z" fill="white"/>
<path d="M71.8491 219.622C71.9451 218.986 72.1251 218.428 72.3891 217.948C72.6531 217.468 72.9831 217.069 73.3791 216.751C73.7751 216.433 74.2251 216.196 74.7291 216.04C75.2391 215.878 75.7881 215.797 76.3761 215.797C77.0001 215.797 77.5581 215.887 78.0501 216.067C78.5481 216.241 78.9681 216.481 79.3101 216.787C79.6521 217.093 79.9131 217.45 80.0931 217.858C80.2791 218.266 80.3721 218.704 80.3721 219.172C80.3721 219.586 80.3271 219.952 80.2371 220.27C80.1531 220.582 80.0241 220.855 79.8501 221.089C79.6821 221.323 79.4721 221.521 79.2201 221.683C78.9741 221.845 78.6891 221.98 78.3651 222.088C79.8651 222.58 80.6151 223.579 80.6151 225.085C80.6151 225.751 80.4921 226.339 80.2461 226.849C80.0001 227.353 79.6701 227.776 79.2561 228.118C78.8421 228.46 78.3591 228.718 77.8071 228.892C77.2611 229.06 76.6881 229.144 76.0881 229.144C75.4521 229.144 74.8911 229.072 74.4051 228.928C73.9191 228.784 73.4901 228.568 73.1181 228.28C72.7521 227.992 72.4371 227.632 72.1731 227.2C71.9091 226.762 71.6781 226.252 71.4801 225.67L72.5781 225.22C72.8661 225.1 73.1331 225.067 73.3791 225.121C73.6311 225.175 73.8111 225.307 73.9191 225.517C74.0391 225.745 74.1651 225.955 74.2971 226.147C74.4351 226.339 74.5881 226.507 74.7561 226.651C74.9241 226.789 75.1131 226.897 75.3231 226.975C75.5391 227.053 75.7851 227.092 76.0611 227.092C76.4091 227.092 76.7121 227.035 76.9701 226.921C77.2281 226.807 77.4441 226.66 77.6181 226.48C77.7921 226.294 77.9211 226.087 78.0051 225.859C78.0951 225.625 78.1401 225.394 78.1401 225.166C78.1401 224.866 78.1131 224.596 78.0591 224.356C78.0051 224.11 77.8791 223.903 77.6811 223.735C77.4891 223.561 77.2011 223.429 76.8171 223.339C76.4391 223.243 75.9231 223.195 75.2691 223.195V221.449C75.8151 221.449 76.2621 221.404 76.6101 221.314C76.9581 221.224 77.2311 221.098 77.4291 220.936C77.6271 220.774 77.7621 220.579 77.8341 220.351C77.9121 220.123 77.9511 219.874 77.9511 219.604C77.9511 219.034 77.8011 218.599 77.5011 218.299C77.2071 217.999 76.7871 217.849 76.2411 217.849C76.0011 217.849 75.7791 217.885 75.5751 217.957C75.3771 218.023 75.1971 218.116 75.0351 218.236C74.8791 218.356 74.7441 218.497 74.6301 218.659C74.5161 218.821 74.4321 218.998 74.3781 219.19C74.2641 219.49 74.1171 219.691 73.9371 219.793C73.7571 219.889 73.4961 219.91 73.1541 219.856L71.8491 219.622ZM91.9745 222.466C91.9745 223.606 91.8515 224.596 91.6055 225.436C91.3595 226.276 91.0205 226.972 90.5885 227.524C90.1565 228.07 89.6435 228.478 89.0495 228.748C88.4615 229.012 87.8255 229.144 87.1415 229.144C86.4575 229.144 85.8215 229.012 85.2335 228.748C84.6455 228.478 84.1385 228.07 83.7125 227.524C83.2865 226.972 82.9505 226.276 82.7045 225.436C82.4645 224.596 82.3445 223.606 82.3445 222.466C82.3445 221.326 82.4645 220.339 82.7045 219.505C82.9505 218.665 83.2865 217.972 83.7125 217.426C84.1385 216.874 84.6455 216.466 85.2335 216.202C85.8215 215.932 86.4575 215.797 87.1415 215.797C87.8255 215.797 88.4615 215.932 89.0495 216.202C89.6435 216.466 90.1565 216.874 90.5885 217.426C91.0205 217.972 91.3595 218.665 91.6055 219.505C91.8515 220.339 91.9745 221.326 91.9745 222.466ZM89.4095 222.466C89.4095 221.542 89.3435 220.78 89.2115 220.18C89.0855 219.58 88.9175 219.106 88.7075 218.758C88.4975 218.41 88.2545 218.167 87.9785 218.029C87.7085 217.891 87.4295 217.822 87.1415 217.822C86.8535 217.822 86.5745 217.891 86.3045 218.029C86.0405 218.167 85.8035 218.41 85.5935 218.758C85.3895 219.106 85.2245 219.58 85.0985 220.18C84.9725 220.78 84.9095 221.542 84.9095 222.466C84.9095 223.396 84.9725 224.161 85.0985 224.761C85.2245 225.361 85.3895 225.835 85.5935 226.183C85.8035 226.531 86.0405 226.774 86.3045 226.912C86.5745 227.05 86.8535 227.119 87.1415 227.119C87.4295 227.119 87.7085 227.05 87.9785 226.912C88.2545 226.774 88.4975 226.531 88.7075 226.183C88.9175 225.835 89.0855 225.361 89.2115 224.761C89.3435 224.161 89.4095 223.396 89.4095 222.466ZM93.9379 231.214C93.8719 231.16 93.8239 231.106 93.7939 231.052C93.7699 230.998 93.7579 230.932 93.7579 230.854C93.7579 230.8 93.7759 230.74 93.8119 230.674C93.8539 230.614 93.9019 230.557 93.9559 230.503C94.0219 230.431 94.1029 230.341 94.1989 230.233C94.2949 230.131 94.3909 230.014 94.4869 229.882C94.5829 229.756 94.6699 229.615 94.7479 229.459C94.8319 229.303 94.8949 229.138 94.9369 228.964C94.7389 228.958 94.5589 228.916 94.3969 228.838C94.2349 228.76 94.0969 228.658 93.9829 228.532C93.8689 228.406 93.7789 228.259 93.7129 228.091C93.6529 227.917 93.6229 227.731 93.6229 227.533C93.6229 227.353 93.6559 227.185 93.7219 227.029C93.7879 226.873 93.8809 226.738 94.0009 226.624C94.1269 226.51 94.2739 226.42 94.4419 226.354C94.6159 226.288 94.8079 226.255 95.0179 226.255C95.2639 226.255 95.4769 226.3 95.6569 226.39C95.8429 226.474 95.9959 226.588 96.1159 226.732C96.2359 226.876 96.3259 227.047 96.3859 227.245C96.4459 227.437 96.4759 227.641 96.4759 227.857C96.4759 228.151 96.4309 228.463 96.3409 228.793C96.2509 229.117 96.1159 229.444 95.9359 229.774C95.7559 230.104 95.5339 230.425 95.2699 230.737C95.0119 231.055 94.7119 231.343 94.3699 231.601L93.9379 231.214ZM102.593 220.63L102.197 221.107C102.425 221.005 102.671 220.927 102.935 220.873C103.199 220.819 103.484 220.792 103.79 220.792C104.276 220.792 104.75 220.873 105.212 221.035C105.674 221.197 106.085 221.44 106.445 221.764C106.805 222.088 107.093 222.496 107.309 222.988C107.531 223.474 107.642 224.047 107.642 224.707C107.642 225.313 107.528 225.886 107.3 226.426C107.078 226.966 106.76 227.437 106.346 227.839C105.938 228.241 105.446 228.559 104.87 228.793C104.3 229.027 103.664 229.144 102.962 229.144C102.248 229.144 101.609 229.033 101.045 228.811C100.481 228.583 100.001 228.265 99.6048 227.857C99.2088 227.449 98.9058 226.963 98.6958 226.399C98.4858 225.829 98.3808 225.202 98.3808 224.518C98.3808 223.888 98.5038 223.249 98.7498 222.601C99.0018 221.953 99.3828 221.287 99.8928 220.603L102.926 216.517C103.046 216.361 103.223 216.226 103.457 216.112C103.691 215.998 103.958 215.941 104.258 215.941H106.463L102.593 220.63ZM102.917 227.146C103.241 227.146 103.541 227.089 103.817 226.975C104.093 226.861 104.33 226.702 104.528 226.498C104.726 226.294 104.882 226.057 104.996 225.787C105.11 225.511 105.167 225.211 105.167 224.887C105.167 224.533 105.113 224.215 105.005 223.933C104.897 223.651 104.744 223.414 104.546 223.222C104.348 223.024 104.111 222.874 103.835 222.772C103.559 222.67 103.253 222.619 102.917 222.619C102.599 222.619 102.308 222.676 102.044 222.79C101.78 222.898 101.552 223.054 101.36 223.258C101.174 223.456 101.027 223.693 100.919 223.969C100.817 224.245 100.766 224.548 100.766 224.878C100.766 225.22 100.811 225.532 100.901 225.814C100.991 226.09 101.126 226.327 101.306 226.525C101.486 226.723 101.708 226.876 101.972 226.984C102.242 227.092 102.557 227.146 102.917 227.146ZM115.491 219.1C115.491 219.586 115.407 220.027 115.239 220.423C115.071 220.819 114.843 221.161 114.555 221.449C114.273 221.731 113.946 221.95 113.574 222.106C113.202 222.256 112.815 222.331 112.413 222.331C111.969 222.331 111.561 222.256 111.189 222.106C110.817 221.95 110.493 221.731 110.217 221.449C109.947 221.161 109.734 220.819 109.578 220.423C109.428 220.027 109.353 219.586 109.353 219.1C109.353 218.596 109.428 218.143 109.578 217.741C109.734 217.333 109.947 216.988 110.217 216.706C110.493 216.418 110.817 216.196 111.189 216.04C111.561 215.884 111.969 215.806 112.413 215.806C112.857 215.806 113.268 215.884 113.646 216.04C114.024 216.196 114.348 216.418 114.618 216.706C114.894 216.988 115.107 217.333 115.257 217.741C115.413 218.143 115.491 218.596 115.491 219.1ZM113.583 219.1C113.583 218.776 113.553 218.506 113.493 218.29C113.433 218.068 113.349 217.891 113.241 217.759C113.139 217.627 113.016 217.534 112.872 217.48C112.728 217.42 112.575 217.39 112.413 217.39C112.251 217.39 112.098 217.42 111.954 217.48C111.816 217.534 111.696 217.627 111.594 217.759C111.498 217.891 111.42 218.068 111.36 218.29C111.306 218.506 111.279 218.776 111.279 219.1C111.279 219.418 111.306 219.682 111.36 219.892C111.42 220.102 111.498 220.273 111.594 220.405C111.696 220.531 111.816 220.621 111.954 220.675C112.098 220.729 112.251 220.756 112.413 220.756C112.575 220.756 112.728 220.729 112.872 220.675C113.016 220.621 113.139 220.531 113.241 220.405C113.349 220.273 113.433 220.102 113.493 219.892C113.553 219.682 113.583 219.418 113.583 219.1ZM119.721 216.319C119.805 216.223 119.904 216.136 120.018 216.058C120.138 215.98 120.303 215.941 120.513 215.941H122.322L112.557 228.64C112.473 228.742 112.371 228.829 112.251 228.901C112.131 228.967 111.984 229 111.81 229H109.965L119.721 216.319ZM122.925 225.931C122.925 226.417 122.841 226.858 122.673 227.254C122.505 227.65 122.277 227.992 121.989 228.28C121.707 228.562 121.38 228.781 121.008 228.937C120.636 229.087 120.249 229.162 119.847 229.162C119.403 229.162 118.995 229.087 118.623 228.937C118.251 228.781 117.927 228.562 117.651 228.28C117.381 227.992 117.168 227.65 117.012 227.254C116.862 226.858 116.787 226.417 116.787 225.931C116.787 225.427 116.862 224.974 117.012 224.572C117.168 224.164 117.381 223.819 117.651 223.537C117.927 223.249 118.251 223.03 118.623 222.88C118.995 222.724 119.403 222.646 119.847 222.646C120.291 222.646 120.702 222.724 121.08 222.88C121.458 223.03 121.782 223.249 122.052 223.537C122.328 223.819 122.541 224.164 122.691 224.572C122.847 224.974 122.925 225.427 122.925 225.931ZM121.017 225.931C121.017 225.607 120.987 225.337 120.927 225.121C120.867 224.899 120.783 224.722 120.675 224.59C120.573 224.458 120.45 224.365 120.306 224.311C120.162 224.251 120.009 224.221 119.847 224.221C119.685 224.221 119.532 224.251 119.388 224.311C119.25 224.365 119.13 224.458 119.028 224.59C118.932 224.722 118.854 224.899 118.794 225.121C118.74 225.337 118.713 225.607 118.713 225.931C118.713 226.249 118.74 226.513 118.794 226.723C118.854 226.933 118.932 227.104 119.028 227.236C119.13 227.362 119.25 227.452 119.388 227.506C119.532 227.56 119.685 227.587 119.847 227.587C120.009 227.587 120.162 227.56 120.306 227.506C120.45 227.452 120.573 227.362 120.675 227.236C120.783 227.104 120.867 226.933 120.927 226.723C120.987 226.513 121.017 226.249 121.017 225.931Z" fill="white"/>
<path d="M93.8491 153.622C93.9451 152.986 94.1251 152.428 94.3891 151.948C94.6531 151.468 94.9831 151.069 95.3791 150.751C95.7751 150.433 96.2251 150.196 96.7291 150.04C97.2391 149.878 97.7881 149.797 98.3761 149.797C99.0001 149.797 99.5581 149.887 100.05 150.067C100.548 150.241 100.968 150.481 101.31 150.787C101.652 151.093 101.913 151.45 102.093 151.858C102.279 152.266 102.372 152.704 102.372 153.172C102.372 153.586 102.327 153.952 102.237 154.27C102.153 154.582 102.024 154.855 101.85 155.089C101.682 155.323 101.472 155.521 101.22 155.683C100.974 155.845 100.689 155.98 100.365 156.088C101.865 156.58 102.615 157.579 102.615 159.085C102.615 159.751 102.492 160.339 102.246 160.849C102 161.353 101.67 161.776 101.256 162.118C100.842 162.46 100.359 162.718 99.8071 162.892C99.2611 163.06 98.6881 163.144 98.0881 163.144C97.4521 163.144 96.8911 163.072 96.4051 162.928C95.9191 162.784 95.4901 162.568 95.1181 162.28C94.7521 161.992 94.4371 161.632 94.1731 161.2C93.9091 160.762 93.6781 160.252 93.4801 159.67L94.5781 159.22C94.8661 159.1 95.1331 159.067 95.3791 159.121C95.6311 159.175 95.8111 159.307 95.9191 159.517C96.0391 159.745 96.1651 159.955 96.2971 160.147C96.4351 160.339 96.5881 160.507 96.7561 160.651C96.9241 160.789 97.1131 160.897 97.3231 160.975C97.5391 161.053 97.7851 161.092 98.0611 161.092C98.4091 161.092 98.7121 161.035 98.9701 160.921C99.2281 160.807 99.4441 160.66 99.6181 160.48C99.7921 160.294 99.9211 160.087 100.005 159.859C100.095 159.625 100.14 159.394 100.14 159.166C100.14 158.866 100.113 158.596 100.059 158.356C100.005 158.11 99.8791 157.903 99.6811 157.735C99.4891 157.561 99.2011 157.429 98.8171 157.339C98.4391 157.243 97.9231 157.195 97.2691 157.195V155.449C97.8151 155.449 98.2621 155.404 98.6101 155.314C98.9581 155.224 99.2311 155.098 99.4291 154.936C99.6271 154.774 99.7621 154.579 99.8341 154.351C99.9121 154.123 99.9511 153.874 99.9511 153.604C99.9511 153.034 99.8011 152.599 99.5011 152.299C99.2071 151.999 98.7871 151.849 98.2411 151.849C98.0011 151.849 97.7791 151.885 97.5751 151.957C97.3771 152.023 97.1971 152.116 97.0351 152.236C96.8791 152.356 96.7441 152.497 96.6301 152.659C96.5161 152.821 96.4321 152.998 96.3781 153.19C96.2641 153.49 96.1171 153.691 95.9371 153.793C95.7571 153.889 95.4961 153.91 95.1541 153.856L93.8491 153.622ZM110.275 158.014V154.126C110.275 153.922 110.281 153.706 110.293 153.478C110.311 153.244 110.335 153.001 110.365 152.749L106.585 158.014H110.275ZM113.947 158.014V159.418C113.947 159.55 113.902 159.664 113.812 159.76C113.728 159.85 113.608 159.895 113.452 159.895H112.435V163H110.275V159.895H104.884C104.728 159.895 104.584 159.847 104.452 159.751C104.326 159.655 104.248 159.529 104.218 159.373L103.957 158.131L110.077 149.932H112.435V158.014H113.947ZM115.938 165.214C115.872 165.16 115.824 165.106 115.794 165.052C115.77 164.998 115.758 164.932 115.758 164.854C115.758 164.8 115.776 164.74 115.812 164.674C115.854 164.614 115.902 164.557 115.956 164.503C116.022 164.431 116.103 164.341 116.199 164.233C116.295 164.131 116.391 164.014 116.487 163.882C116.583 163.756 116.67 163.615 116.748 163.459C116.832 163.303 116.895 163.138 116.937 162.964C116.739 162.958 116.559 162.916 116.397 162.838C116.235 162.76 116.097 162.658 115.983 162.532C115.869 162.406 115.779 162.259 115.713 162.091C115.653 161.917 115.623 161.731 115.623 161.533C115.623 161.353 115.656 161.185 115.722 161.029C115.788 160.873 115.881 160.738 116.001 160.624C116.127 160.51 116.274 160.42 116.442 160.354C116.616 160.288 116.808 160.255 117.018 160.255C117.264 160.255 117.477 160.3 117.657 160.39C117.843 160.474 117.996 160.588 118.116 160.732C118.236 160.876 118.326 161.047 118.386 161.245C118.446 161.437 118.476 161.641 118.476 161.857C118.476 162.151 118.431 162.463 118.341 162.793C118.251 163.117 118.116 163.444 117.936 163.774C117.756 164.104 117.534 164.425 117.27 164.737C117.012 165.055 116.712 165.343 116.37 165.601L115.938 165.214ZM123.522 154.621C123.792 154.567 124.05 154.528 124.296 154.504C124.548 154.48 124.791 154.468 125.025 154.468C125.709 154.468 126.312 154.573 126.834 154.783C127.362 154.987 127.803 155.269 128.157 155.629C128.517 155.989 128.787 156.412 128.967 156.898C129.147 157.384 129.237 157.906 129.237 158.464C129.237 159.16 129.114 159.796 128.868 160.372C128.622 160.942 128.28 161.434 127.842 161.848C127.41 162.256 126.891 162.574 126.285 162.802C125.685 163.03 125.028 163.144 124.314 163.144C123.9 163.144 123.504 163.099 123.126 163.009C122.748 162.925 122.394 162.811 122.064 162.667C121.74 162.517 121.437 162.346 121.155 162.154C120.873 161.962 120.621 161.761 120.399 161.551L121.164 160.507C121.326 160.285 121.536 160.174 121.794 160.174C121.956 160.174 122.115 160.222 122.271 160.318C122.427 160.414 122.604 160.522 122.802 160.642C123 160.756 123.231 160.861 123.495 160.957C123.759 161.053 124.08 161.101 124.458 161.101C124.848 161.101 125.187 161.038 125.475 160.912C125.763 160.78 126 160.603 126.186 160.381C126.378 160.153 126.519 159.886 126.609 159.58C126.705 159.268 126.753 158.935 126.753 158.581C126.753 157.903 126.558 157.381 126.168 157.015C125.784 156.643 125.223 156.457 124.485 156.457C123.879 156.457 123.27 156.571 122.658 156.799L121.119 156.367L122.217 149.941H128.769V150.985C128.769 151.159 128.742 151.318 128.688 151.462C128.64 151.6 128.556 151.723 128.436 151.831C128.322 151.933 128.172 152.014 127.986 152.074C127.806 152.128 127.584 152.155 127.32 152.155H123.945L123.522 154.621ZM137.491 153.1C137.491 153.586 137.407 154.027 137.239 154.423C137.071 154.819 136.843 155.161 136.555 155.449C136.273 155.731 135.946 155.95 135.574 156.106C135.202 156.256 134.815 156.331 134.413 156.331C133.969 156.331 133.561 156.256 133.189 156.106C132.817 155.95 132.493 155.731 132.217 155.449C131.947 155.161 131.734 154.819 131.578 154.423C131.428 154.027 131.353 153.586 131.353 153.1C131.353 152.596 131.428 152.143 131.578 151.741C131.734 151.333 131.947 150.988 132.217 150.706C132.493 150.418 132.817 150.196 133.189 150.04C133.561 149.884 133.969 149.806 134.413 149.806C134.857 149.806 135.268 149.884 135.646 150.04C136.024 150.196 136.348 150.418 136.618 150.706C136.894 150.988 137.107 151.333 137.257 151.741C137.413 152.143 137.491 152.596 137.491 153.1ZM135.583 153.1C135.583 152.776 135.553 152.506 135.493 152.29C135.433 152.068 135.349 151.891 135.241 151.759C135.139 151.627 135.016 151.534 134.872 151.48C134.728 151.42 134.575 151.39 134.413 151.39C134.251 151.39 134.098 151.42 133.954 151.48C133.816 151.534 133.696 151.627 133.594 151.759C133.498 151.891 133.42 152.068 133.36 152.29C133.306 152.506 133.279 152.776 133.279 153.1C133.279 153.418 133.306 153.682 133.36 153.892C133.42 154.102 133.498 154.273 133.594 154.405C133.696 154.531 133.816 154.621 133.954 154.675C134.098 154.729 134.251 154.756 134.413 154.756C134.575 154.756 134.728 154.729 134.872 154.675C135.016 154.621 135.139 154.531 135.241 154.405C135.349 154.273 135.433 154.102 135.493 153.892C135.553 153.682 135.583 153.418 135.583 153.1ZM141.721 150.319C141.805 150.223 141.904 150.136 142.018 150.058C142.138 149.98 142.303 149.941 142.513 149.941H144.322L134.557 162.64C134.473 162.742 134.371 162.829 134.251 162.901C134.131 162.967 133.984 163 133.81 163H131.965L141.721 150.319ZM144.925 159.931C144.925 160.417 144.841 160.858 144.673 161.254C144.505 161.65 144.277 161.992 143.989 162.28C143.707 162.562 143.38 162.781 143.008 162.937C142.636 163.087 142.249 163.162 141.847 163.162C141.403 163.162 140.995 163.087 140.623 162.937C140.251 162.781 139.927 162.562 139.651 162.28C139.381 161.992 139.168 161.65 139.012 161.254C138.862 160.858 138.787 160.417 138.787 159.931C138.787 159.427 138.862 158.974 139.012 158.572C139.168 158.164 139.381 157.819 139.651 157.537C139.927 157.249 140.251 157.03 140.623 156.88C140.995 156.724 141.403 156.646 141.847 156.646C142.291 156.646 142.702 156.724 143.08 156.88C143.458 157.03 143.782 157.249 144.052 157.537C144.328 157.819 144.541 158.164 144.691 158.572C144.847 158.974 144.925 159.427 144.925 159.931ZM143.017 159.931C143.017 159.607 142.987 159.337 142.927 159.121C142.867 158.899 142.783 158.722 142.675 158.59C142.573 158.458 142.45 158.365 142.306 158.311C142.162 158.251 142.009 158.221 141.847 158.221C141.685 158.221 141.532 158.251 141.388 158.311C141.25 158.365 141.13 158.458 141.028 158.59C140.932 158.722 140.854 158.899 140.794 159.121C140.74 159.337 140.713 159.607 140.713 159.931C140.713 160.249 140.74 160.513 140.794 160.723C140.854 160.933 140.932 161.104 141.028 161.236C141.13 161.362 141.25 161.452 141.388 161.506C141.532 161.56 141.685 161.587 141.847 161.587C142.009 161.587 142.162 161.56 142.306 161.506C142.45 161.452 142.573 161.362 142.675 161.236C142.783 161.104 142.867 160.933 142.927 160.723C142.987 160.513 143.017 160.249 143.017 159.931Z" fill="#F7F7F7"/>
<path d="M196.251 90.63L195.855 91.107C196.083 91.005 196.329 90.927 196.593 90.873C196.857 90.819 197.142 90.792 197.448 90.792C197.934 90.792 198.408 90.873 198.87 91.035C199.332 91.197 199.743 91.44 200.103 91.764C200.463 92.088 200.751 92.496 200.967 92.988C201.189 93.474 201.3 94.047 201.3 94.707C201.3 95.313 201.186 95.886 200.958 96.426C200.736 96.966 200.418 97.437 200.004 97.839C199.596 98.241 199.104 98.559 198.528 98.793C197.958 99.027 197.322 99.144 196.62 99.144C195.906 99.144 195.267 99.033 194.703 98.811C194.139 98.583 193.659 98.265 193.263 97.857C192.867 97.449 192.564 96.963 192.354 96.399C192.144 95.829 192.039 95.202 192.039 94.518C192.039 93.888 192.162 93.249 192.408 92.601C192.66 91.953 193.041 91.287 193.551 90.603L196.584 86.517C196.704 86.361 196.881 86.226 197.115 86.112C197.349 85.998 197.616 85.941 197.916 85.941H200.121L196.251 90.63ZM196.575 97.146C196.899 97.146 197.199 97.089 197.475 96.975C197.751 96.861 197.988 96.702 198.186 96.498C198.384 96.294 198.54 96.057 198.654 95.787C198.768 95.511 198.825 95.211 198.825 94.887C198.825 94.533 198.771 94.215 198.663 93.933C198.555 93.651 198.402 93.414 198.204 93.222C198.006 93.024 197.769 92.874 197.493 92.772C197.217 92.67 196.911 92.619 196.575 92.619C196.257 92.619 195.966 92.676 195.702 92.79C195.438 92.898 195.21 93.054 195.018 93.258C194.832 93.456 194.685 93.693 194.577 93.969C194.475 94.245 194.424 94.548 194.424 94.878C194.424 95.22 194.469 95.532 194.559 95.814C194.649 96.09 194.784 96.327 194.964 96.525C195.144 96.723 195.366 96.876 195.63 96.984C195.9 97.092 196.215 97.146 196.575 97.146ZM212.39 92.466C212.39 93.606 212.267 94.596 212.021 95.436C211.775 96.276 211.436 96.972 211.004 97.524C210.572 98.07 210.059 98.478 209.465 98.748C208.877 99.012 208.241 99.144 207.557 99.144C206.873 99.144 206.237 99.012 205.649 98.748C205.061 98.478 204.554 98.07 204.128 97.524C203.702 96.972 203.366 96.276 203.12 95.436C202.88 94.596 202.76 93.606 202.76 92.466C202.76 91.326 202.88 90.339 203.12 89.505C203.366 88.665 203.702 87.972 204.128 87.426C204.554 86.874 205.061 86.466 205.649 86.202C206.237 85.932 206.873 85.797 207.557 85.797C208.241 85.797 208.877 85.932 209.465 86.202C210.059 86.466 210.572 86.874 211.004 87.426C211.436 87.972 211.775 88.665 212.021 89.505C212.267 90.339 212.39 91.326 212.39 92.466ZM209.825 92.466C209.825 91.542 209.759 90.78 209.627 90.18C209.501 89.58 209.333 89.106 209.123 88.758C208.913 88.41 208.67 88.167 208.394 88.029C208.124 87.891 207.845 87.822 207.557 87.822C207.269 87.822 206.99 87.891 206.72 88.029C206.456 88.167 206.219 88.41 206.009 88.758C205.805 89.106 205.64 89.58 205.514 90.18C205.388 90.78 205.325 91.542 205.325 92.466C205.325 93.396 205.388 94.161 205.514 94.761C205.64 95.361 205.805 95.835 206.009 96.183C206.219 96.531 206.456 96.774 206.72 96.912C206.99 97.05 207.269 97.119 207.557 97.119C207.845 97.119 208.124 97.05 208.394 96.912C208.67 96.774 208.913 96.531 209.123 96.183C209.333 95.835 209.501 95.361 209.627 94.761C209.759 94.161 209.825 93.396 209.825 92.466ZM214.353 101.214C214.287 101.16 214.239 101.106 214.209 101.052C214.185 100.998 214.173 100.932 214.173 100.854C214.173 100.8 214.191 100.74 214.227 100.674C214.269 100.614 214.317 100.557 214.371 100.503C214.437 100.431 214.518 100.341 214.614 100.233C214.71 100.131 214.806 100.014 214.902 99.882C214.998 99.756 215.085 99.615 215.163 99.459C215.247 99.303 215.31 99.138 215.352 98.964C215.154 98.958 214.974 98.916 214.812 98.838C214.65 98.76 214.512 98.658 214.398 98.532C214.284 98.406 214.194 98.259 214.128 98.091C214.068 97.917 214.038 97.731 214.038 97.533C214.038 97.353 214.071 97.185 214.137 97.029C214.203 96.873 214.296 96.738 214.416 96.624C214.542 96.51 214.689 96.42 214.857 96.354C215.031 96.288 215.223 96.255 215.433 96.255C215.679 96.255 215.892 96.3 216.072 96.39C216.258 96.474 216.411 96.588 216.531 96.732C216.651 96.876 216.741 97.047 216.801 97.245C216.861 97.437 216.891 97.641 216.891 97.857C216.891 98.151 216.846 98.463 216.756 98.793C216.666 99.117 216.531 99.444 216.351 99.774C216.171 100.104 215.949 100.425 215.685 100.737C215.427 101.055 215.127 101.343 214.785 101.601L214.353 101.214ZM219.021 89.622C219.117 88.986 219.297 88.428 219.561 87.948C219.825 87.468 220.155 87.069 220.551 86.751C220.947 86.433 221.397 86.196 221.901 86.04C222.411 85.878 222.96 85.797 223.548 85.797C224.172 85.797 224.73 85.887 225.222 86.067C225.72 86.241 226.14 86.481 226.482 86.787C226.824 87.093 227.085 87.45 227.265 87.858C227.451 88.266 227.544 88.704 227.544 89.172C227.544 89.586 227.499 89.952 227.409 90.27C227.325 90.582 227.196 90.855 227.022 91.089C226.854 91.323 226.644 91.521 226.392 91.683C226.146 91.845 225.861 91.98 225.537 92.088C227.037 92.58 227.787 93.579 227.787 95.085C227.787 95.751 227.664 96.339 227.418 96.849C227.172 97.353 226.842 97.776 226.428 98.118C226.014 98.46 225.531 98.718 224.979 98.892C224.433 99.06 223.86 99.144 223.26 99.144C222.624 99.144 222.063 99.072 221.577 98.928C221.091 98.784 220.662 98.568 220.29 98.28C219.924 97.992 219.609 97.632 219.345 97.2C219.081 96.762 218.85 96.252 218.652 95.67L219.75 95.22C220.038 95.1 220.305 95.067 220.551 95.121C220.803 95.175 220.983 95.307 221.091 95.517C221.211 95.745 221.337 95.955 221.469 96.147C221.607 96.339 221.76 96.507 221.928 96.651C222.096 96.789 222.285 96.897 222.495 96.975C222.711 97.053 222.957 97.092 223.233 97.092C223.581 97.092 223.884 97.035 224.142 96.921C224.4 96.807 224.616 96.66 224.79 96.48C224.964 96.294 225.093 96.087 225.177 95.859C225.267 95.625 225.312 95.394 225.312 95.166C225.312 94.866 225.285 94.596 225.231 94.356C225.177 94.11 225.051 93.903 224.853 93.735C224.661 93.561 224.373 93.429 223.989 93.339C223.611 93.243 223.095 93.195 222.441 93.195V91.449C222.987 91.449 223.434 91.404 223.782 91.314C224.13 91.224 224.403 91.098 224.601 90.936C224.799 90.774 224.934 90.579 225.006 90.351C225.084 90.123 225.123 89.874 225.123 89.604C225.123 89.034 224.973 88.599 224.673 88.299C224.379 87.999 223.959 87.849 223.413 87.849C223.173 87.849 222.951 87.885 222.747 87.957C222.549 88.023 222.369 88.116 222.207 88.236C222.051 88.356 221.916 88.497 221.802 88.659C221.688 88.821 221.604 88.998 221.55 89.19C221.436 89.49 221.289 89.691 221.109 89.793C220.929 89.889 220.668 89.91 220.326 89.856L219.021 89.622ZM235.906 89.1C235.906 89.586 235.822 90.027 235.654 90.423C235.486 90.819 235.258 91.161 234.97 91.449C234.688 91.731 234.361 91.95 233.989 92.106C233.617 92.256 233.23 92.331 232.828 92.331C232.384 92.331 231.976 92.256 231.604 92.106C231.232 91.95 230.908 91.731 230.632 91.449C230.362 91.161 230.149 90.819 229.993 90.423C229.843 90.027 229.768 89.586 229.768 89.1C229.768 88.596 229.843 88.143 229.993 87.741C230.149 87.333 230.362 86.988 230.632 86.706C230.908 86.418 231.232 86.196 231.604 86.04C231.976 85.884 232.384 85.806 232.828 85.806C233.272 85.806 233.683 85.884 234.061 86.04C234.439 86.196 234.763 86.418 235.033 86.706C235.309 86.988 235.522 87.333 235.672 87.741C235.828 88.143 235.906 88.596 235.906 89.1ZM233.998 89.1C233.998 88.776 233.968 88.506 233.908 88.29C233.848 88.068 233.764 87.891 233.656 87.759C233.554 87.627 233.431 87.534 233.287 87.48C233.143 87.42 232.99 87.39 232.828 87.39C232.666 87.39 232.513 87.42 232.369 87.48C232.231 87.534 232.111 87.627 232.009 87.759C231.913 87.891 231.835 88.068 231.775 88.29C231.721 88.506 231.694 88.776 231.694 89.1C231.694 89.418 231.721 89.682 231.775 89.892C231.835 90.102 231.913 90.273 232.009 90.405C232.111 90.531 232.231 90.621 232.369 90.675C232.513 90.729 232.666 90.756 232.828 90.756C232.99 90.756 233.143 90.729 233.287 90.675C233.431 90.621 233.554 90.531 233.656 90.405C233.764 90.273 233.848 90.102 233.908 89.892C233.968 89.682 233.998 89.418 233.998 89.1ZM240.136 86.319C240.22 86.223 240.319 86.136 240.433 86.058C240.553 85.98 240.718 85.941 240.928 85.941H242.737L232.972 98.64C232.888 98.742 232.786 98.829 232.666 98.901C232.546 98.967 232.399 99 232.225 99H230.38L240.136 86.319ZM243.34 95.931C243.34 96.417 243.256 96.858 243.088 97.254C242.92 97.65 242.692 97.992 242.404 98.28C242.122 98.562 241.795 98.781 241.423 98.937C241.051 99.087 240.664 99.162 240.262 99.162C239.818 99.162 239.41 99.087 239.038 98.937C238.666 98.781 238.342 98.562 238.066 98.28C237.796 97.992 237.583 97.65 237.427 97.254C237.277 96.858 237.202 96.417 237.202 95.931C237.202 95.427 237.277 94.974 237.427 94.572C237.583 94.164 237.796 93.819 238.066 93.537C238.342 93.249 238.666 93.03 239.038 92.88C239.41 92.724 239.818 92.646 240.262 92.646C240.706 92.646 241.117 92.724 241.495 92.88C241.873 93.03 242.197 93.249 242.467 93.537C242.743 93.819 242.956 94.164 243.106 94.572C243.262 94.974 243.34 95.427 243.34 95.931ZM241.432 95.931C241.432 95.607 241.402 95.337 241.342 95.121C241.282 94.899 241.198 94.722 241.09 94.59C240.988 94.458 240.865 94.365 240.721 94.311C240.577 94.251 240.424 94.221 240.262 94.221C240.1 94.221 239.947 94.251 239.803 94.311C239.665 94.365 239.545 94.458 239.443 94.59C239.347 94.722 239.269 94.899 239.209 95.121C239.155 95.337 239.128 95.607 239.128 95.931C239.128 96.249 239.155 96.513 239.209 96.723C239.269 96.933 239.347 97.104 239.443 97.236C239.545 97.362 239.665 97.452 239.803 97.506C239.947 97.56 240.1 97.587 240.262 97.587C240.424 97.587 240.577 97.56 240.721 97.506C240.865 97.452 240.988 97.362 241.09 97.236C241.198 97.104 241.282 96.933 241.342 96.723C241.402 96.513 241.432 96.249 241.432 95.931Z" fill="#F7F7F7"/>
<defs>
<linearGradient id="paint0_linear_1575_8125" x1="24.1604" y1="366.907" x2="45.5019" y2="323.479" gradientUnits="userSpaceOnUse">
<stop stop-color="#1945E0"/>
<stop offset="0.625" stop-color="#2D3274"/>
</linearGradient>
<linearGradient id="paint1_linear_1575_8125" x1="32.3464" y1="303.907" x2="49.139" y2="255.86" gradientUnits="userSpaceOnUse">
<stop stop-color="#1945E0"/>
<stop offset="0.625" stop-color="#2D3274"/>
</linearGradient>
<linearGradient id="paint2_linear_1575_8125" x1="261" y1="70.3444" x2="258.18" y2="125.902" gradientUnits="userSpaceOnUse">
<stop offset="0.480195" stop-color="#FFAC00"/>
<stop offset="1" stop-color="#FFD748"/>
</linearGradient>
<linearGradient id="paint3_linear_1575_8125" x1="275" y1="5.34445" x2="272.325" y2="60.9161" gradientUnits="userSpaceOnUse">
<stop offset="0.480195" stop-color="#FFAC00"/>
<stop offset="1" stop-color="#FFD748"/>
</linearGradient>
<linearGradient id="paint4_linear_1575_8125" x1="163.271" y1="135.344" x2="158.74" y2="190.674" gradientUnits="userSpaceOnUse">
<stop offset="0.480195" stop-color="#FFAC00"/>
<stop offset="1" stop-color="#FFD748"/>
</linearGradient>
<linearGradient id="paint5_linear_1575_8125" x1="37.5557" y1="238.907" x2="52.1979" y2="189.314" gradientUnits="userSpaceOnUse">
<stop stop-color="#1945E0"/>
<stop offset="0.625" stop-color="#2D3274"/>
</linearGradient>
</defs>
</svg>
