<svg width="24" height="24" viewBox="0 0 24 24" fill="none" xmlns="http://www.w3.org/2000/svg">
<path d="M21.8333 2.9772H18.2897C18.2188 2.9772 18.1507 3.0054 18.1005 3.05558C18.0503 3.10577 18.0221 3.17383 18.0221 3.2448C18.0221 3.2904 18.0365 3.3312 18.0563 3.3684V5.4072C18.0564 5.48192 18.0418 5.55592 18.0132 5.62497C17.9846 5.69401 17.9428 5.75675 17.8899 5.80958C17.8371 5.86242 17.7743 5.90431 17.7053 5.93287C17.6363 5.96142 17.5623 5.97608 17.4875 5.976H16.3847C16.3154 5.976 16.2467 5.96235 16.1827 5.93581C16.1186 5.90928 16.0604 5.87039 16.0114 5.82136C15.9624 5.77233 15.9235 5.71412 15.8969 5.65006C15.8704 5.586 15.8567 5.51734 15.8567 5.448V3.4014C15.8921 3.35676 15.9119 3.30176 15.9131 3.2448C15.9132 3.20964 15.9064 3.17481 15.8929 3.1423C15.8795 3.1098 15.8598 3.08027 15.8349 3.05541C15.8101 3.03054 15.7805 3.01083 15.748 2.99741C15.7155 2.98399 15.6807 2.97712 15.6455 2.9772H8.50254C8.43157 2.9772 8.3635 3.0054 8.31332 3.05558C8.26313 3.10577 8.23494 3.17383 8.23494 3.2448C8.23494 3.2862 8.24634 3.324 8.26314 3.3594V5.4216C8.26314 5.49449 8.24879 5.56666 8.22089 5.63399C8.193 5.70133 8.15212 5.76251 8.10058 5.81405C8.04905 5.86559 7.98787 5.90647 7.92053 5.93436C7.85319 5.96225 7.78102 5.9766 7.70814 5.9766H6.72894C6.58031 5.9766 6.43777 5.91756 6.33268 5.81247C6.22758 5.70737 6.16854 5.56483 6.16854 5.4162V3.3744C6.19237 3.3353 6.20541 3.29058 6.20634 3.2448C6.20642 3.20964 6.19955 3.17481 6.18613 3.1423C6.17271 3.1098 6.153 3.08027 6.12814 3.05541C6.10327 3.03054 6.07374 3.01083 6.04124 2.99741C6.00874 2.98399 5.9739 2.97712 5.93874 2.9772H2.20494C2.04724 2.97736 1.89603 3.04004 1.78446 3.1515C1.67289 3.26295 1.61006 3.4141 1.60974 3.5718V21.2922C1.60974 21.621 1.87674 21.888 2.20494 21.888H21.8333C21.9911 21.8877 22.1424 21.8248 22.2539 21.7131C22.3653 21.6014 22.4279 21.45 22.4279 21.2922V3.5718C22.4276 3.4142 22.3649 3.26315 22.2534 3.15171C22.142 3.04027 21.9909 2.97752 21.8333 2.9772ZM21.8333 21.3528H2.20494C2.19701 21.3528 2.18916 21.3512 2.18184 21.3482C2.17452 21.3451 2.16788 21.3407 2.1623 21.335C2.15672 21.3294 2.15231 21.3227 2.14933 21.3153C2.14636 21.308 2.14486 21.3001 2.14494 21.2922V7.9284H21.8927V21.2916C21.8929 21.2995 21.8915 21.3074 21.8886 21.3148C21.8857 21.3222 21.8813 21.3289 21.8758 21.3346C21.8703 21.3403 21.8637 21.3448 21.8564 21.348C21.8491 21.3511 21.8413 21.3527 21.8333 21.3528Z" fill="#2D3274" fill-opacity="0.8"/>
<path d="M7.28811 5.36641C7.43571 5.36641 7.55571 5.24641 7.55571 5.09881V1.50001C7.55571 1.46486 7.54879 1.43007 7.53534 1.3976C7.52189 1.36513 7.50218 1.33563 7.47733 1.31078C7.45248 1.28594 7.42298 1.26622 7.39051 1.25278C7.35805 1.23933 7.32325 1.23241 7.28811 1.23241C7.25297 1.23241 7.21817 1.23933 7.1857 1.25278C7.15323 1.26622 7.12374 1.28594 7.09889 1.31078C7.07404 1.33563 7.05433 1.36513 7.04088 1.3976C7.02743 1.43007 7.02051 1.46486 7.02051 1.50001V5.09941C7.02051 5.24701 7.14051 5.36641 7.28811 5.36641ZM16.9805 5.36641C17.1281 5.36641 17.2481 5.24641 17.2481 5.09881V1.50001C17.2481 1.46486 17.2412 1.43007 17.2277 1.3976C17.2143 1.36513 17.1946 1.33563 17.1697 1.31078C17.1449 1.28594 17.1154 1.26622 17.0829 1.25278C17.0504 1.23933 17.0156 1.23241 16.9805 1.23241C16.9454 1.23241 16.9106 1.23933 16.8781 1.25278C16.8456 1.26622 16.8161 1.28594 16.7913 1.31078C16.7664 1.33563 16.7467 1.36513 16.7333 1.3976C16.7198 1.43007 16.7129 1.46486 16.7129 1.50001V5.09941C16.7129 5.24701 16.8323 5.36641 16.9805 5.36641Z" fill="#2D3274" fill-opacity="0.8"/>
<path d="M5.9051 11.9766C6.71961 11.9766 7.3799 11.3163 7.3799 10.5018C7.3799 9.6873 6.71961 9.02701 5.9051 9.02701C5.09059 9.02701 4.4303 9.6873 4.4303 10.5018C4.4303 11.3163 5.09059 11.9766 5.9051 11.9766Z" fill="#2D3274" fill-opacity="0.8"/>
<path d="M10.1435 11.9766C10.958 11.9766 11.6183 11.3163 11.6183 10.5018C11.6183 9.6873 10.958 9.02701 10.1435 9.02701C9.32899 9.02701 8.6687 9.6873 8.6687 10.5018C8.6687 11.3163 9.32899 11.9766 10.1435 11.9766Z" fill="#2D3274" fill-opacity="0.8"/>
<path d="M14.3813 11.9766C15.1958 11.9766 15.8561 11.3163 15.8561 10.5018C15.8561 9.6873 15.1958 9.02701 14.3813 9.02701C13.5668 9.02701 12.9065 9.6873 12.9065 10.5018C12.9065 11.3163 13.5668 11.9766 14.3813 11.9766Z" fill="#2D3274" fill-opacity="0.8"/>
<path d="M5.9051 16.0836C6.71961 16.0836 7.3799 15.4233 7.3799 14.6088C7.3799 13.7943 6.71961 13.134 5.9051 13.134C5.09059 13.134 4.4303 13.7943 4.4303 14.6088C4.4303 15.4233 5.09059 16.0836 5.9051 16.0836Z" fill="#2D3274" fill-opacity="0.8"/>
<path d="M10.1435 16.0836C10.958 16.0836 11.6183 15.4233 11.6183 14.6088C11.6183 13.7943 10.958 13.134 10.1435 13.134C9.32899 13.134 8.6687 13.7943 8.6687 14.6088C8.6687 15.4233 9.32899 16.0836 10.1435 16.0836Z" fill="#2D3274" fill-opacity="0.8"/>
<path d="M14.3813 16.0836C15.1958 16.0836 15.8561 15.4233 15.8561 14.6088C15.8561 13.7943 15.1958 13.134 14.3813 13.134C13.5668 13.134 12.9065 13.7943 12.9065 14.6088C12.9065 15.4233 13.5668 16.0836 14.3813 16.0836Z" fill="#2D3274" fill-opacity="0.8"/>
<path d="M5.9051 20.1906C6.71961 20.1906 7.3799 19.5303 7.3799 18.7158C7.3799 17.9013 6.71961 17.241 5.9051 17.241C5.09059 17.241 4.4303 17.9013 4.4303 18.7158C4.4303 19.5303 5.09059 20.1906 5.9051 20.1906Z" fill="#2D3274" fill-opacity="0.8"/>
<path d="M10.1435 20.1906C10.958 20.1906 11.6183 19.5303 11.6183 18.7158C11.6183 17.9013 10.958 17.241 10.1435 17.241C9.32899 17.241 8.6687 17.9013 8.6687 18.7158C8.6687 19.5303 9.32899 20.1906 10.1435 20.1906Z" fill="#2D3274" fill-opacity="0.8"/>
<path d="M14.3813 20.1906C15.1958 20.1906 15.8561 19.5303 15.8561 18.7158C15.8561 17.9013 15.1958 17.241 14.3813 17.241C13.5668 17.241 12.9065 17.9013 12.9065 18.7158C12.9065 19.5303 13.5668 20.1906 14.3813 20.1906Z" fill="#2D3274" fill-opacity="0.8"/>
<path d="M18.5201 11.9766C19.3346 11.9766 19.9949 11.3163 19.9949 10.5018C19.9949 9.6873 19.3346 9.02701 18.5201 9.02701C17.7056 9.02701 17.0453 9.6873 17.0453 10.5018C17.0453 11.3163 17.7056 11.9766 18.5201 11.9766Z" fill="#2D3274" fill-opacity="0.8"/>
<path d="M18.5201 16.0836C19.3346 16.0836 19.9949 15.4233 19.9949 14.6088C19.9949 13.7943 19.3346 13.134 18.5201 13.134C17.7056 13.134 17.0453 13.7943 17.0453 14.6088C17.0453 15.4233 17.7056 16.0836 18.5201 16.0836Z" fill="#2D3274" fill-opacity="0.8"/>
<path d="M18.5201 20.1906C19.3346 20.1906 19.9949 19.5303 19.9949 18.7158C19.9949 17.9013 19.3346 17.241 18.5201 17.241C17.7056 17.241 17.0453 17.9013 17.0453 18.7158C17.0453 19.5303 17.7056 20.1906 18.5201 20.1906Z" fill="#2D3274" fill-opacity="0.8"/>
</svg>
