<svg width="29" height="36" viewBox="0 0 29 36" fill="none" xmlns="http://www.w3.org/2000/svg">
<path d="M11.7501 14.625C11.7501 14.3266 11.8739 14.0405 12.0943 13.8295C12.3146 13.6185 12.6135 13.5 12.9251 13.5H21.1501C21.4618 13.5 21.7606 13.6185 21.981 13.8295C22.2013 14.0405 22.3251 14.3266 22.3251 14.625C22.3251 14.9234 22.2013 15.2095 21.981 15.4205C21.7606 15.6315 21.4618 15.75 21.1501 15.75H12.9251C12.6135 15.75 12.3146 15.6315 12.0943 15.4205C11.8739 15.2095 11.7501 14.9234 11.7501 14.625ZM11.7501 21.375C11.7501 21.0766 11.8739 20.7905 12.0943 20.5795C12.3146 20.3685 12.6135 20.25 12.9251 20.25H21.1501C21.4618 20.25 21.7606 20.3685 21.981 20.5795C22.2013 20.7905 22.3251 21.0766 22.3251 21.375C22.3251 21.6734 22.2013 21.9595 21.981 22.1705C21.7606 22.3815 21.4618 22.5 21.1501 22.5H12.9251C12.6135 22.5 12.3146 22.3815 12.0943 22.1705C11.8739 21.9595 11.7501 21.6734 11.7501 21.375ZM11.7501 28.125C11.7501 27.8266 11.8739 27.5405 12.0943 27.3295C12.3146 27.1185 12.6135 27 12.9251 27H21.1501C21.4618 27 21.7606 27.1185 21.981 27.3295C22.2013 27.5405 22.3251 27.8266 22.3251 28.125C22.3251 28.4234 22.2013 28.7095 21.981 28.9205C21.7606 29.1315 21.4618 29.25 21.1501 29.25H12.9251C12.6135 29.25 12.3146 29.1315 12.0943 28.9205C11.8739 28.7095 11.7501 28.4234 11.7501 28.125ZM9.40012 14.625C9.40012 15.0726 9.21443 15.5018 8.8839 15.8182C8.55337 16.1347 8.10507 16.3125 7.63762 16.3125C7.17018 16.3125 6.72188 16.1347 6.39135 15.8182C6.06081 15.5018 5.87512 15.0726 5.87512 14.625C5.87512 14.1774 6.06081 13.7482 6.39135 13.4318C6.72188 13.1153 7.17018 12.9375 7.63762 12.9375C8.10507 12.9375 8.55337 13.1153 8.8839 13.4318C9.21443 13.7482 9.40012 14.1774 9.40012 14.625ZM9.40012 21.375C9.40012 21.8226 9.21443 22.2518 8.8839 22.5682C8.55337 22.8847 8.10507 23.0625 7.63762 23.0625C7.17018 23.0625 6.72188 22.8847 6.39135 22.5682C6.06081 22.2518 5.87512 21.8226 5.87512 21.375C5.87512 20.9274 6.06081 20.4982 6.39135 20.1818C6.72188 19.8653 7.17018 19.6875 7.63762 19.6875C8.10507 19.6875 8.55337 19.8653 8.8839 20.1818C9.21443 20.4982 9.40012 20.9274 9.40012 21.375ZM7.63762 29.8125C8.10507 29.8125 8.55337 29.6347 8.8839 29.3182C9.21443 29.0018 9.40012 28.5726 9.40012 28.125C9.40012 27.6774 9.21443 27.2482 8.8839 26.9318C8.55337 26.6153 8.10507 26.4375 7.63762 26.4375C7.17018 26.4375 6.72188 26.6153 6.39135 26.9318C6.06081 27.2482 5.87512 27.6774 5.87512 28.125C5.87512 28.5726 6.06081 29.0018 6.39135 29.3182C6.72188 29.6347 7.17018 29.8125 7.63762 29.8125ZM7.24987 2.25C7.49296 1.5917 7.94332 1.02179 8.53887 0.618813C9.13442 0.215838 9.84586 -0.00036558 10.5751 4.64033e-07H17.6251C18.3544 -0.00036558 19.0658 0.215838 19.6614 0.618813C20.2569 1.02179 20.7073 1.5917 20.9504 2.25H24.6751C25.61 2.25 26.5066 2.60558 27.1677 3.23852C27.8287 3.87145 28.2001 4.7299 28.2001 5.625V32.625C28.2001 33.5201 27.8287 34.3785 27.1677 35.0115C26.5066 35.6444 25.61 36 24.6751 36H3.52512C2.59023 36 1.69364 35.6444 1.03257 35.0115C0.371505 34.3785 0.00012207 33.5201 0.00012207 32.625V5.625C0.00012207 4.7299 0.371505 3.87145 1.03257 3.23852C1.69364 2.60558 2.59023 2.25 3.52512 2.25H7.24987ZM10.5751 2.25C10.2635 2.25 9.96463 2.36853 9.74427 2.57951C9.52392 2.79048 9.40012 3.07663 9.40012 3.375C9.40012 3.67337 9.52392 3.95952 9.74427 4.1705C9.96463 4.38147 10.2635 4.5 10.5751 4.5H17.6251C17.9368 4.5 18.2356 4.38147 18.456 4.1705C18.6763 3.95952 18.8001 3.67337 18.8001 3.375C18.8001 3.07663 18.6763 2.79048 18.456 2.57951C18.2356 2.36853 17.9368 2.25 17.6251 2.25H10.5751ZM7.24987 4.5H3.52512C3.21349 4.5 2.91463 4.61853 2.69427 4.82951C2.47392 5.04048 2.35012 5.32663 2.35012 5.625V32.625C2.35012 32.9234 2.47392 33.2095 2.69427 33.4205C2.91463 33.6315 3.21349 33.75 3.52512 33.75H24.6751C24.9868 33.75 25.2856 33.6315 25.506 33.4205C25.7263 33.2095 25.8501 32.9234 25.8501 32.625V5.625C25.8501 5.32663 25.7263 5.04048 25.506 4.82951C25.2856 4.61853 24.9868 4.5 24.6751 4.5H20.9504C20.7073 5.1583 20.2569 5.72821 19.6614 6.13119C19.0658 6.53416 18.3544 6.75037 17.6251 6.75H10.5751C9.84586 6.75037 9.13442 6.53416 8.53887 6.13119C7.94332 5.72821 7.49296 5.1583 7.24987 4.5Z" fill="#2D3274"/>
</svg>
