<svg width="70" height="70" viewBox="0 0 70 70" fill="none" xmlns="http://www.w3.org/2000/svg">
<rect width="70" height="70" rx="35" fill="#FBFBFB"/>
<path d="M32.9259 14.3899C33.6286 12.5367 36.2877 12.5367 36.9926 14.3899L41.5379 26.9807C41.6964 27.3908 41.9757 27.7432 42.3387 27.9914C42.7017 28.2395 43.1314 28.3718 43.5712 28.3706H54.7412C56.8053 28.3706 57.7055 30.9397 56.0828 32.1979L48.134 39.3496C47.778 39.6233 47.5178 40.0028 47.3908 40.4336C47.2637 40.8644 47.2764 41.3243 47.427 41.7474L50.3298 54.0505C51.0369 56.0267 48.7489 57.7241 47.0186 56.5076L36.2218 49.6567C35.8521 49.3968 35.4112 49.2574 34.9592 49.2574C34.5073 49.2574 34.0664 49.3968 33.6967 49.6567L22.8999 56.5076C21.1718 57.7241 18.8816 56.0245 19.5886 54.0505L22.4915 41.7474C22.6421 41.3243 22.6548 40.8644 22.5277 40.4336C22.4007 40.0028 22.1405 39.6233 21.7844 39.3496L13.8356 32.1979C12.2108 30.9397 13.1154 28.3706 15.1751 28.3706H26.3451C26.7849 28.3721 27.2148 28.24 27.5779 27.9918C27.941 27.7436 28.2201 27.391 28.3784 26.9807L32.9237 14.3899H32.9259Z" fill="#FFAF42"/>
</svg>
