<svg width="70" height="70" viewBox="0 0 70 70" fill="none" xmlns="http://www.w3.org/2000/svg">
<circle cx="20" cy="32.5" r="1" fill="#2D3274" fill-opacity="0.8"/>
<circle cx="13" cy="42.5" r="1" fill="#2D3274" fill-opacity="0.8"/>
<circle cx="13" cy="47.5" r="1" fill="#2D3274" fill-opacity="0.8"/>
<circle cx="19" cy="47.5" r="1" fill="#2D3274" fill-opacity="0.8"/>
<circle cx="34" cy="44.5" r="1" fill="#2D3274" fill-opacity="0.8"/>
<circle cx="60" cy="44.5" r="1" fill="#2D3274" fill-opacity="0.8"/>
<path d="M41.5 44.5H52M1 21V14C1 13.4477 1.44772 13 2 13H23C23.5523 13 24 13.4477 24 14V35.5215C24 36.0653 23.5654 36.5094 23.0217 36.5213L2.02173 36.9778C1.46107 36.99 1 36.5388 1 35.978V28M1 21H6.47605C6.80419 21 7.11146 20.839 7.29824 20.5692L10.1897 16.3927C10.6874 15.6737 11.8033 15.895 11.989 16.7495L13.5822 24.078C13.7559 24.8772 14.7634 25.1412 15.3068 24.5299L17.7017 21.8356C17.8914 21.6221 18.1634 21.5 18.4491 21.5H22.5C23.0523 21.5 23.5 21.9477 23.5 22.5V27C23.5 27.5523 23.0523 28 22.5 28H1M1 21V28M37.5 23C33.5874 23 31.2694 31.2922 30.5461 35.7099C30.5149 35.9008 30.4259 36.0826 30.298 36.2277C21.28 46.4526 25.6086 50.1361 29.5858 50.8785C30.0983 50.9742 30.5 51.4018 30.5 51.9232V54.9648C30.5 55.2992 30.6641 55.6175 30.9592 55.7749C32.9114 56.816 34.9195 56.3218 36.0363 55.7657C36.3356 55.6166 36.5 55.2992 36.5 54.9648V52C36.5 51.4477 36.9477 51 37.5 51H55.5C56.0523 51 56.5 51.4477 56.5 52V55C56.5 55.3148 56.6475 55.6156 56.9098 55.7896C59.6421 57.6025 61.788 56.6665 62.7515 55.7621C62.9221 55.602 63 55.3719 63 55.138V52C63 51.4477 63.4558 51.0069 64.0058 50.9557C71.6556 50.2439 66.852 41.1196 63.1864 36.2455C63.0644 36.0833 62.995 35.8887 62.9823 35.6862C62.5091 28.1597 58.7424 24.2567 56.7078 23.1106C56.5726 23.0344 56.4232 23 56.2679 23C51.499 23 41.435 23 37.5 23ZM39 28C37.9658 28 36.6097 31.9615 35.828 34.7632C35.6531 35.3899 36.1302 36 36.7808 36H57C57.5523 36 57.9994 35.5495 57.892 35.0077C57.4622 32.8401 55.8456 30.0138 54.7923 28.429C54.6116 28.1572 54.3072 28 53.9809 28C49.1552 28 40.1571 28 39 28Z" stroke="#2D3274" stroke-opacity="0.8" stroke-width="2"/>
</svg>
