<svg width="17" height="17" viewBox="0 0 17 17" fill="none" xmlns="http://www.w3.org/2000/svg">
<path d="M7.71326 0.538042C7.98526 -0.179347 9.01459 -0.179347 9.28744 0.538042L11.0469 5.41187C11.1083 5.57063 11.2164 5.70705 11.3569 5.80311C11.4974 5.89917 11.6638 5.95036 11.834 5.94991H16.1579C16.9569 5.94991 17.3054 6.9444 16.6772 7.43144L13.6003 10.1998C13.4624 10.3058 13.3617 10.4527 13.3125 10.6194C13.2634 10.7862 13.2683 10.9642 13.3266 11.128L14.4503 15.8905C14.724 16.6555 13.8383 17.3125 13.1685 16.8416L8.98909 14.1897C8.84597 14.0891 8.67529 14.0351 8.50035 14.0351C8.32541 14.0351 8.15474 14.0891 8.01161 14.1897L3.83222 16.8416C3.16328 17.3125 2.27675 16.6546 2.55044 15.8905L3.67413 11.128C3.73242 10.9642 3.73733 10.7862 3.68816 10.6194C3.63899 10.4527 3.53826 10.3058 3.40043 10.1998L0.323475 7.43144C-0.305515 6.9444 0.0446794 5.94991 0.841967 5.94991H5.16585C5.3361 5.95048 5.5025 5.89934 5.64305 5.80326C5.7836 5.70719 5.89166 5.5707 5.95294 5.41187L7.71241 0.538042H7.71326Z" fill="#FFAF42"/>
</svg>
