<svg width="60" height="60" viewBox="0 0 60 60" fill="none" xmlns="http://www.w3.org/2000/svg">
<path d="M30 60C46.5685 60 60 46.5685 60 30C60 13.4315 46.5685 0 30 0C13.4315 0 0 13.4315 0 30C0 46.5685 13.4315 60 30 60Z" fill="#FFCC4D"/>
<path d="M40.8337 31.6666C45.8963 31.6666 50.0003 27.5626 50.0003 22.5C50.0003 17.4374 45.8963 13.3333 40.8337 13.3333C35.771 13.3333 31.667 17.4374 31.667 22.5C31.667 27.5626 35.771 31.6666 40.8337 31.6666Z" fill="#F4F7F9"/>
<path d="M19.1667 31.6666C24.2293 31.6666 28.3333 27.5626 28.3333 22.5C28.3333 17.4374 24.2293 13.3333 19.1667 13.3333C14.1041 13.3333 10 17.4374 10 22.5C10 27.5626 14.1041 31.6666 19.1667 31.6666Z" fill="#F4F7F9"/>
<path d="M38.5147 39.0401C33.9097 37.9284 23.7263 38.9401 19.9113 46.3817C19.7747 46.6451 19.8447 46.9701 20.078 47.1551C20.1913 47.2467 20.3297 47.2917 20.468 47.2917C20.6097 47.2917 20.753 47.2434 20.8697 47.1467C26.0097 42.8467 33.263 42.8467 37.5963 42.8467C40.3213 42.8467 41.823 42.8467 41.823 41.6667C41.823 40.4867 40.648 39.5534 38.5147 39.0401ZM17.4997 21.6667C19.8013 21.6667 21.6663 19.8017 21.6663 17.5001C21.6663 15.4134 20.128 13.7001 18.1263 13.3967C16.8097 13.5451 15.583 13.9767 14.4963 14.6234C13.7797 15.3717 13.333 16.3817 13.333 17.5001C13.333 19.8017 15.198 21.6667 17.4997 21.6667ZM39.1663 21.6667C41.468 21.6667 43.333 19.8017 43.333 17.5001C43.333 15.4134 41.7947 13.7001 39.793 13.3967C38.478 13.5451 37.2497 13.9767 36.1647 14.6234C35.4463 15.3717 34.9997 16.3817 34.9997 17.5001C34.9997 19.8017 36.8647 21.6667 39.1663 21.6667Z" fill="#65471B"/>
</svg>
