<svg width="33" height="32" viewBox="0 0 33 32" fill="none" xmlns="http://www.w3.org/2000/svg">
<path d="M21.2239 11.5054C21.4639 11.2663 21.7858 11.1274 22.1244 11.1171C22.463 11.1067 22.7929 11.2257 23.0469 11.4497C23.301 11.6738 23.4603 11.9861 23.4924 12.3233C23.5246 12.6606 23.4271 12.9974 23.2199 13.2654L23.1092 13.3907L16.1306 20.3707C15.8764 20.6249 15.5377 20.7768 15.1788 20.7977C14.8199 20.8186 14.4659 20.707 14.1839 20.484L14.0559 20.3707L10.8506 17.1654C10.6089 16.926 10.4679 16.6033 10.4563 16.2633C10.4448 15.9233 10.5636 15.5918 10.7885 15.3366C11.0134 15.0814 11.3274 14.9218 11.6661 14.8904C12.0048 14.8591 12.3427 14.9584 12.6106 15.168L12.7359 15.2787L15.0932 17.636L21.2239 11.5054Z" fill="#2D3274"/>
<path d="M28.6465 7.09091L16.6465 2L4.64648 7.09091L4.64649 18.5455C4.64649 23.6364 12.6465 28.303 16.6465 30C24.2254 26.8182 28.6465 22.3636 28.6465 18.5455V7.09091Z" stroke="#2D3274" stroke-width="2"/>
</svg>
