<svg width="27" height="27" viewBox="0 0 27 27" fill="none" xmlns="http://www.w3.org/2000/svg">
<circle cx="13.5" cy="13.5" r="13.5" fill="white"/>
<path d="M25 20L21.8996 13.4174H5.03914L2 20H7.0608L8.64163 16.3417H18.365L19.9405 20H25Z" fill="#2D3274"/>
<path d="M20.1627 10.4613C19.9696 10.1029 19.7725 9.75113 19.574 9.40999C17.0756 5.28179 13.8567 3.14336 9.89993 3L8.00879 7.22775C8.399 7.23439 8.80919 7.24634 9.25668 7.27156C10.422 7.36979 11.4768 7.6419 12.4183 8.08127C13.3053 8.49542 14.1364 8.96532 14.8861 9.47769C15.6439 9.99006 16.7413 10.3246 18.1797 10.46H20.1627V10.4613Z" fill="#FFAF42"/>
</svg>
