<svg width="60" height="60" viewBox="0 0 60 60" fill="none" xmlns="http://www.w3.org/2000/svg">
<path d="M30 60C46.5685 60 60 46.5685 60 30C60 13.4315 46.5685 0 30 0C13.4315 0 0 13.4315 0 30C0 46.5685 13.4315 60 30 60Z" fill="#FFCC4D"/>
<path d="M17.5253 39.3683C17.6003 39.6666 19.4719 46.6666 30.0003 46.6666C40.5303 46.6666 42.4003 39.6666 42.4753 39.3683C42.5669 39.0066 42.4036 38.6316 42.0803 38.445C41.7553 38.26 41.3486 38.315 41.0803 38.5733C41.0486 38.605 37.8236 41.6666 30.0003 41.6666C22.1769 41.6666 18.9503 38.605 18.9203 38.575C18.7603 38.4166 18.5469 38.3333 18.3336 38.3333C18.1936 38.3333 18.0519 38.3683 17.9236 38.44C17.5969 38.6266 17.4336 39.005 17.5253 39.3683Z" fill="#664500"/>
<path d="M19.9997 28.3334C22.3009 28.3334 24.1663 25.7217 24.1663 22.5C24.1663 19.2784 22.3009 16.6667 19.9997 16.6667C17.6985 16.6667 15.833 19.2784 15.833 22.5C15.833 25.7217 17.6985 28.3334 19.9997 28.3334Z" fill="#664500"/>
<path d="M39.9997 28.3334C42.3009 28.3334 44.1663 25.7217 44.1663 22.5C44.1663 19.2784 42.3009 16.6667 39.9997 16.6667C37.6985 16.6667 35.833 19.2784 35.833 22.5C35.833 25.7217 37.6985 28.3334 39.9997 28.3334Z" fill="#664500"/>
</svg>
