<svg width="70" height="70" viewBox="0 0 70 70" fill="none" xmlns="http://www.w3.org/2000/svg">
<path d="M44.1496 66.956H23.1496C20.6496 67.1226 16.6496 66.009 16.6496 59.956C16.6496 53.956 16.9829 34.456 16.6496 25.456M13.1497 7.95595V13.9559M22.1496 7.45608H46.6497C48.6497 7.45608 51.6497 7.95586 51.6497 13.9559V49.4561L54.6497 53.4561L46.6497 45.4561C45.1497 43.9561 39.6497 45.4561 42.6497 49.9561L47.1497 54.9561C45.983 57.6227 44.2497 63.5561 46.6497 65.9561V67.4561M52.1497 41.4561L57.6497 46.4561C58.6497 47.4561 60.5497 50.2561 60.1497 53.4561V67.4561M24.6497 30.4561H22.1496V27.4561C22.1496 26.7894 22.3496 25.456 23.1496 25.456C23.9496 25.456 25.483 25.456 26.1497 25.456L29.6497 20.4561H38.6497L41.6497 24.9561L45.1497 25.456C45.483 25.7893 46.1497 26.6561 46.1497 27.4561C46.1497 28.2561 46.1497 29.7894 46.1497 30.4561H44.1496H43.1497M30.6497 30.4561H37.6497M29.6497 36.9561H47.1497M29.6497 41.4561H47.1497M30.1497 45.9561H37.1497M30.1497 50.4561H37.1497M30.1497 54.9561H40.6497M30.1497 59.4561H41.6497M56.1497 32.9561L60.6497 37.4561M62.6497 38.9561L64.6497 41.4561M56.1497 25.9561H62.1497M64.6497 25.9561H67.1497M56.1497 19.4561L61.1497 14.956M62.6497 12.9561L64.6497 10.9561M13.1497 16.4559V17.9561M26.6497 15.4561H31.6497M34.1497 15.4561H39.6497M42.1497 15.4561H47.1497M22.1496 21.956H6.14961C4.31627 21.7893 1.34961 20.156 4.14961 14.956C6.94961 9.75595 8.98297 6.78929 9.64966 5.95596C10.983 3.62262 13.7883 0.673766 17.1497 5.95596C20.6497 11.4561 22.1497 12.9559 23.6497 16.4559C25.1497 19.9559 24.6497 22.4559 22.1496 21.956ZM26.1497 8.45605L27.6497 9.95605H40.1497L42.1497 8.45605H26.1497ZM22.1496 37.4561H26.6497V41.4561H22.1496V37.4561ZM22.1496 45.9561H26.6497V50.4561H22.1496V45.9561ZM22.1496 54.9561H26.6497V58.9561H22.1496V54.9561Z" stroke="#FFFFFF" stroke-opacity="0.8" stroke-width="2"/>
<circle cx="27.6494" cy="30.4561" r="2.5" stroke="#FFFFFF" stroke-opacity="0.8" stroke-width="2"/>
<circle cx="40.6494" cy="30.4561" r="2.5" stroke="#FFFFFF" stroke-opacity="0.8" stroke-width="2"/>
</svg>
