<svg width="60" height="60" viewBox="0 0 60 60" fill="none" xmlns="http://www.w3.org/2000/svg">
<path d="M30 60C46.5685 60 60 46.5685 60 30C60 13.4315 46.5685 0 30 0C13.4315 0 0 13.4315 0 30C0 46.5685 13.4315 60 30 60Z" fill="#FFCC4D"/>
<path d="M29.9993 35.0001C23.961 35.0001 19.9543 34.2968 14.9993 33.3335C13.8677 33.1151 11.666 33.3335 11.666 36.6668C11.666 43.3335 19.3243 51.6668 29.9993 51.6668C40.6727 51.6668 48.3327 43.3335 48.3327 36.6668C48.3327 33.3335 46.131 33.1135 44.9993 33.3335C40.0443 34.2968 36.0377 35.0001 29.9993 35.0001Z" fill="#664500"/>
<path d="M15 36.6665C15 36.6665 20 38.3332 30 38.3332C40 38.3332 45 36.6665 45 36.6665C45 36.6665 41.6667 43.3332 30 43.3332C18.3333 43.3332 15 36.6665 15 36.6665Z" fill="white"/>
<path d="M19.9987 28.3333C22.2999 28.3333 24.1654 25.7216 24.1654 22.5C24.1654 19.2783 22.2999 16.6666 19.9987 16.6666C17.6975 16.6666 15.832 19.2783 15.832 22.5C15.832 25.7216 17.6975 28.3333 19.9987 28.3333Z" fill="#664500"/>
<path d="M40.0026 28.3333C42.3038 28.3333 44.1693 25.7216 44.1693 22.5C44.1693 19.2783 42.3038 16.6666 40.0026 16.6666C37.7014 16.6666 35.8359 19.2783 35.8359 22.5C35.8359 25.7216 37.7014 28.3333 40.0026 28.3333Z" fill="#664500"/>
</svg>
