<svg width="70" height="70" viewBox="0 0 70 70" fill="none" xmlns="http://www.w3.org/2000/svg">
<rect width="70" height="70" rx="35" fill="#FBFBFB"/>
<path d="M57.333 51L51.2221 38.6093H17.9901L12 51H21.9748L25.0906 44.1138H44.2554L47.3608 51H57.333Z" fill="#2D3274"/>
<path d="M47.7993 33.0448C47.4187 32.3702 47.0302 31.708 46.6391 31.0659C41.7147 23.2951 35.3702 19.2699 27.5714 19L23.844 26.9581C24.6131 26.9706 25.4216 26.9931 26.3036 27.0406C28.6004 27.2255 30.6794 27.7377 32.5352 28.5647C34.2834 29.3443 35.9214 30.2288 37.3993 31.1933C38.8929 32.1578 41.0558 32.7874 43.8908 33.0423H47.7993V33.0448Z" fill="#FFAF42"/>
</svg>
