<svg width="16" height="16" viewBox="0 0 16 16" fill="none" xmlns="http://www.w3.org/2000/svg">
<g opacity="0.7">
<path d="M14.952 2.78196L10.3 1.48071L5.63438 2.79496L1.29559 1.56415C1.20262 1.53777 1.1048 1.53331 1.00981 1.55112C0.914825 1.56894 0.825263 1.60853 0.748163 1.6668C0.671063 1.72507 0.608526 1.80043 0.565467 1.88694C0.522407 1.97346 0.499998 2.06879 0.5 2.16543V12.8092C0.500473 12.9723 0.553896 13.1308 0.652234 13.2609C0.750571 13.3911 0.888504 13.4857 1.04528 13.5307L5.63331 14.8323L10.301 13.5175L14.7067 14.7498C14.7996 14.7758 14.8972 14.7799 14.992 14.7619C15.0867 14.7438 15.176 14.7041 15.2528 14.6458C15.3297 14.5875 15.392 14.5122 15.4348 14.4258C15.4777 14.3394 15.5 14.2442 15.5 14.1478V3.50424C15.4996 3.34065 15.4459 3.18165 15.347 3.05132C15.2481 2.92099 15.1095 2.82643 14.952 2.78196V2.78196ZM5.09375 13.6396L1.5 12.6201V2.66159L5.09375 3.68109V13.6396ZM9.80047 12.6194L6.09375 13.6635V3.70446L9.80047 2.66034V12.6194ZM14.5 13.6535L10.8005 12.6188V2.65906L14.5 3.69378V13.6535Z" fill="#FBFBFB"/>
</g>
</svg>
