<svg width="24" height="24" viewBox="0 0 24 24" fill="none" xmlns="http://www.w3.org/2000/svg">
<path d="M20.5714 10.1299C20.5714 16.6753 12 22.2857 12 22.2857C12 22.2857 3.42859 16.6753 3.42859 10.1299C3.42859 7.89793 4.33165 5.75739 5.9391 4.17916C7.54656 2.60093 9.72673 1.71429 12 1.71429C14.2733 1.71429 16.4535 2.60093 18.0609 4.17916C19.6684 5.75739 20.5714 7.89793 20.5714 10.1299Z" stroke="#2D3274" stroke-width="2" stroke-linecap="round" stroke-linejoin="round"/>
<path d="M12 12.9999C13.6569 12.9999 15 11.6567 15 9.99988C15 8.34302 13.6569 6.99988 12 6.99988C10.3431 6.99988 9 8.34302 9 9.99988C9 11.6567 10.3431 12.9999 12 12.9999Z" stroke="#2D3274" stroke-width="2" stroke-linecap="round" stroke-linejoin="round"/>
</svg>
