<svg width="16" height="16" viewBox="0 0 16 16" fill="none" xmlns="http://www.w3.org/2000/svg">
<path d="M13.7143 6.75321C13.7143 11.1168 8.00005 14.8571 8.00005 14.8571C8.00005 14.8571 2.28577 11.1168 2.28577 6.75321C2.28577 5.26524 2.88781 3.83822 3.95944 2.78607C5.03108 1.73392 6.48453 1.14282 8.00005 1.14282C9.51558 1.14282 10.969 1.73392 12.0407 2.78607C13.1123 3.83822 13.7143 5.26524 13.7143 6.75321Z" stroke="#1C62E0" stroke-linecap="round" stroke-linejoin="round"/>
<path d="M8 8.66651C9.10457 8.66651 10 7.77107 10 6.6665C10 5.56193 9.10457 4.6665 8 4.6665C6.89543 4.6665 6 5.56193 6 6.6665C6 7.77107 6.89543 8.66651 8 8.66651Z" stroke="#1C62E0" stroke-linecap="round" stroke-linejoin="round"/>
</svg>
