<svg width="44" height="44" viewBox="0 0 44 44" fill="none" xmlns="http://www.w3.org/2000/svg">
<path d="M37.5268 18.6838C37.5268 30.411 22.1696 40.463 22.1696 40.463C22.1696 40.463 6.8125 30.411 6.8125 18.6838C6.8125 14.6848 8.43048 10.8497 11.3105 8.02206C14.1905 5.1944 18.0967 3.60583 22.1696 3.60583C26.2426 3.60583 30.1488 5.1944 33.0288 8.02206C35.9088 10.8497 37.5268 14.6848 37.5268 18.6838Z" fill="#2D3274"/>
<path d="M21.0742 8.63299C21.3941 7.789 22.6051 7.789 22.9261 8.63299L24.996 14.3669C25.0682 14.5537 25.1954 14.7142 25.3607 14.8272C25.526 14.9402 25.7217 15.0004 25.9219 14.9999H31.0087C31.9487 14.9999 32.3587 16.1699 31.6197 16.7429L27.9999 19.9998C27.8377 20.1245 27.7192 20.2973 27.6614 20.4935C27.6035 20.6896 27.6093 20.8991 27.6779 21.0918L28.9998 26.6947C29.3218 27.5947 28.2798 28.3677 27.4919 27.8137L22.5751 24.6937C22.4067 24.5754 22.2059 24.5119 22.0001 24.5119C21.7943 24.5119 21.5935 24.5754 21.4251 24.6937L16.5084 27.8137C15.7214 28.3677 14.6784 27.5937 15.0004 26.6947L16.3224 21.0918C16.3909 20.8991 16.3967 20.6896 16.3389 20.4935C16.281 20.2973 16.1625 20.1245 16.0004 19.9998L12.3805 16.7429C11.6406 16.1699 12.0526 14.9999 12.9905 14.9999H18.0773C18.2776 15.0006 18.4733 14.9404 18.6387 14.8274C18.804 14.7143 18.9312 14.5538 19.0033 14.3669L21.0732 8.63299H21.0742Z" fill="#FFAF42"/>
</svg>
