<svg width="20" height="20" viewBox="0 0 20 20" fill="none" xmlns="http://www.w3.org/2000/svg">
<path d="M17.1426 8.44158C17.1426 13.8961 9.99979 18.5714 9.99979 18.5714C9.99979 18.5714 2.85693 13.8961 2.85693 8.44158C2.85693 6.58162 3.60948 4.79784 4.94903 3.48265C6.28857 2.16745 8.10539 1.42859 9.99979 1.42859C11.8942 1.42859 13.711 2.16745 15.0506 3.48265C16.3901 4.79784 17.1426 6.58162 17.1426 8.44158Z" stroke="#212529" stroke-opacity="0.3" stroke-width="2" stroke-linecap="round" stroke-linejoin="round"/>
<path d="M10 10.8332C11.3807 10.8332 12.5 9.7139 12.5 8.33319C12.5 6.95248 11.3807 5.83319 10 5.83319C8.61929 5.83319 7.5 6.95248 7.5 8.33319C7.5 9.7139 8.61929 10.8332 10 10.8332Z" stroke="#212529" stroke-opacity="0.3" stroke-width="2" stroke-linecap="round" stroke-linejoin="round"/>
</svg>
