<svg width="33" height="32" viewBox="0 0 33 32" fill="none" xmlns="http://www.w3.org/2000/svg">
<path d="M7.45439 26.1333C6.45439 25.1333 5.67128 23.9777 5.10506 22.6666C4.53795 21.3555 4.25439 20 4.25439 18.6C4.25439 17.2 4.52106 15.8164 5.05439 14.4493C5.58773 13.0831 6.45439 11.8 7.65439 10.6C8.43217 9.82218 9.39351 9.15551 10.5384 8.59996C11.6824 8.0444 13.0375 7.60529 14.6037 7.28262C16.1708 6.96085 17.9602 6.76662 19.9717 6.69996C21.9824 6.63329 24.2322 6.71107 26.7211 6.93329C26.8988 9.28885 26.9544 11.4555 26.8877 13.4333C26.8211 15.4111 26.6375 17.1942 26.3371 18.7826C26.0375 20.372 25.6157 21.7608 25.0717 22.9493C24.5268 24.1386 23.8544 25.1333 23.0544 25.9333C21.8766 27.1111 20.6268 27.972 19.3051 28.516C17.9824 29.0608 16.6322 29.3333 15.2544 29.3333C13.8099 29.3333 12.3988 29.0502 11.0211 28.484C9.64328 27.9168 8.45439 27.1333 7.45439 26.1333ZM11.1877 26.6C11.8322 26.9777 12.4935 27.2497 13.1717 27.416C13.8491 27.5831 14.5433 27.6666 15.2544 27.6666C16.2766 27.6666 17.2877 27.4613 18.2877 27.0506C19.2877 26.6391 21.2433 24.9777 22.1544 24.0666C22.5544 23.6666 22.9597 23.1057 23.3704 22.384C23.782 21.6613 24.138 20.7164 24.4384 19.5493C24.738 18.3831 24.9655 16.9724 25.1211 15.3173C25.2766 13.6613 25.1828 10.9555 25.0717 8.66662C23.9828 8.62218 21.8713 8.33862 20.5051 8.34929C19.138 8.36085 17.7766 8.46662 16.4211 8.66662C15.0655 8.86662 13.7766 9.18885 12.5544 9.63329C11.3322 10.0777 9.33217 11.6888 8.55439 12.4666C7.55439 13.4666 6.86551 14.4555 6.48773 15.4333C6.10995 16.4111 5.92106 17.3555 5.92106 18.2666C5.92106 19.5777 6.17084 20.7275 6.67039 21.716C7.17084 22.7053 8.60995 24.4 8.98773 24.8C9.92106 23.0222 11.1544 20.3164 12.6877 18.6826C14.2211 17.0497 16.01 15.7111 18.0544 14.6666C16.4544 16.0666 15.0602 17.6497 13.8717 19.416C12.6824 21.1831 11.7877 24.2444 11.1877 26.6Z" fill="#2D3274"/>
</svg>
