<svg width="47" height="36" viewBox="0 0 47 36" fill="none" xmlns="http://www.w3.org/2000/svg">
<g clip-path="url(#clip0_686_7298)">
<path d="M17.811 24H28.311M13.311 30V36H6.31099V30H2.31099C1.64433 26.1667 1.61099 18.1 6.81099 16.5C6.97765 12.3333 8.51096 3.8 13.311 3H32.311C34.1444 3.33333 38.011 6.5 38.811 16.5C41.1444 18.6667 45.111 24.4 42.311 30H38.811V36H33.311V30H13.311ZM11.811 16.5C12.4777 13.6667 14.111 8 15.311 8C16.511 8 26.1444 8 30.811 8C31.811 9.5 33.911 13.3 34.311 16.5H11.811Z" stroke="#2D3274" stroke-width="2"/>
<circle cx="12.5" cy="23.5" r="1.5" fill="#2D3274"/>
<circle cx="33.5" cy="23.5" r="1.5" fill="#2D3274"/>
</g>
<defs>
<clipPath id="clip0_686_7298">
<rect width="47" height="36" fill="white"/>
</clipPath>
</defs>
</svg>
