<svg width="33" height="32" viewBox="0 0 33 32" fill="none" xmlns="http://www.w3.org/2000/svg">
<path d="M17.3857 14.4C16.7457 14.24 16.1057 13.92 15.6257 13.44C15.1457 13.28 14.9857 12.8 14.9857 12.48C14.9857 12.16 15.1457 11.68 15.4657 11.52C15.9457 11.2 16.4257 10.88 16.9057 11.04C17.8657 11.04 18.6657 11.52 19.1457 12.16L20.5857 10.24C20.1057 9.75995 19.6257 9.43995 19.1457 9.11995C18.6657 8.79995 18.0257 8.63995 17.3857 8.63995V6.39995H15.4657V8.63995C14.6657 8.79995 13.8657 9.27995 13.2257 9.91995C12.5857 10.72 12.1057 11.68 12.2657 12.64C12.2657 13.6 12.5857 14.56 13.2257 15.2C14.0257 16 15.1457 16.48 16.1057 16.96C16.5857 17.12 17.2257 17.44 17.7057 17.76C18.0257 18.08 18.1857 18.56 18.1857 19.04C18.1857 19.52 18.0257 20 17.7057 20.48C17.2257 20.96 16.5857 21.12 16.1057 21.12C15.4657 21.12 14.6657 20.96 14.1857 20.48C13.7057 20.16 13.2257 19.68 12.9057 19.2L11.3057 20.96C11.7857 21.6 12.2657 22.08 12.9057 22.56C13.7057 23.04 14.6657 23.52 15.6257 23.52V25.6H17.3857V23.2C18.3457 23.04 19.1457 22.56 19.7857 21.92C20.5857 21.12 21.0657 19.84 21.0657 18.72C21.0657 17.76 20.7457 16.64 19.9457 16C19.1457 15.2 18.3457 14.72 17.3857 14.4V14.4ZM16.4257 3.19995C9.38573 3.19995 3.62573 8.95995 3.62573 16C3.62573 23.04 9.38573 28.8 16.4257 28.8C23.4657 28.8 29.2257 23.04 29.2257 16C29.2257 8.95995 23.4657 3.19995 16.4257 3.19995ZM16.4257 27.04C10.3457 27.04 5.38573 22.08 5.38573 16C5.38573 9.91995 10.3457 4.95995 16.4257 4.95995C22.5057 4.95995 27.4657 9.91995 27.4657 16C27.4657 22.08 22.5057 27.04 16.4257 27.04V27.04Z" fill="#2D3274"/>
</svg>
