<svg width="30" height="31" viewBox="0 0 30 31" fill="none" xmlns="http://www.w3.org/2000/svg">
<g clip-path="url(#clip0_686_7238)">
<path d="M15 27.5762C16.6418 27.5783 18.2679 27.2559 19.7848 26.6276C21.3016 25.9993 22.6793 25.0774 23.8388 23.9149C25.0012 22.7555 25.9231 21.3778 26.5515 19.8609C27.1798 18.3441 27.5021 16.718 27.5 15.0762C27.5021 13.4344 27.1797 11.8083 26.5514 10.2914C25.9231 8.7746 25.0012 7.39687 23.8388 6.23743C22.6793 5.07495 21.3016 4.15306 19.7848 3.52474C18.2679 2.89642 16.6418 2.57406 15 2.57618C13.3582 2.57409 11.7321 2.89646 10.2153 3.52478C8.69843 4.1531 7.3207 5.07498 6.16126 6.23743C4.99881 7.39687 4.07693 8.7746 3.44861 10.2914C2.82029 11.8083 2.49792 13.4344 2.50001 15.0762C2.49788 16.718 2.82024 18.3441 3.44856 19.8609C4.07688 21.3778 4.99878 22.7555 6.16126 23.9149C7.3207 25.0774 8.69843 25.9993 10.2153 26.6276C11.7321 27.2559 13.3582 27.5783 15 27.5762Z" fill="#FFAF42" stroke="#FFAF42" stroke-width="4" stroke-linejoin="round"/>
<path fill-rule="evenodd" clip-rule="evenodd" d="M15 23.2012C15.4144 23.2012 15.8118 23.0366 16.1049 22.7435C16.3979 22.4505 16.5625 22.0531 16.5625 21.6387C16.5625 21.2243 16.3979 20.8268 16.1049 20.5338C15.8118 20.2408 15.4144 20.0762 15 20.0762C14.5856 20.0762 14.1882 20.2408 13.8951 20.5338C13.6021 20.8268 13.4375 21.2243 13.4375 21.6387C13.4375 22.0531 13.6021 22.4505 13.8951 22.7435C14.1882 23.0366 14.5856 23.2012 15 23.2012Z" fill="#FBFBFB"/>
<path d="M15 7.57617V17.5762" stroke="#FBFBFB" stroke-width="4" stroke-linecap="round" stroke-linejoin="round"/>
</g>
<defs>
<clipPath id="clip0_686_7238">
<rect width="30" height="30" fill="white" transform="translate(0 0.0761719)"/>
</clipPath>
</defs>
</svg>
