<svg width="43" height="43" viewBox="0 0 43 43" fill="none" xmlns="http://www.w3.org/2000/svg">
<path d="M21.4997 39.9286L20.9521 40.7653C21.2847 40.983 21.7147 40.983 22.0474 40.7653L21.4997 39.9286ZM21.4997 39.9286C22.0474 40.7653 22.0477 40.7651 22.048 40.7649L22.049 40.7642L22.0519 40.7623L22.062 40.7556L22.0986 40.7313C22.1301 40.7103 22.1757 40.6797 22.2345 40.6397C22.3521 40.5598 22.5224 40.4423 22.738 40.2895C23.1691 39.9838 23.7816 39.536 24.5152 38.9625C25.9807 37.8167 27.9375 36.1627 29.8979 34.131C33.7755 30.1125 37.8569 24.4218 37.8569 18.1493C37.8569 13.8792 36.129 9.78779 33.0595 6.77407C29.9905 3.76096 25.832 2.07141 21.4997 2.07141C17.1674 2.07141 13.0089 3.76096 9.93999 6.77407C6.87046 9.78779 5.14258 13.8792 5.14258 18.1493C5.14258 24.4218 9.22398 30.1125 13.1015 34.131C15.0619 36.1627 17.0187 37.8167 18.4842 38.9625C19.2178 39.536 19.8303 39.9838 20.2614 40.2895C20.477 40.4423 20.6474 40.5598 20.7649 40.6397C20.8237 40.6797 20.8694 40.7103 20.9009 40.7313L20.9374 40.7556L20.9475 40.7623L20.9505 40.7642L20.9514 40.7649C20.9518 40.7651 20.9521 40.7653 21.4997 39.9286Z" fill="#2D3274" stroke="#FFAF42" stroke-width="2" stroke-linecap="round" stroke-linejoin="round"/>
<circle cx="21.5" cy="18.5" r="13.5" fill="white"/>
<path d="M33 24.9999L29.8996 18.4174H13.0391L10 24.9999H15.0608L16.6416 21.3416H26.365L27.9405 24.9999H33Z" fill="#2D3274"/>
<path d="M28.1627 15.4613C27.9696 15.1029 27.7725 14.7511 27.574 14.41C25.0756 10.2818 21.8567 8.14336 17.8999 8L16.0088 12.2278C16.399 12.2344 16.8092 12.2463 17.2567 12.2716C18.422 12.3698 19.4768 12.6419 20.4183 13.0813C21.3053 13.4954 22.1364 13.9653 22.8861 14.4777C23.6439 14.9901 24.7413 15.3246 26.1797 15.46H28.1627V15.4613Z" fill="#FFAF42"/>
</svg>
