<svg width="18" height="16" viewBox="0 0 18 16" fill="none" xmlns="http://www.w3.org/2000/svg">
<path d="M9.37303 11.1579V6.94732H7.26777V7.99996H8.3204V11.1579H6.74146V12.2105H10.952V11.1579H9.37303ZM8.84672 3.78943C8.69058 3.78943 8.53794 3.83573 8.40811 3.92248C8.27828 4.00923 8.17709 4.13253 8.11734 4.27678C8.05759 4.42104 8.04195 4.57978 8.07241 4.73292C8.10288 4.88606 8.17807 5.02673 8.28848 5.13714C8.39889 5.24755 8.53956 5.32274 8.6927 5.35321C8.84584 5.38367 9.00458 5.36803 9.14884 5.30828C9.29309 5.24853 9.41639 5.14734 9.50314 5.01751C9.58989 4.88768 9.63619 4.73505 9.63619 4.5789C9.63619 4.36952 9.55302 4.16872 9.40496 4.02066C9.25691 3.87261 9.0561 3.78943 8.84672 3.78943Z" fill="#212529" fill-opacity="0.2"/>
<path d="M8.84694 15.3684C7.3896 15.3684 5.96499 14.9363 4.75326 14.1266C3.54153 13.317 2.5971 12.1662 2.03941 10.8198C1.48171 9.47339 1.33579 7.99184 1.6201 6.56251C1.90441 5.13318 2.60619 3.82025 3.63668 2.78976C4.66717 1.75926 5.9801 1.05749 7.40943 0.773177C8.83877 0.488865 10.3203 0.634784 11.6667 1.19248C13.0131 1.75018 14.1639 2.69461 14.9736 3.90634C15.7832 5.11807 16.2154 6.54268 16.2154 8.00002C16.2154 9.95424 15.439 11.8284 14.0572 13.2103C12.6754 14.5921 10.8012 15.3684 8.84694 15.3684ZM8.84694 1.68423C7.5978 1.68423 6.3767 2.05464 5.33808 2.74863C4.29945 3.44262 3.48994 4.42901 3.01191 5.58307C2.53388 6.73713 2.40881 8.00702 2.65251 9.23217C2.8962 10.4573 3.49772 11.5827 4.381 12.466C5.26428 13.3492 6.38965 13.9508 7.61479 14.1944C8.83993 14.4381 10.1098 14.3131 11.2639 13.835C12.4179 13.357 13.4043 12.5475 14.0983 11.5089C14.7923 10.4703 15.1627 9.24916 15.1627 8.00002C15.1627 6.32497 14.4973 4.71852 13.3129 3.53408C12.1284 2.34964 10.522 1.68423 8.84694 1.68423Z" fill="#212529" fill-opacity="0.2"/>
</svg>
