<svg width="22" height="22" viewBox="0 0 22 22" fill="none" xmlns="http://www.w3.org/2000/svg">
<path d="M21.0002 11C21.0002 5.477 16.5232 1 11.0002 1C5.47718 1 1.00018 5.477 1.00018 11C1.00018 16.523 5.47718 21 11.0002 21" stroke="#2D3274" stroke-width="1.5" stroke-linecap="round" stroke-linejoin="round"/>
<path d="M12.0002 1.04999C12.0002 1.04999 15.0002 4.99999 15.0002 11M10.0002 20.95C10.0002 20.95 7.00019 17 7.00019 11C7.00019 4.99999 10.0002 1.04999 10.0002 1.04999M1.63019 14.5H11.0002M1.63019 7.49999H20.3702" stroke="#2D3274" stroke-width="1.5" stroke-linecap="round" stroke-linejoin="round"/>
<path d="M20.8792 16.917C21.3732 17.221 21.3422 17.96 20.8342 18.018L18.2672 18.309L17.1162 20.621C16.8882 21.08 16.1832 20.855 16.0662 20.287L14.8112 14.171C14.7122 13.691 15.1442 13.389 15.5612 13.646L20.8792 16.917V16.917Z" stroke="#2D3274" stroke-width="1.5"/>
</svg>
