<svg width="74" height="70" viewBox="0 0 74 70" fill="none" xmlns="http://www.w3.org/2000/svg">
<circle cx="19.3833" cy="50.9756" r="2" stroke="#2D3274" stroke-opacity="0.8" stroke-width="2"/>
<circle cx="19.3833" cy="50.9756" r="6" stroke="#2D3274" stroke-opacity="0.8" stroke-width="2"/>
<circle cx="53.3833" cy="50.9756" r="2" stroke="#2D3274" stroke-opacity="0.8" stroke-width="2"/>
<circle cx="53.3833" cy="50.9756" r="6" stroke="#2D3274" stroke-opacity="0.8" stroke-width="2"/>
<path d="M12.8834 50.9755H1.88344C1.21678 49.1422 0.283443 45.3755 1.88344 44.9755C3.48344 44.5755 4.5501 44.4755 4.88342 44.4755V39.4755H2.06362L2.38342 44.4755C2.05009 41.3088 1.68342 34.9755 2.88342 34.9755C4.08342 34.9755 8.71676 34.3088 10.8834 33.9755C13.6633 31.4736 18.4194 28.624 24.3834 27.3117M59.3834 50.9755H70.8834C71.7855 49.1019 72.1088 47.4421 71.9869 45.9755M53.3834 33.9755L58.8834 24.9755C59.2168 23.8088 60.7834 21.9755 64.3834 23.9755L59.3834 33.2063M57.8834 35.9755L59.3834 33.2063M59.3834 33.2063L60.8834 34.4755C60.8834 31.4755 64.8834 28.3251 66.8834 33.9755C68.3834 33.9755 71.0834 34.8755 69.8834 38.4755C70.8834 39.344 72.4834 41.4204 70.8834 42.7782M70.8834 42.7782C71.4965 43.7241 71.888 44.7862 71.9869 45.9755M70.8834 42.7782C69.7882 41.0883 67.986 39.7695 65.8834 38.7598M71.9869 45.9755C67.9179 45.165 61.0007 42.5873 65.8834 38.7598M65.8834 38.7598C62.2482 37.0142 57.7148 36.1928 54.3834 35.9755C51.3358 33.3817 48.3082 31.4187 45.346 29.9756M30.8834 41.9755H34.3834M24.3834 27.3117C23.5501 25.533 22.8834 21.7755 26.8834 20.9755C26.5501 18.9755 27.2834 15.4755 32.8834 17.4755C34.0501 14.4755 37.2834 10.2755 40.8834 17.4755C42.7168 17.6422 45.9834 18.9756 44.3834 22.9756C45.8585 24.4756 48.1161 27.9756 45.346 29.9756M24.3834 27.3117C30.4037 25.987 37.6547 26.2286 45.346 29.9756M25.8834 50.9755H46.8834M31.8834 39.4755V31.4755C36.8834 31.8088 47.7834 33.8755 51.3834 39.4755H31.8834ZM14.8834 39.4755V35.9755C18.3834 34.3088 26.0834 31.4755 28.8834 31.4755V39.4755H14.8834Z" stroke="#2D3274" stroke-opacity="0.8" stroke-width="2"/>
</svg>
