<svg width="1163" height="178" viewBox="0 0 1163 178" fill="none" xmlns="http://www.w3.org/2000/svg">
<g opacity="0.2">
<path d="M1144.96 56.19C1144.3 53.0291 1143.27 50.2302 1141.95 47.7227C1139.19 42.6193 1135.01 38.6372 1129.28 35.7942C1123.94 33.0836 1116.91 31.1941 1108.12 30.0816C1100.55 29.0927 1090.65 28.6424 1078.48 28.6424C1078.15 28.6424 1074.45 28.6424 1067.34 28.6424C1055.62 28.6424 1046.04 29.1368 1038.63 30.0816C1029.93 31.1852 1022.85 33.0836 1017.55 35.7942C1011.86 38.6372 1007.63 42.6193 1004.92 47.7227C1002.16 52.9408 1000.76 59.6864 1000.76 67.9066V104.001C1000.76 112.186 1002.16 118.923 1004.92 124.15C1007.63 129.244 1011.86 133.226 1017.55 136.069C1022.85 138.745 1029.92 140.678 1038.63 141.782C1039.42 141.906 1040.2 141.95 1041.03 142.073C1042.84 142.241 1044.77 142.4 1046.78 142.568C1050.69 142.806 1055 143.018 1059.74 143.142C1059.81 143.142 1059.86 143.142 1059.94 143.142C1060.18 143.142 1060.47 143.142 1060.76 143.142C1061.01 143.142 1061.25 143.142 1061.46 143.177C1061.5 143.142 1061.54 143.142 1061.58 143.177V143.221C1062.12 143.221 1062.65 143.221 1063.23 143.221C1063.51 143.221 1063.77 143.221 1064.05 143.221C1064.96 143.221 1065.74 143.221 1066.52 143.221C1066.6 143.221 1066.72 143.221 1066.81 143.221C1067.13 143.221 1067.37 143.221 1067.63 143.221C1071.53 143.221 1073.96 143.221 1074.95 143.221H1101.34C1099.45 141.906 1095.71 138.824 1090.15 133.888C1082.38 127.593 1074.74 124.353 1067.21 124.22C1066.22 124.22 1065.16 124.22 1064.04 124.22V124.176C1063.51 124.158 1062.93 124.158 1062.4 124.158C1062.07 124.114 1061.78 124.114 1061.46 124.114C1061.25 124.114 1061.01 124.114 1060.76 124.114C1060.47 124.07 1060.19 124.07 1059.94 124.07C1059.85 124.07 1059.81 124.07 1059.74 124.07C1056.49 123.902 1053.65 123.655 1051.18 123.329C1049.57 123.09 1048.13 122.834 1046.78 122.507C1044.6 122.013 1042.67 121.351 1041.03 120.618C1040.65 120.415 1040.25 120.247 1039.88 120.044C1037 118.481 1034.91 116.336 1033.58 113.625C1032.28 110.95 1031.65 107.542 1031.65 103.348V68.0302C1031.65 63.8009 1032.27 60.3045 1033.58 57.6292C1034.9 54.9627 1037 52.7819 1039.88 51.2544C1042.67 49.7357 1046.46 48.6674 1051.18 48.0493C1055.33 47.4754 1060.72 47.1841 1067.34 47.1841C1074.45 47.1841 1078.15 47.1841 1078.48 47.1841C1085.51 47.1841 1091.18 47.4754 1095.54 48.0493C1100.31 48.6586 1104.09 49.7269 1106.89 51.2544C1109.28 52.4905 1111.12 54.1769 1112.44 56.19C1112.76 56.6845 1113.06 57.1348 1113.27 57.6292C1114.57 60.3045 1115.24 63.8009 1115.24 68.0302V93.8119C1115.16 95.5778 1114.91 97.2201 1114.5 98.7476C1112.48 105.864 1106.65 109.846 1096.91 110.552H1073.35C1085.56 118.313 1096.58 126.913 1106.32 136.202C1114.13 143.601 1121.36 148.413 1128.07 150.673C1132.6 152.439 1137.94 153.225 1144.1 152.898C1146.11 152.854 1148.13 152.695 1150.22 152.395C1151.87 152.112 1153.56 151.786 1155.28 151.415L1135.78 131.884C1136.29 131.469 1136.73 131.019 1137.19 130.604C1143.15 124.688 1146.15 115.806 1146.15 104.001V67.9066C1146.14 63.5979 1145.73 59.6864 1144.96 56.19Z" fill="#2D3274" fill-opacity="0.2"/>
<path d="M983.008 30.9909H952.502V140.881H983.008V30.9909Z" fill="#2D3274" fill-opacity="0.2"/>
<path d="M896.843 60.6754C888.172 60.6754 879.899 61.8674 872.041 64.2513C865.754 66.1849 860.042 68.7366 854.903 71.9858V27.8655H826.702V140.881H854.903V84.8414C858.806 82.378 863.291 80.4443 868.306 79.0052C874.319 77.3541 880.764 76.5418 887.801 76.5418C893.434 76.5418 897.549 77.407 900.171 79.1288C903.624 81.4332 905.389 85.5036 905.389 91.4281V140.89H933.59V85.9185C933.59 77.407 930.306 71.0322 923.808 66.7677C917.6 62.6885 908.639 60.6754 896.843 60.6754Z" fill="#2D3274" fill-opacity="0.2"/>
<path d="M761.294 60.6755C751.962 60.6755 744.598 60.9228 739.221 61.4525C732.06 62.1854 726.18 63.4656 721.668 65.3992C716.529 67.5801 712.662 70.7057 710.11 74.776C707.32 79.2172 705.908 84.8945 705.908 91.8785V111.374C705.908 118.314 707.312 124.044 710.11 128.432C712.697 132.467 716.529 135.628 721.668 137.809C726.189 139.751 731.946 141.102 739.018 141.8C744.36 142.338 751.556 142.621 760.597 142.621C769.762 142.621 777.364 142.259 783.421 141.553C790.484 140.776 796.241 139.425 800.77 137.482C805.662 135.39 809.361 132.547 811.781 128.891C812.611 127.655 813.308 126.34 813.838 124.9C805.282 120.83 796.691 116.848 788.1 112.981V113.387C788.1 119.064 785.919 122.887 781.602 124.865C777.946 126.543 771.289 127.364 761.665 127.364C751.105 127.364 743.989 126.428 740.325 124.494C738.153 123.338 736.59 121.775 735.601 119.726C734.621 117.669 734.126 114.994 734.126 111.709V91.437C734.126 88.1437 734.621 85.4772 735.601 83.5083C736.625 81.451 738.232 79.8441 740.413 78.6963C742.55 77.6279 745.463 76.8509 749.172 76.3477C752.5 75.9415 756.977 75.7296 762.575 75.7296C771.369 75.7296 777.54 76.4271 781.081 77.8663C784.365 79.1819 786.458 81.3627 787.323 84.4442C787.615 85.5125 787.782 86.7045 787.782 87.9759V88.8765C796.082 83.9409 804.514 79.2172 813.017 74.573C812.655 73.9107 812.284 73.2574 811.825 72.6393C811.657 72.4362 811.498 72.2243 811.33 72.0213C809.114 69.1429 805.865 66.9179 801.583 65.2315C797.265 63.5451 791.632 62.3531 784.727 61.6203C778.609 60.9669 770.786 60.6755 761.294 60.6755Z" fill="#2D3274" fill-opacity="0.2"/>
<path d="M690.579 106.191V94.1035C690.579 87.4373 689.511 81.8837 687.339 77.5749C685.149 73.2574 681.785 69.8051 677.176 67.2887C672.744 64.9048 666.864 63.1742 659.588 62.1147C652.887 61.1258 644.375 60.6755 633.939 60.6755C625.057 60.6755 617.737 61.0464 611.901 61.8233C604.996 62.7681 599.275 64.3309 594.834 66.5117C584.918 71.4032 579.992 80.3297 579.992 93.3177V109.811C579.992 122.799 585.13 131.761 595.452 136.741C600.052 138.913 605.941 140.519 613.005 141.42C619.009 142.206 626.443 142.612 635.369 142.612C654.282 142.612 668.003 140.89 676.603 137.35C679.808 135.999 682.483 134.392 684.655 132.458C685.723 131.469 686.677 130.401 687.489 129.297C682.024 126.463 676.558 123.611 671.093 120.742C668.868 119.585 666.652 118.481 664.436 117.281C664.259 119.303 663.561 120.945 662.343 122.34C661.222 123.488 659.791 124.477 657.981 125.174C653.999 126.737 647.165 127.523 637.506 127.523C626.858 127.523 619.424 126.498 615.15 124.362C610.506 122.057 608.201 117.943 608.201 111.983V106.191H690.579ZM608.193 92.8321V89.0884C608.193 83.5348 610.453 79.7116 615.053 77.6544C619.044 75.8444 626.116 74.9438 636.261 74.9438C646.212 74.9438 653.037 75.7649 656.692 77.4072C660.922 79.3408 663.067 83.0845 663.067 88.594V92.8321H608.193Z" fill="#2D3274" fill-opacity="0.2"/>
<path d="M587.136 48.7114V30.9909H465.688V48.7114H511.16V140.881H541.7V48.7114H587.136Z" fill="#2D3274" fill-opacity="0.2"/>
<path d="M455.127 65.3197C450.527 63.4302 444.638 62.1587 437.327 61.4171C431.897 60.9226 424.419 60.6842 414.918 60.6842C405.339 60.6842 397.816 60.9315 392.43 61.4171C385.11 62.1587 379.186 63.439 374.586 65.3197C369.368 67.5005 365.456 70.6261 362.869 74.6964C360.07 79.1288 358.675 84.8502 358.675 91.8784V111.374C358.675 118.402 360.07 124.159 362.869 128.556C365.456 132.67 369.368 135.743 374.586 137.932C379.186 139.866 385.102 141.137 392.43 141.835C397.816 142.329 405.339 142.612 414.918 142.612C424.454 142.612 431.941 142.329 437.327 141.835C444.647 141.137 450.527 139.857 455.127 137.932C460.31 135.751 464.213 132.67 466.8 128.556C469.634 124.159 471.038 118.402 471.038 111.374V91.8784C471.038 84.8502 469.634 79.1288 466.8 74.6964C464.213 70.6261 460.31 67.5005 455.127 65.3197ZM436.497 78.4313C438.722 79.5438 440.32 81.1066 441.309 83.1197C442.298 85.0886 442.793 87.7198 442.793 90.969V112.142C442.793 115.303 442.298 117.854 441.309 119.832C440.32 121.81 438.722 123.364 436.497 124.476C432.674 126.41 425.478 127.346 414.918 127.346C404.191 127.346 396.915 126.41 393.092 124.476C390.911 123.364 389.304 121.801 388.315 119.832C387.327 117.863 386.876 115.303 386.876 112.142V90.969C386.876 87.7198 387.327 85.0886 388.315 83.1197C389.304 81.0977 390.903 79.5438 393.092 78.4313C396.871 76.5418 404.147 75.597 414.918 75.597C425.567 75.597 432.763 76.5418 436.497 78.4313Z" fill="#2D3274" fill-opacity="0.2"/>
<path d="M346.463 77.0011V62.4061H316.452V44.0234H288.207V117.952C288.207 126.375 291.085 132.538 296.798 136.529C302.184 140.272 310.369 142.118 321.22 142.118C325.988 142.118 330.835 141.835 335.806 141.297C339.797 140.837 343.338 140.272 346.463 139.61V125.801C342.181 126.543 338.164 126.913 334.376 126.913C327.754 126.913 323.065 125.889 320.275 123.867C317.724 121.978 316.452 118.976 316.452 114.826V77.0011H346.463Z" fill="#2D3274" fill-opacity="0.2"/>
<path d="M192.657 62.3969H164.412V115.108C164.412 124.926 168.235 132.087 175.881 136.528C182.291 140.272 191.544 142.117 203.667 142.117C211.94 142.117 219.834 141.137 227.312 139.204C233.519 137.552 238.984 135.372 243.593 132.714L246.472 140.89H271.344V62.4057H243.099V119.064C239.894 121.2 236.23 122.896 232.124 124.079C227.436 125.474 222.341 126.136 216.832 126.136C207.905 126.136 201.742 125.068 198.29 122.843C194.511 120.538 192.657 116.221 192.657 109.978V62.3969Z" fill="#2D3274" fill-opacity="0.2"/>
<path d="M158.046 140.89L137.491 97.1054H25.7111L5.5625 140.89H39.1141L49.5945 116.557H114.058L124.503 140.89H158.046Z" fill="#2D3274" fill-opacity="0.2"/>
<path d="M125.978 77.4424C124.698 75.0584 123.391 72.7187 122.076 70.4495C105.512 42.9902 84.1714 28.7661 57.9393 27.8125L45.4016 55.934C47.9886 55.9782 50.7081 56.0576 53.6747 56.2254C61.4004 56.8788 68.3933 58.6888 74.6356 61.6113C80.516 64.3661 86.0255 67.4917 90.9965 70.8998C96.0204 74.3079 103.296 76.5329 112.831 77.4335H125.978V77.4424Z" fill="#2D3274" fill-opacity="0.2"/>
</g>
</svg>
