<svg width="44" height="44" viewBox="0 0 44 44" fill="none" xmlns="http://www.w3.org/2000/svg">
<path d="M37.4457 18.7526C37.4457 30.4799 22.0886 40.5318 22.0886 40.5318C22.0886 40.5318 6.73145 30.4799 6.73145 18.7526C6.73145 14.7537 8.34943 10.9186 11.2294 8.0909C14.1095 5.26324 18.0156 3.67468 22.0886 3.67468C26.1616 3.67468 30.0677 5.26324 32.9477 8.0909C35.8278 10.9186 37.4457 14.7537 37.4457 18.7526Z" fill="#2D3274" stroke="#FFAF42" stroke-width="2" stroke-linecap="round" stroke-linejoin="round"/>
<path d="M22.0889 23.8947C25.0574 23.8947 27.4639 21.4882 27.4639 18.5197C27.4639 15.5511 25.0574 13.1447 22.0889 13.1447C19.1203 13.1447 16.7139 15.5511 16.7139 18.5197C16.7139 21.4882 19.1203 23.8947 22.0889 23.8947Z" fill="#FFAF42" stroke="#FFAF42" stroke-width="2" stroke-linecap="round" stroke-linejoin="round"/>
</svg>
