<svg width="279" height="312" viewBox="0 0 279 312" fill="none" xmlns="http://www.w3.org/2000/svg">
<path d="M2 308L2 310H4H46.2715C55.6603 310 63.2715 302.389 63.2715 293V279C63.2715 269.611 55.6603 262 46.2715 262H4H2V264L2 308Z" fill="url(#paint0_linear_1575_8006)" stroke="white" stroke-width="4"/>
<path d="M2 243V245H4H103.271C112.66 245 120.271 237.389 120.271 228V214C120.271 204.611 112.66 197 103.271 197H4H2V199L2 243Z" fill="url(#paint1_linear_1575_8006)" stroke="white" stroke-width="4"/>
<path d="M2 48V50H4L260 50C269.389 50 277 42.3888 277 33V19C277 9.61116 269.389 2 260 2L4 2H2V4L2 48Z" fill="url(#paint2_linear_1575_8006)" stroke="white" stroke-width="4"/>
<path d="M2 113V115H4H120.11L221.221 115C230.61 115 238.221 107.389 238.221 98V84C238.221 74.6112 230.61 67 221.221 67L4 67H2V69L2 113Z" fill="url(#paint3_linear_1575_8006)" stroke="white" stroke-width="4"/>
<path d="M2 178V180H4H185.827C195.216 180 202.827 172.389 202.827 163V149C202.827 139.611 195.216 132 185.827 132H4H2V134L2 178Z" fill="url(#paint4_linear_1575_8006)" stroke="white" stroke-width="4"/>
<path d="M15.2558 285.621C15.5258 285.567 15.7838 285.528 16.0298 285.504C16.2818 285.48 16.5248 285.468 16.7588 285.468C17.4428 285.468 18.0458 285.573 18.5678 285.783C19.0958 285.987 19.5368 286.269 19.8908 286.629C20.2508 286.989 20.5208 287.412 20.7008 287.898C20.8808 288.384 20.9708 288.906 20.9708 289.464C20.9708 290.16 20.8478 290.796 20.6018 291.372C20.3558 291.942 20.0138 292.434 19.5758 292.848C19.1438 293.256 18.6248 293.574 18.0188 293.802C17.4188 294.03 16.7618 294.144 16.0478 294.144C15.6338 294.144 15.2378 294.099 14.8598 294.009C14.4818 293.925 14.1278 293.811 13.7978 293.667C13.4738 293.517 13.1708 293.346 12.8888 293.154C12.6068 292.962 12.3548 292.761 12.1328 292.551L12.8978 291.507C13.0598 291.285 13.2698 291.174 13.5278 291.174C13.6898 291.174 13.8488 291.222 14.0048 291.318C14.1608 291.414 14.3378 291.522 14.5358 291.642C14.7338 291.756 14.9648 291.861 15.2288 291.957C15.4928 292.053 15.8138 292.101 16.1918 292.101C16.5818 292.101 16.9208 292.038 17.2088 291.912C17.4968 291.78 17.7338 291.603 17.9198 291.381C18.1118 291.153 18.2528 290.886 18.3428 290.58C18.4388 290.268 18.4868 289.935 18.4868 289.581C18.4868 288.903 18.2918 288.381 17.9018 288.015C17.5178 287.643 16.9568 287.457 16.2188 287.457C15.6128 287.457 15.0038 287.571 14.3918 287.799L12.8528 287.367L13.9508 280.941H20.5028V281.985C20.5028 282.159 20.4758 282.318 20.4218 282.462C20.3738 282.6 20.2898 282.723 20.1698 282.831C20.0558 282.933 19.9058 283.014 19.7198 283.074C19.5398 283.128 19.3178 283.155 19.0538 283.155H15.6788L15.2558 285.621ZM23.4472 296.214C23.3812 296.16 23.3332 296.106 23.3032 296.052C23.2792 295.998 23.2672 295.932 23.2672 295.854C23.2672 295.8 23.2852 295.74 23.3212 295.674C23.3632 295.614 23.4112 295.557 23.4652 295.503C23.5312 295.431 23.6122 295.341 23.7082 295.233C23.8042 295.131 23.9002 295.014 23.9962 294.882C24.0922 294.756 24.1792 294.615 24.2572 294.459C24.3412 294.303 24.4042 294.138 24.4462 293.964C24.2482 293.958 24.0682 293.916 23.9062 293.838C23.7442 293.76 23.6062 293.658 23.4922 293.532C23.3782 293.406 23.2882 293.259 23.2222 293.091C23.1622 292.917 23.1322 292.731 23.1322 292.533C23.1322 292.353 23.1652 292.185 23.2312 292.029C23.2972 291.873 23.3902 291.738 23.5102 291.624C23.6362 291.51 23.7832 291.42 23.9512 291.354C24.1252 291.288 24.3172 291.255 24.5272 291.255C24.7732 291.255 24.9862 291.3 25.1662 291.39C25.3522 291.474 25.5052 291.588 25.6252 291.732C25.7452 291.876 25.8352 292.047 25.8952 292.245C25.9552 292.437 25.9852 292.641 25.9852 292.857C25.9852 293.151 25.9402 293.463 25.8502 293.793C25.7602 294.117 25.6252 294.444 25.4452 294.774C25.2652 295.104 25.0432 295.425 24.7792 295.737C24.5212 296.055 24.2212 296.343 23.8792 296.601L23.4472 296.214ZM28.1151 284.622C28.2111 283.986 28.3911 283.428 28.6551 282.948C28.9191 282.468 29.2491 282.069 29.6451 281.751C30.0411 281.433 30.4911 281.196 30.9951 281.04C31.5051 280.878 32.0541 280.797 32.6421 280.797C33.2661 280.797 33.8241 280.887 34.3161 281.067C34.8141 281.241 35.2341 281.481 35.5761 281.787C35.9181 282.093 36.1791 282.45 36.3591 282.858C36.5451 283.266 36.6381 283.704 36.6381 284.172C36.6381 284.586 36.5931 284.952 36.5031 285.27C36.4191 285.582 36.2901 285.855 36.1161 286.089C35.9481 286.323 35.7381 286.521 35.4861 286.683C35.2401 286.845 34.9551 286.98 34.6311 287.088C36.1311 287.58 36.8811 288.579 36.8811 290.085C36.8811 290.751 36.7581 291.339 36.5121 291.849C36.2661 292.353 35.9361 292.776 35.5221 293.118C35.1081 293.46 34.6251 293.718 34.0731 293.892C33.5271 294.06 32.9541 294.144 32.3541 294.144C31.7181 294.144 31.1571 294.072 30.6711 293.928C30.1851 293.784 29.7561 293.568 29.3841 293.28C29.0181 292.992 28.7031 292.632 28.4391 292.2C28.1751 291.762 27.9441 291.252 27.7461 290.67L28.8441 290.22C29.1321 290.1 29.3991 290.067 29.6451 290.121C29.8971 290.175 30.0771 290.307 30.1851 290.517C30.3051 290.745 30.4311 290.955 30.5631 291.147C30.7011 291.339 30.8541 291.507 31.0221 291.651C31.1901 291.789 31.3791 291.897 31.5891 291.975C31.8051 292.053 32.0511 292.092 32.3271 292.092C32.6751 292.092 32.9781 292.035 33.2361 291.921C33.4941 291.807 33.7101 291.66 33.8841 291.48C34.0581 291.294 34.1871 291.087 34.2711 290.859C34.3611 290.625 34.4061 290.394 34.4061 290.166C34.4061 289.866 34.3791 289.596 34.3251 289.356C34.2711 289.11 34.1451 288.903 33.9471 288.735C33.7551 288.561 33.4671 288.429 33.0831 288.339C32.7051 288.243 32.1891 288.195 31.5351 288.195V286.449C32.0811 286.449 32.5281 286.404 32.8761 286.314C33.2241 286.224 33.4971 286.098 33.6951 285.936C33.8931 285.774 34.0281 285.579 34.1001 285.351C34.1781 285.123 34.2171 284.874 34.2171 284.604C34.2171 284.034 34.0671 283.599 33.7671 283.299C33.4731 282.999 33.0531 282.849 32.5071 282.849C32.2671 282.849 32.0451 282.885 31.8411 282.957C31.6431 283.023 31.4631 283.116 31.3011 283.236C31.1451 283.356 31.0101 283.497 30.8961 283.659C30.7821 283.821 30.6981 283.998 30.6441 284.19C30.5301 284.49 30.3831 284.691 30.2031 284.793C30.0231 284.889 29.7621 284.91 29.4201 284.856L28.1151 284.622ZM45.0005 284.1C45.0005 284.586 44.9165 285.027 44.7485 285.423C44.5805 285.819 44.3525 286.161 44.0645 286.449C43.7825 286.731 43.4555 286.95 43.0835 287.106C42.7115 287.256 42.3245 287.331 41.9225 287.331C41.4785 287.331 41.0705 287.256 40.6985 287.106C40.3265 286.95 40.0025 286.731 39.7265 286.449C39.4565 286.161 39.2435 285.819 39.0875 285.423C38.9375 285.027 38.8625 284.586 38.8625 284.1C38.8625 283.596 38.9375 283.143 39.0875 282.741C39.2435 282.333 39.4565 281.988 39.7265 281.706C40.0025 281.418 40.3265 281.196 40.6985 281.04C41.0705 280.884 41.4785 280.806 41.9225 280.806C42.3665 280.806 42.7775 280.884 43.1555 281.04C43.5335 281.196 43.8575 281.418 44.1275 281.706C44.4035 281.988 44.6165 282.333 44.7665 282.741C44.9225 283.143 45.0005 283.596 45.0005 284.1ZM43.0925 284.1C43.0925 283.776 43.0625 283.506 43.0025 283.29C42.9425 283.068 42.8585 282.891 42.7505 282.759C42.6485 282.627 42.5255 282.534 42.3815 282.48C42.2375 282.42 42.0845 282.39 41.9225 282.39C41.7605 282.39 41.6075 282.42 41.4635 282.48C41.3255 282.534 41.2055 282.627 41.1035 282.759C41.0075 282.891 40.9295 283.068 40.8695 283.29C40.8155 283.506 40.7885 283.776 40.7885 284.1C40.7885 284.418 40.8155 284.682 40.8695 284.892C40.9295 285.102 41.0075 285.273 41.1035 285.405C41.2055 285.531 41.3255 285.621 41.4635 285.675C41.6075 285.729 41.7605 285.756 41.9225 285.756C42.0845 285.756 42.2375 285.729 42.3815 285.675C42.5255 285.621 42.6485 285.531 42.7505 285.405C42.8585 285.273 42.9425 285.102 43.0025 284.892C43.0625 284.682 43.0925 284.418 43.0925 284.1ZM49.2305 281.319C49.3145 281.223 49.4135 281.136 49.5275 281.058C49.6475 280.98 49.8125 280.941 50.0225 280.941H51.8315L42.0665 293.64C41.9825 293.742 41.8805 293.829 41.7605 293.901C41.6405 293.967 41.4935 294 41.3195 294H39.4745L49.2305 281.319ZM52.4345 290.931C52.4345 291.417 52.3505 291.858 52.1825 292.254C52.0145 292.65 51.7865 292.992 51.4985 293.28C51.2165 293.562 50.8895 293.781 50.5175 293.937C50.1455 294.087 49.7585 294.162 49.3565 294.162C48.9125 294.162 48.5045 294.087 48.1325 293.937C47.7605 293.781 47.4365 293.562 47.1605 293.28C46.8905 292.992 46.6775 292.65 46.5215 292.254C46.3715 291.858 46.2965 291.417 46.2965 290.931C46.2965 290.427 46.3715 289.974 46.5215 289.572C46.6775 289.164 46.8905 288.819 47.1605 288.537C47.4365 288.249 47.7605 288.03 48.1325 287.88C48.5045 287.724 48.9125 287.646 49.3565 287.646C49.8005 287.646 50.2115 287.724 50.5895 287.88C50.9675 288.03 51.2915 288.249 51.5615 288.537C51.8375 288.819 52.0505 289.164 52.2005 289.572C52.3565 289.974 52.4345 290.427 52.4345 290.931ZM50.5265 290.931C50.5265 290.607 50.4965 290.337 50.4365 290.121C50.3765 289.899 50.2925 289.722 50.1845 289.59C50.0825 289.458 49.9595 289.365 49.8155 289.311C49.6715 289.251 49.5185 289.221 49.3565 289.221C49.1945 289.221 49.0415 289.251 48.8975 289.311C48.7595 289.365 48.6395 289.458 48.5375 289.59C48.4415 289.722 48.3635 289.899 48.3035 290.121C48.2495 290.337 48.2225 290.607 48.2225 290.931C48.2225 291.249 48.2495 291.513 48.3035 291.723C48.3635 291.933 48.4415 292.104 48.5375 292.236C48.6395 292.362 48.7595 292.452 48.8975 292.506C49.0415 292.56 49.1945 292.587 49.3565 292.587C49.5185 292.587 49.6715 292.56 49.8155 292.506C49.9595 292.452 50.0825 292.362 50.1845 292.236C50.2925 292.104 50.3765 291.933 50.4365 291.723C50.4965 291.513 50.5265 291.249 50.5265 290.931Z" fill="white"/>
<path d="M59.7691 226.723C60.0391 226.723 60.2491 226.798 60.3991 226.948C60.5551 227.098 60.6331 227.296 60.6331 227.542V229H51.5791V228.19C51.5791 228.034 51.6121 227.866 51.6781 227.686C51.7441 227.5 51.8551 227.332 52.0111 227.182L55.8811 223.303C56.2111 222.973 56.5021 222.658 56.7541 222.358C57.0061 222.052 57.2161 221.755 57.3841 221.467C57.5521 221.173 57.6781 220.876 57.7621 220.576C57.8461 220.276 57.8881 219.961 57.8881 219.631C57.8881 219.049 57.7381 218.608 57.4381 218.308C57.1381 218.002 56.7151 217.849 56.1691 217.849C55.9291 217.849 55.7071 217.885 55.5031 217.957C55.3051 218.023 55.1251 218.116 54.9631 218.236C54.8071 218.356 54.6721 218.497 54.5581 218.659C54.4441 218.821 54.3601 218.998 54.3061 219.19C54.1981 219.49 54.0511 219.691 53.8651 219.793C53.6851 219.889 53.4271 219.91 53.0911 219.856L51.7771 219.622C51.8731 218.986 52.0531 218.428 52.3171 217.948C52.5811 217.468 52.9111 217.069 53.3071 216.751C53.7031 216.433 54.1561 216.196 54.6661 216.04C55.1761 215.878 55.7251 215.797 56.3131 215.797C56.9311 215.797 57.4921 215.89 57.9961 216.076C58.5061 216.256 58.9411 216.511 59.3011 216.841C59.6611 217.165 59.9401 217.558 60.1381 218.02C60.3361 218.482 60.4351 218.992 60.4351 219.55C60.4351 220.03 60.3661 220.474 60.2281 220.882C60.0901 221.29 59.9011 221.68 59.6611 222.052C59.4271 222.418 59.1541 222.775 58.8421 223.123C58.5301 223.471 58.2001 223.822 57.8521 224.176L55.0801 227.011C55.3861 226.921 55.6891 226.852 55.9891 226.804C56.2891 226.75 56.5711 226.723 56.8351 226.723H59.7691ZM62.8305 219.622C62.9265 218.986 63.1065 218.428 63.3705 217.948C63.6345 217.468 63.9645 217.069 64.3605 216.751C64.7565 216.433 65.2065 216.196 65.7105 216.04C66.2205 215.878 66.7695 215.797 67.3575 215.797C67.9815 215.797 68.5395 215.887 69.0315 216.067C69.5295 216.241 69.9495 216.481 70.2915 216.787C70.6335 217.093 70.8945 217.45 71.0745 217.858C71.2605 218.266 71.3535 218.704 71.3535 219.172C71.3535 219.586 71.3085 219.952 71.2185 220.27C71.1345 220.582 71.0055 220.855 70.8315 221.089C70.6635 221.323 70.4535 221.521 70.2015 221.683C69.9555 221.845 69.6705 221.98 69.3465 222.088C70.8465 222.58 71.5965 223.579 71.5965 225.085C71.5965 225.751 71.4735 226.339 71.2275 226.849C70.9815 227.353 70.6515 227.776 70.2375 228.118C69.8235 228.46 69.3405 228.718 68.7885 228.892C68.2425 229.06 67.6695 229.144 67.0695 229.144C66.4335 229.144 65.8725 229.072 65.3865 228.928C64.9005 228.784 64.4715 228.568 64.0995 228.28C63.7335 227.992 63.4185 227.632 63.1545 227.2C62.8905 226.762 62.6595 226.252 62.4615 225.67L63.5595 225.22C63.8475 225.1 64.1145 225.067 64.3605 225.121C64.6125 225.175 64.7925 225.307 64.9005 225.517C65.0205 225.745 65.1465 225.955 65.2785 226.147C65.4165 226.339 65.5695 226.507 65.7375 226.651C65.9055 226.789 66.0945 226.897 66.3045 226.975C66.5205 227.053 66.7665 227.092 67.0425 227.092C67.3905 227.092 67.6935 227.035 67.9515 226.921C68.2095 226.807 68.4255 226.66 68.5995 226.48C68.7735 226.294 68.9025 226.087 68.9865 225.859C69.0765 225.625 69.1215 225.394 69.1215 225.166C69.1215 224.866 69.0945 224.596 69.0405 224.356C68.9865 224.11 68.8605 223.903 68.6625 223.735C68.4705 223.561 68.1825 223.429 67.7985 223.339C67.4205 223.243 66.9045 223.195 66.2505 223.195V221.449C66.7965 221.449 67.2435 221.404 67.5915 221.314C67.9395 221.224 68.2125 221.098 68.4105 220.936C68.6085 220.774 68.7435 220.579 68.8155 220.351C68.8935 220.123 68.9325 219.874 68.9325 219.604C68.9325 219.034 68.7825 218.599 68.4825 218.299C68.1885 217.999 67.7685 217.849 67.2225 217.849C66.9825 217.849 66.7605 217.885 66.5565 217.957C66.3585 218.023 66.1785 218.116 66.0165 218.236C65.8605 218.356 65.7255 218.497 65.6115 218.659C65.4975 218.821 65.4135 218.998 65.3595 219.19C65.2455 219.49 65.0985 219.691 64.9185 219.793C64.7385 219.889 64.4775 219.91 64.1355 219.856L62.8305 219.622ZM73.9379 231.214C73.8719 231.16 73.8239 231.106 73.7939 231.052C73.7699 230.998 73.7579 230.932 73.7579 230.854C73.7579 230.8 73.7759 230.74 73.8119 230.674C73.8539 230.614 73.9019 230.557 73.9559 230.503C74.0219 230.431 74.1029 230.341 74.1989 230.233C74.2949 230.131 74.3909 230.014 74.4869 229.882C74.5829 229.756 74.6699 229.615 74.7479 229.459C74.8319 229.303 74.8949 229.138 74.9369 228.964C74.7389 228.958 74.5589 228.916 74.3969 228.838C74.2349 228.76 74.0969 228.658 73.9829 228.532C73.8689 228.406 73.7789 228.259 73.7129 228.091C73.6529 227.917 73.6229 227.731 73.6229 227.533C73.6229 227.353 73.6559 227.185 73.7219 227.029C73.7879 226.873 73.8809 226.738 74.0009 226.624C74.1269 226.51 74.2739 226.42 74.4419 226.354C74.6159 226.288 74.8079 226.255 75.0179 226.255C75.2639 226.255 75.4769 226.3 75.6569 226.39C75.8429 226.474 75.9959 226.588 76.1159 226.732C76.2359 226.876 76.3259 227.047 76.3859 227.245C76.4459 227.437 76.4759 227.641 76.4759 227.857C76.4759 228.151 76.4309 228.463 76.3409 228.793C76.2509 229.117 76.1159 229.444 75.9359 229.774C75.7559 230.104 75.5339 230.425 75.2699 230.737C75.0119 231.055 74.7119 231.343 74.3699 231.601L73.9379 231.214ZM82.5928 220.63L82.1968 221.107C82.4248 221.005 82.6708 220.927 82.9348 220.873C83.1988 220.819 83.4838 220.792 83.7898 220.792C84.2758 220.792 84.7498 220.873 85.2118 221.035C85.6738 221.197 86.0848 221.44 86.4448 221.764C86.8048 222.088 87.0928 222.496 87.3088 222.988C87.5308 223.474 87.6418 224.047 87.6418 224.707C87.6418 225.313 87.5278 225.886 87.2998 226.426C87.0778 226.966 86.7598 227.437 86.3458 227.839C85.9378 228.241 85.4458 228.559 84.8698 228.793C84.2998 229.027 83.6638 229.144 82.9618 229.144C82.2478 229.144 81.6088 229.033 81.0448 228.811C80.4808 228.583 80.0008 228.265 79.6048 227.857C79.2088 227.449 78.9058 226.963 78.6958 226.399C78.4858 225.829 78.3808 225.202 78.3808 224.518C78.3808 223.888 78.5038 223.249 78.7498 222.601C79.0018 221.953 79.3828 221.287 79.8928 220.603L82.9258 216.517C83.0458 216.361 83.2228 216.226 83.4568 216.112C83.6908 215.998 83.9578 215.941 84.2578 215.941H86.4628L82.5928 220.63ZM82.9168 227.146C83.2408 227.146 83.5408 227.089 83.8168 226.975C84.0928 226.861 84.3298 226.702 84.5278 226.498C84.7258 226.294 84.8818 226.057 84.9958 225.787C85.1098 225.511 85.1668 225.211 85.1668 224.887C85.1668 224.533 85.1128 224.215 85.0048 223.933C84.8968 223.651 84.7438 223.414 84.5458 223.222C84.3478 223.024 84.1108 222.874 83.8348 222.772C83.5588 222.67 83.2528 222.619 82.9168 222.619C82.5988 222.619 82.3078 222.676 82.0438 222.79C81.7798 222.898 81.5518 223.054 81.3598 223.258C81.1738 223.456 81.0268 223.693 80.9188 223.969C80.8168 224.245 80.7658 224.548 80.7658 224.878C80.7658 225.22 80.8108 225.532 80.9008 225.814C80.9908 226.09 81.1258 226.327 81.3058 226.525C81.4858 226.723 81.7078 226.876 81.9718 226.984C82.2418 227.092 82.5568 227.146 82.9168 227.146ZM95.4912 219.1C95.4912 219.586 95.4072 220.027 95.2392 220.423C95.0712 220.819 94.8432 221.161 94.5552 221.449C94.2732 221.731 93.9462 221.95 93.5742 222.106C93.2022 222.256 92.8152 222.331 92.4132 222.331C91.9692 222.331 91.5612 222.256 91.1892 222.106C90.8172 221.95 90.4932 221.731 90.2172 221.449C89.9472 221.161 89.7342 220.819 89.5782 220.423C89.4282 220.027 89.3532 219.586 89.3532 219.1C89.3532 218.596 89.4282 218.143 89.5782 217.741C89.7342 217.333 89.9472 216.988 90.2172 216.706C90.4932 216.418 90.8172 216.196 91.1892 216.04C91.5612 215.884 91.9692 215.806 92.4132 215.806C92.8572 215.806 93.2682 215.884 93.6462 216.04C94.0242 216.196 94.3482 216.418 94.6182 216.706C94.8942 216.988 95.1072 217.333 95.2572 217.741C95.4132 218.143 95.4912 218.596 95.4912 219.1ZM93.5832 219.1C93.5832 218.776 93.5532 218.506 93.4932 218.29C93.4332 218.068 93.3492 217.891 93.2412 217.759C93.1392 217.627 93.0162 217.534 92.8722 217.48C92.7282 217.42 92.5752 217.39 92.4132 217.39C92.2512 217.39 92.0982 217.42 91.9542 217.48C91.8162 217.534 91.6962 217.627 91.5942 217.759C91.4982 217.891 91.4202 218.068 91.3602 218.29C91.3062 218.506 91.2792 218.776 91.2792 219.1C91.2792 219.418 91.3062 219.682 91.3602 219.892C91.4202 220.102 91.4982 220.273 91.5942 220.405C91.6962 220.531 91.8162 220.621 91.9542 220.675C92.0982 220.729 92.2512 220.756 92.4132 220.756C92.5752 220.756 92.7282 220.729 92.8722 220.675C93.0162 220.621 93.1392 220.531 93.2412 220.405C93.3492 220.273 93.4332 220.102 93.4932 219.892C93.5532 219.682 93.5832 219.418 93.5832 219.1ZM99.7212 216.319C99.8052 216.223 99.9042 216.136 100.018 216.058C100.138 215.98 100.303 215.941 100.513 215.941H102.322L92.5572 228.64C92.4732 228.742 92.3712 228.829 92.2512 228.901C92.1312 228.967 91.9842 229 91.8102 229H89.9652L99.7212 216.319ZM102.925 225.931C102.925 226.417 102.841 226.858 102.673 227.254C102.505 227.65 102.277 227.992 101.989 228.28C101.707 228.562 101.38 228.781 101.008 228.937C100.636 229.087 100.249 229.162 99.8472 229.162C99.4032 229.162 98.9952 229.087 98.6232 228.937C98.2512 228.781 97.9272 228.562 97.6512 228.28C97.3812 227.992 97.1682 227.65 97.0122 227.254C96.8622 226.858 96.7872 226.417 96.7872 225.931C96.7872 225.427 96.8622 224.974 97.0122 224.572C97.1682 224.164 97.3812 223.819 97.6512 223.537C97.9272 223.249 98.2512 223.03 98.6232 222.88C98.9952 222.724 99.4032 222.646 99.8472 222.646C100.291 222.646 100.702 222.724 101.08 222.88C101.458 223.03 101.782 223.249 102.052 223.537C102.328 223.819 102.541 224.164 102.691 224.572C102.847 224.974 102.925 225.427 102.925 225.931ZM101.017 225.931C101.017 225.607 100.987 225.337 100.927 225.121C100.867 224.899 100.783 224.722 100.675 224.59C100.573 224.458 100.45 224.365 100.306 224.311C100.162 224.251 100.009 224.221 99.8472 224.221C99.6852 224.221 99.5322 224.251 99.3882 224.311C99.2502 224.365 99.1302 224.458 99.0282 224.59C98.9322 224.722 98.8542 224.899 98.7942 225.121C98.7402 225.337 98.7132 225.607 98.7132 225.931C98.7132 226.249 98.7402 226.513 98.7942 226.723C98.8542 226.933 98.9322 227.104 99.0282 227.236C99.1302 227.362 99.2502 227.452 99.3882 227.506C99.5322 227.56 99.6852 227.587 99.8472 227.587C100.009 227.587 100.162 227.56 100.306 227.506C100.45 227.452 100.573 227.362 100.675 227.236C100.783 227.104 100.867 226.933 100.927 226.723C100.987 226.513 101.017 226.249 101.017 225.931Z" fill="white"/>
<path d="M132.849 154.622C132.945 153.986 133.125 153.428 133.389 152.948C133.653 152.468 133.983 152.069 134.379 151.751C134.775 151.433 135.225 151.196 135.729 151.04C136.239 150.878 136.788 150.797 137.376 150.797C138 150.797 138.558 150.887 139.05 151.067C139.548 151.241 139.968 151.481 140.31 151.787C140.652 152.093 140.913 152.45 141.093 152.858C141.279 153.266 141.372 153.704 141.372 154.172C141.372 154.586 141.327 154.952 141.237 155.27C141.153 155.582 141.024 155.855 140.85 156.089C140.682 156.323 140.472 156.521 140.22 156.683C139.974 156.845 139.689 156.98 139.365 157.088C140.865 157.58 141.615 158.579 141.615 160.085C141.615 160.751 141.492 161.339 141.246 161.849C141 162.353 140.67 162.776 140.256 163.118C139.842 163.46 139.359 163.718 138.807 163.892C138.261 164.06 137.688 164.144 137.088 164.144C136.452 164.144 135.891 164.072 135.405 163.928C134.919 163.784 134.49 163.568 134.118 163.28C133.752 162.992 133.437 162.632 133.173 162.2C132.909 161.762 132.678 161.252 132.48 160.67L133.578 160.22C133.866 160.1 134.133 160.067 134.379 160.121C134.631 160.175 134.811 160.307 134.919 160.517C135.039 160.745 135.165 160.955 135.297 161.147C135.435 161.339 135.588 161.507 135.756 161.651C135.924 161.789 136.113 161.897 136.323 161.975C136.539 162.053 136.785 162.092 137.061 162.092C137.409 162.092 137.712 162.035 137.97 161.921C138.228 161.807 138.444 161.66 138.618 161.48C138.792 161.294 138.921 161.087 139.005 160.859C139.095 160.625 139.14 160.394 139.14 160.166C139.14 159.866 139.113 159.596 139.059 159.356C139.005 159.11 138.879 158.903 138.681 158.735C138.489 158.561 138.201 158.429 137.817 158.339C137.439 158.243 136.923 158.195 136.269 158.195V156.449C136.815 156.449 137.262 156.404 137.61 156.314C137.958 156.224 138.231 156.098 138.429 155.936C138.627 155.774 138.762 155.579 138.834 155.351C138.912 155.123 138.951 154.874 138.951 154.604C138.951 154.034 138.801 153.599 138.501 153.299C138.207 152.999 137.787 152.849 137.241 152.849C137.001 152.849 136.779 152.885 136.575 152.957C136.377 153.023 136.197 153.116 136.035 153.236C135.879 153.356 135.744 153.497 135.63 153.659C135.516 153.821 135.432 153.998 135.378 154.19C135.264 154.49 135.117 154.691 134.937 154.793C134.757 154.889 134.496 154.91 134.154 154.856L132.849 154.622ZM149.275 159.014V155.126C149.275 154.922 149.281 154.706 149.293 154.478C149.311 154.244 149.335 154.001 149.365 153.749L145.585 159.014H149.275ZM152.947 159.014V160.418C152.947 160.55 152.902 160.664 152.812 160.76C152.728 160.85 152.608 160.895 152.452 160.895H151.435V164H149.275V160.895H143.884C143.728 160.895 143.584 160.847 143.452 160.751C143.326 160.655 143.248 160.529 143.218 160.373L142.957 159.131L149.077 150.932H151.435V159.014H152.947ZM154.938 166.214C154.872 166.16 154.824 166.106 154.794 166.052C154.77 165.998 154.758 165.932 154.758 165.854C154.758 165.8 154.776 165.74 154.812 165.674C154.854 165.614 154.902 165.557 154.956 165.503C155.022 165.431 155.103 165.341 155.199 165.233C155.295 165.131 155.391 165.014 155.487 164.882C155.583 164.756 155.67 164.615 155.748 164.459C155.832 164.303 155.895 164.138 155.937 163.964C155.739 163.958 155.559 163.916 155.397 163.838C155.235 163.76 155.097 163.658 154.983 163.532C154.869 163.406 154.779 163.259 154.713 163.091C154.653 162.917 154.623 162.731 154.623 162.533C154.623 162.353 154.656 162.185 154.722 162.029C154.788 161.873 154.881 161.738 155.001 161.624C155.127 161.51 155.274 161.42 155.442 161.354C155.616 161.288 155.808 161.255 156.018 161.255C156.264 161.255 156.477 161.3 156.657 161.39C156.843 161.474 156.996 161.588 157.116 161.732C157.236 161.876 157.326 162.047 157.386 162.245C157.446 162.437 157.476 162.641 157.476 162.857C157.476 163.151 157.431 163.463 157.341 163.793C157.251 164.117 157.116 164.444 156.936 164.774C156.756 165.104 156.534 165.425 156.27 165.737C156.012 166.055 155.712 166.343 155.37 166.601L154.938 166.214ZM161.865 154.892C161.865 155.582 162.033 156.107 162.369 156.467C162.711 156.827 163.209 157.007 163.863 157.007C164.193 157.007 164.487 156.956 164.745 156.854C165.009 156.746 165.228 156.599 165.402 156.413C165.576 156.227 165.708 156.005 165.798 155.747C165.894 155.489 165.942 155.207 165.942 154.901C165.942 154.559 165.891 154.259 165.789 154.001C165.687 153.737 165.543 153.515 165.357 153.335C165.177 153.155 164.961 153.02 164.709 152.93C164.457 152.834 164.178 152.786 163.872 152.786C163.56 152.786 163.281 152.84 163.035 152.948C162.789 153.05 162.579 153.197 162.405 153.389C162.231 153.575 162.096 153.797 162 154.055C161.91 154.313 161.865 154.592 161.865 154.892ZM164.484 158.987C164.574 158.873 164.661 158.762 164.745 158.654C164.829 158.546 164.913 158.438 164.997 158.33C164.709 158.498 164.394 158.627 164.052 158.717C163.716 158.801 163.359 158.843 162.981 158.843C162.543 158.843 162.108 158.765 161.676 158.609C161.25 158.453 160.866 158.219 160.524 157.907C160.182 157.595 159.906 157.205 159.696 156.737C159.486 156.263 159.381 155.708 159.381 155.072C159.381 154.49 159.489 153.941 159.705 153.425C159.921 152.903 160.227 152.45 160.623 152.066C161.019 151.676 161.493 151.367 162.045 151.139C162.603 150.911 163.221 150.797 163.899 150.797C164.583 150.797 165.198 150.905 165.744 151.121C166.29 151.331 166.752 151.628 167.13 152.012C167.508 152.396 167.799 152.855 168.003 153.389C168.207 153.917 168.309 154.499 168.309 155.135C168.309 155.549 168.276 155.942 168.21 156.314C168.144 156.686 168.048 157.04 167.922 157.376C167.796 157.712 167.643 158.039 167.463 158.357C167.289 158.675 167.091 158.987 166.869 159.293L163.962 163.442C163.842 163.598 163.668 163.73 163.44 163.838C163.218 163.946 162.963 164 162.675 164H160.389L164.484 158.987ZM176.491 154.1C176.491 154.586 176.407 155.027 176.239 155.423C176.071 155.819 175.843 156.161 175.555 156.449C175.273 156.731 174.946 156.95 174.574 157.106C174.202 157.256 173.815 157.331 173.413 157.331C172.969 157.331 172.561 157.256 172.189 157.106C171.817 156.95 171.493 156.731 171.217 156.449C170.947 156.161 170.734 155.819 170.578 155.423C170.428 155.027 170.353 154.586 170.353 154.1C170.353 153.596 170.428 153.143 170.578 152.741C170.734 152.333 170.947 151.988 171.217 151.706C171.493 151.418 171.817 151.196 172.189 151.04C172.561 150.884 172.969 150.806 173.413 150.806C173.857 150.806 174.268 150.884 174.646 151.04C175.024 151.196 175.348 151.418 175.618 151.706C175.894 151.988 176.107 152.333 176.257 152.741C176.413 153.143 176.491 153.596 176.491 154.1ZM174.583 154.1C174.583 153.776 174.553 153.506 174.493 153.29C174.433 153.068 174.349 152.891 174.241 152.759C174.139 152.627 174.016 152.534 173.872 152.48C173.728 152.42 173.575 152.39 173.413 152.39C173.251 152.39 173.098 152.42 172.954 152.48C172.816 152.534 172.696 152.627 172.594 152.759C172.498 152.891 172.42 153.068 172.36 153.29C172.306 153.506 172.279 153.776 172.279 154.1C172.279 154.418 172.306 154.682 172.36 154.892C172.42 155.102 172.498 155.273 172.594 155.405C172.696 155.531 172.816 155.621 172.954 155.675C173.098 155.729 173.251 155.756 173.413 155.756C173.575 155.756 173.728 155.729 173.872 155.675C174.016 155.621 174.139 155.531 174.241 155.405C174.349 155.273 174.433 155.102 174.493 154.892C174.553 154.682 174.583 154.418 174.583 154.1ZM180.721 151.319C180.805 151.223 180.904 151.136 181.018 151.058C181.138 150.98 181.303 150.941 181.513 150.941H183.322L173.557 163.64C173.473 163.742 173.371 163.829 173.251 163.901C173.131 163.967 172.984 164 172.81 164H170.965L180.721 151.319ZM183.925 160.931C183.925 161.417 183.841 161.858 183.673 162.254C183.505 162.65 183.277 162.992 182.989 163.28C182.707 163.562 182.38 163.781 182.008 163.937C181.636 164.087 181.249 164.162 180.847 164.162C180.403 164.162 179.995 164.087 179.623 163.937C179.251 163.781 178.927 163.562 178.651 163.28C178.381 162.992 178.168 162.65 178.012 162.254C177.862 161.858 177.787 161.417 177.787 160.931C177.787 160.427 177.862 159.974 178.012 159.572C178.168 159.164 178.381 158.819 178.651 158.537C178.927 158.249 179.251 158.03 179.623 157.88C179.995 157.724 180.403 157.646 180.847 157.646C181.291 157.646 181.702 157.724 182.08 157.88C182.458 158.03 182.782 158.249 183.052 158.537C183.328 158.819 183.541 159.164 183.691 159.572C183.847 159.974 183.925 160.427 183.925 160.931ZM182.017 160.931C182.017 160.607 181.987 160.337 181.927 160.121C181.867 159.899 181.783 159.722 181.675 159.59C181.573 159.458 181.45 159.365 181.306 159.311C181.162 159.251 181.009 159.221 180.847 159.221C180.685 159.221 180.532 159.251 180.388 159.311C180.25 159.365 180.13 159.458 180.028 159.59C179.932 159.722 179.854 159.899 179.794 160.121C179.74 160.337 179.713 160.607 179.713 160.931C179.713 161.249 179.74 161.513 179.794 161.723C179.854 161.933 179.932 162.104 180.028 162.236C180.13 162.362 180.25 162.452 180.388 162.506C180.532 162.56 180.685 162.587 180.847 162.587C181.009 162.587 181.162 162.56 181.306 162.506C181.45 162.452 181.573 162.362 181.675 162.236C181.783 162.104 181.867 161.933 181.927 161.723C181.987 161.513 182.017 161.249 182.017 160.931Z" fill="white"/>
<path d="M163.849 89.622C163.945 88.986 164.125 88.428 164.389 87.948C164.653 87.468 164.983 87.069 165.379 86.751C165.775 86.433 166.225 86.196 166.729 86.04C167.239 85.878 167.788 85.797 168.376 85.797C169 85.797 169.558 85.887 170.05 86.067C170.548 86.241 170.968 86.481 171.31 86.787C171.652 87.093 171.913 87.45 172.093 87.858C172.279 88.266 172.372 88.704 172.372 89.172C172.372 89.586 172.327 89.952 172.237 90.27C172.153 90.582 172.024 90.855 171.85 91.089C171.682 91.323 171.472 91.521 171.22 91.683C170.974 91.845 170.689 91.98 170.365 92.088C171.865 92.58 172.615 93.579 172.615 95.085C172.615 95.751 172.492 96.339 172.246 96.849C172 97.353 171.67 97.776 171.256 98.118C170.842 98.46 170.359 98.718 169.807 98.892C169.261 99.06 168.688 99.144 168.088 99.144C167.452 99.144 166.891 99.072 166.405 98.928C165.919 98.784 165.49 98.568 165.118 98.28C164.752 97.992 164.437 97.632 164.173 97.2C163.909 96.762 163.678 96.252 163.48 95.67L164.578 95.22C164.866 95.1 165.133 95.067 165.379 95.121C165.631 95.175 165.811 95.307 165.919 95.517C166.039 95.745 166.165 95.955 166.297 96.147C166.435 96.339 166.588 96.507 166.756 96.651C166.924 96.789 167.113 96.897 167.323 96.975C167.539 97.053 167.785 97.092 168.061 97.092C168.409 97.092 168.712 97.035 168.97 96.921C169.228 96.807 169.444 96.66 169.618 96.48C169.792 96.294 169.921 96.087 170.005 95.859C170.095 95.625 170.14 95.394 170.14 95.166C170.14 94.866 170.113 94.596 170.059 94.356C170.005 94.11 169.879 93.903 169.681 93.735C169.489 93.561 169.201 93.429 168.817 93.339C168.439 93.243 167.923 93.195 167.269 93.195V91.449C167.815 91.449 168.262 91.404 168.61 91.314C168.958 91.224 169.231 91.098 169.429 90.936C169.627 90.774 169.762 90.579 169.834 90.351C169.912 90.123 169.951 89.874 169.951 89.604C169.951 89.034 169.801 88.599 169.501 88.299C169.207 87.999 168.787 87.849 168.241 87.849C168.001 87.849 167.779 87.885 167.575 87.957C167.377 88.023 167.197 88.116 167.035 88.236C166.879 88.356 166.744 88.497 166.63 88.659C166.516 88.821 166.432 88.998 166.378 89.19C166.264 89.49 166.117 89.691 165.937 89.793C165.757 89.889 165.496 89.91 165.154 89.856L163.849 89.622ZM183.812 85.941V87.003C183.812 87.315 183.776 87.567 183.704 87.759C183.638 87.951 183.572 88.113 183.506 88.245L178.754 98.172C178.634 98.4 178.472 98.595 178.268 98.757C178.064 98.919 177.788 99 177.44 99H175.64L180.509 89.307C180.629 89.079 180.752 88.872 180.878 88.686C181.004 88.5 181.145 88.323 181.301 88.155H175.28C175.136 88.155 175.004 88.098 174.884 87.984C174.77 87.87 174.713 87.741 174.713 87.597V85.941H183.812ZM185.938 101.214C185.872 101.16 185.824 101.106 185.794 101.052C185.77 100.998 185.758 100.932 185.758 100.854C185.758 100.8 185.776 100.74 185.812 100.674C185.854 100.614 185.902 100.557 185.956 100.503C186.022 100.431 186.103 100.341 186.199 100.233C186.295 100.131 186.391 100.014 186.487 99.882C186.583 99.756 186.67 99.615 186.748 99.459C186.832 99.303 186.895 99.138 186.937 98.964C186.739 98.958 186.559 98.916 186.397 98.838C186.235 98.76 186.097 98.658 185.983 98.532C185.869 98.406 185.779 98.259 185.713 98.091C185.653 97.917 185.623 97.731 185.623 97.533C185.623 97.353 185.656 97.185 185.722 97.029C185.788 96.873 185.881 96.738 186.001 96.624C186.127 96.51 186.274 96.42 186.442 96.354C186.616 96.288 186.808 96.255 187.018 96.255C187.264 96.255 187.477 96.3 187.657 96.39C187.843 96.474 187.996 96.588 188.116 96.732C188.236 96.876 188.326 97.047 188.386 97.245C188.446 97.437 188.476 97.641 188.476 97.857C188.476 98.151 188.431 98.463 188.341 98.793C188.251 99.117 188.116 99.444 187.936 99.774C187.756 100.104 187.534 100.425 187.27 100.737C187.012 101.055 186.712 101.343 186.37 101.601L185.938 101.214ZM190.606 89.622C190.702 88.986 190.882 88.428 191.146 87.948C191.41 87.468 191.74 87.069 192.136 86.751C192.532 86.433 192.982 86.196 193.486 86.04C193.996 85.878 194.545 85.797 195.133 85.797C195.757 85.797 196.315 85.887 196.807 86.067C197.305 86.241 197.725 86.481 198.067 86.787C198.409 87.093 198.67 87.45 198.85 87.858C199.036 88.266 199.129 88.704 199.129 89.172C199.129 89.586 199.084 89.952 198.994 90.27C198.91 90.582 198.781 90.855 198.607 91.089C198.439 91.323 198.229 91.521 197.977 91.683C197.731 91.845 197.446 91.98 197.122 92.088C198.622 92.58 199.372 93.579 199.372 95.085C199.372 95.751 199.249 96.339 199.003 96.849C198.757 97.353 198.427 97.776 198.013 98.118C197.599 98.46 197.116 98.718 196.564 98.892C196.018 99.06 195.445 99.144 194.845 99.144C194.209 99.144 193.648 99.072 193.162 98.928C192.676 98.784 192.247 98.568 191.875 98.28C191.509 97.992 191.194 97.632 190.93 97.2C190.666 96.762 190.435 96.252 190.237 95.67L191.335 95.22C191.623 95.1 191.89 95.067 192.136 95.121C192.388 95.175 192.568 95.307 192.676 95.517C192.796 95.745 192.922 95.955 193.054 96.147C193.192 96.339 193.345 96.507 193.513 96.651C193.681 96.789 193.87 96.897 194.08 96.975C194.296 97.053 194.542 97.092 194.818 97.092C195.166 97.092 195.469 97.035 195.727 96.921C195.985 96.807 196.201 96.66 196.375 96.48C196.549 96.294 196.678 96.087 196.762 95.859C196.852 95.625 196.897 95.394 196.897 95.166C196.897 94.866 196.87 94.596 196.816 94.356C196.762 94.11 196.636 93.903 196.438 93.735C196.246 93.561 195.958 93.429 195.574 93.339C195.196 93.243 194.68 93.195 194.026 93.195V91.449C194.572 91.449 195.019 91.404 195.367 91.314C195.715 91.224 195.988 91.098 196.186 90.936C196.384 90.774 196.519 90.579 196.591 90.351C196.669 90.123 196.708 89.874 196.708 89.604C196.708 89.034 196.558 88.599 196.258 88.299C195.964 87.999 195.544 87.849 194.998 87.849C194.758 87.849 194.536 87.885 194.332 87.957C194.134 88.023 193.954 88.116 193.792 88.236C193.636 88.356 193.501 88.497 193.387 88.659C193.273 88.821 193.189 88.998 193.135 89.19C193.021 89.49 192.874 89.691 192.694 89.793C192.514 89.889 192.253 89.91 191.911 89.856L190.606 89.622ZM207.491 89.1C207.491 89.586 207.407 90.027 207.239 90.423C207.071 90.819 206.843 91.161 206.555 91.449C206.273 91.731 205.946 91.95 205.574 92.106C205.202 92.256 204.815 92.331 204.413 92.331C203.969 92.331 203.561 92.256 203.189 92.106C202.817 91.95 202.493 91.731 202.217 91.449C201.947 91.161 201.734 90.819 201.578 90.423C201.428 90.027 201.353 89.586 201.353 89.1C201.353 88.596 201.428 88.143 201.578 87.741C201.734 87.333 201.947 86.988 202.217 86.706C202.493 86.418 202.817 86.196 203.189 86.04C203.561 85.884 203.969 85.806 204.413 85.806C204.857 85.806 205.268 85.884 205.646 86.04C206.024 86.196 206.348 86.418 206.618 86.706C206.894 86.988 207.107 87.333 207.257 87.741C207.413 88.143 207.491 88.596 207.491 89.1ZM205.583 89.1C205.583 88.776 205.553 88.506 205.493 88.29C205.433 88.068 205.349 87.891 205.241 87.759C205.139 87.627 205.016 87.534 204.872 87.48C204.728 87.42 204.575 87.39 204.413 87.39C204.251 87.39 204.098 87.42 203.954 87.48C203.816 87.534 203.696 87.627 203.594 87.759C203.498 87.891 203.42 88.068 203.36 88.29C203.306 88.506 203.279 88.776 203.279 89.1C203.279 89.418 203.306 89.682 203.36 89.892C203.42 90.102 203.498 90.273 203.594 90.405C203.696 90.531 203.816 90.621 203.954 90.675C204.098 90.729 204.251 90.756 204.413 90.756C204.575 90.756 204.728 90.729 204.872 90.675C205.016 90.621 205.139 90.531 205.241 90.405C205.349 90.273 205.433 90.102 205.493 89.892C205.553 89.682 205.583 89.418 205.583 89.1ZM211.721 86.319C211.805 86.223 211.904 86.136 212.018 86.058C212.138 85.98 212.303 85.941 212.513 85.941H214.322L204.557 98.64C204.473 98.742 204.371 98.829 204.251 98.901C204.131 98.967 203.984 99 203.81 99H201.965L211.721 86.319ZM214.925 95.931C214.925 96.417 214.841 96.858 214.673 97.254C214.505 97.65 214.277 97.992 213.989 98.28C213.707 98.562 213.38 98.781 213.008 98.937C212.636 99.087 212.249 99.162 211.847 99.162C211.403 99.162 210.995 99.087 210.623 98.937C210.251 98.781 209.927 98.562 209.651 98.28C209.381 97.992 209.168 97.65 209.012 97.254C208.862 96.858 208.787 96.417 208.787 95.931C208.787 95.427 208.862 94.974 209.012 94.572C209.168 94.164 209.381 93.819 209.651 93.537C209.927 93.249 210.251 93.03 210.623 92.88C210.995 92.724 211.403 92.646 211.847 92.646C212.291 92.646 212.702 92.724 213.08 92.88C213.458 93.03 213.782 93.249 214.052 93.537C214.328 93.819 214.541 94.164 214.691 94.572C214.847 94.974 214.925 95.427 214.925 95.931ZM213.017 95.931C213.017 95.607 212.987 95.337 212.927 95.121C212.867 94.899 212.783 94.722 212.675 94.59C212.573 94.458 212.45 94.365 212.306 94.311C212.162 94.251 212.009 94.221 211.847 94.221C211.685 94.221 211.532 94.251 211.388 94.311C211.25 94.365 211.13 94.458 211.028 94.59C210.932 94.722 210.854 94.899 210.794 95.121C210.74 95.337 210.713 95.607 210.713 95.931C210.713 96.249 210.74 96.513 210.794 96.723C210.854 96.933 210.932 97.104 211.028 97.236C211.13 97.362 211.25 97.452 211.388 97.506C211.532 97.56 211.685 97.587 211.847 97.587C212.009 97.587 212.162 97.56 212.306 97.506C212.45 97.452 212.573 97.362 212.675 97.236C212.783 97.104 212.867 96.933 212.927 96.723C212.987 96.513 213.017 96.249 213.017 95.931Z" fill="#F7F7F7"/>
<path d="M225.756 30.014V26.126C225.756 25.922 225.762 25.706 225.774 25.478C225.792 25.244 225.816 25.001 225.846 24.749L222.066 30.014H225.756ZM229.428 30.014V31.418C229.428 31.55 229.383 31.664 229.293 31.76C229.209 31.85 229.089 31.895 228.933 31.895H227.916V35H225.756V31.895H220.365C220.209 31.895 220.065 31.847 219.933 31.751C219.807 31.655 219.729 31.529 219.699 31.373L219.438 30.131L225.558 21.932H227.916V30.014H229.428ZM236.737 30.014V26.126C236.737 25.922 236.743 25.706 236.755 25.478C236.773 25.244 236.797 25.001 236.827 24.749L233.047 30.014H236.737ZM240.409 30.014V31.418C240.409 31.55 240.364 31.664 240.274 31.76C240.19 31.85 240.07 31.895 239.914 31.895H238.897V35H236.737V31.895H231.346C231.19 31.895 231.046 31.847 230.914 31.751C230.788 31.655 230.71 31.529 230.68 31.373L230.419 30.131L236.539 21.932H238.897V30.014H240.409ZM248.178 25.1C248.178 25.586 248.094 26.027 247.926 26.423C247.758 26.819 247.53 27.161 247.242 27.449C246.96 27.731 246.633 27.95 246.261 28.106C245.889 28.256 245.502 28.331 245.1 28.331C244.656 28.331 244.248 28.256 243.876 28.106C243.504 27.95 243.18 27.731 242.904 27.449C242.634 27.161 242.421 26.819 242.265 26.423C242.115 26.027 242.04 25.586 242.04 25.1C242.04 24.596 242.115 24.143 242.265 23.741C242.421 23.333 242.634 22.988 242.904 22.706C243.18 22.418 243.504 22.196 243.876 22.04C244.248 21.884 244.656 21.806 245.1 21.806C245.544 21.806 245.955 21.884 246.333 22.04C246.711 22.196 247.035 22.418 247.305 22.706C247.581 22.988 247.794 23.333 247.944 23.741C248.1 24.143 248.178 24.596 248.178 25.1ZM246.27 25.1C246.27 24.776 246.24 24.506 246.18 24.29C246.12 24.068 246.036 23.891 245.928 23.759C245.826 23.627 245.703 23.534 245.559 23.48C245.415 23.42 245.262 23.39 245.1 23.39C244.938 23.39 244.785 23.42 244.641 23.48C244.503 23.534 244.383 23.627 244.281 23.759C244.185 23.891 244.107 24.068 244.047 24.29C243.993 24.506 243.966 24.776 243.966 25.1C243.966 25.418 243.993 25.682 244.047 25.892C244.107 26.102 244.185 26.273 244.281 26.405C244.383 26.531 244.503 26.621 244.641 26.675C244.785 26.729 244.938 26.756 245.1 26.756C245.262 26.756 245.415 26.729 245.559 26.675C245.703 26.621 245.826 26.531 245.928 26.405C246.036 26.273 246.12 26.102 246.18 25.892C246.24 25.682 246.27 25.418 246.27 25.1ZM252.408 22.319C252.492 22.223 252.591 22.136 252.705 22.058C252.825 21.98 252.99 21.941 253.2 21.941H255.009L245.244 34.64C245.16 34.742 245.058 34.829 244.938 34.901C244.818 34.967 244.671 35 244.497 35H242.652L252.408 22.319ZM255.612 31.931C255.612 32.417 255.528 32.858 255.36 33.254C255.192 33.65 254.964 33.992 254.676 34.28C254.394 34.562 254.067 34.781 253.695 34.937C253.323 35.087 252.936 35.162 252.534 35.162C252.09 35.162 251.682 35.087 251.31 34.937C250.938 34.781 250.614 34.562 250.338 34.28C250.068 33.992 249.855 33.65 249.699 33.254C249.549 32.858 249.474 32.417 249.474 31.931C249.474 31.427 249.549 30.974 249.699 30.572C249.855 30.164 250.068 29.819 250.338 29.537C250.614 29.249 250.938 29.03 251.31 28.88C251.682 28.724 252.09 28.646 252.534 28.646C252.978 28.646 253.389 28.724 253.767 28.88C254.145 29.03 254.469 29.249 254.739 29.537C255.015 29.819 255.228 30.164 255.378 30.572C255.534 30.974 255.612 31.427 255.612 31.931ZM253.704 31.931C253.704 31.607 253.674 31.337 253.614 31.121C253.554 30.899 253.47 30.722 253.362 30.59C253.26 30.458 253.137 30.365 252.993 30.311C252.849 30.251 252.696 30.221 252.534 30.221C252.372 30.221 252.219 30.251 252.075 30.311C251.937 30.365 251.817 30.458 251.715 30.59C251.619 30.722 251.541 30.899 251.481 31.121C251.427 31.337 251.4 31.607 251.4 31.931C251.4 32.249 251.427 32.513 251.481 32.723C251.541 32.933 251.619 33.104 251.715 33.236C251.817 33.362 251.937 33.452 252.075 33.506C252.219 33.56 252.372 33.587 252.534 33.587C252.696 33.587 252.849 33.56 252.993 33.506C253.137 33.452 253.26 33.362 253.362 33.236C253.47 33.104 253.554 32.933 253.614 32.723C253.674 32.513 253.704 32.249 253.704 31.931Z" fill="#F7F7F7"/>
<defs>
<linearGradient id="paint0_linear_1575_8006" x1="18.2069" y1="303.907" x2="43.5035" y2="267.632" gradientUnits="userSpaceOnUse">
<stop stop-color="#1945E0"/>
<stop offset="0.625" stop-color="#2D3274"/>
</linearGradient>
<linearGradient id="paint1_linear_1575_8006" x1="32.3464" y1="238.907" x2="49.139" y2="190.86" gradientUnits="userSpaceOnUse">
<stop stop-color="#1945E0"/>
<stop offset="0.625" stop-color="#2D3274"/>
</linearGradient>
<linearGradient id="paint2_linear_1575_8006" x1="275" y1="5.34445" x2="272.325" y2="60.9161" gradientUnits="userSpaceOnUse">
<stop offset="0.480195" stop-color="#FFAC00"/>
<stop offset="1" stop-color="#FFD748"/>
</linearGradient>
<linearGradient id="paint3_linear_1575_8006" x1="236.221" y1="70.3444" x2="233.102" y2="125.87" gradientUnits="userSpaceOnUse">
<stop offset="0.480195" stop-color="#FFAC00"/>
<stop offset="1" stop-color="#FFD748"/>
</linearGradient>
<linearGradient id="paint4_linear_1575_8006" x1="200.827" y1="135.344" x2="197.151" y2="190.801" gradientUnits="userSpaceOnUse">
<stop offset="0.480195" stop-color="#FFAC00"/>
<stop offset="1" stop-color="#FFD748"/>
</linearGradient>
</defs>
</svg>
