<svg width="350" height="322" viewBox="0 0 350 322" fill="none" xmlns="http://www.w3.org/2000/svg">
<path d="M195.049 15.549L195.459 14.2356L209.576 18.6305C211.203 19.136 212.942 18.2238 213.451 16.594C213.957 14.9648 213.031 13.203 211.415 12.7207L197.297 8.32568L197.707 7.01221L211.824 11.4064C214.177 12.1396 215.496 14.65 214.765 17.003C214.031 19.3567 211.52 20.6764 209.167 19.944L195.049 15.549Z" fill="#D8D9D9"/>
<path d="M213.902 17.4558L214.313 16.1423L224.003 19.1582L223.592 20.4725L213.902 17.4558Z" fill="#D8D9D9"/>
<path d="M350 308.329C350 308.356 345.289 308.383 336.752 308.406C310.474 308.479 247.948 308.53 175.008 308.53C78.3394 308.53 0 308.44 0 308.329C0 308.218 78.3394 308.129 175.008 308.129C271.644 308.129 350 308.218 350 308.329Z" fill="#2C3D43" fill-opacity="0.32"/>
<path d="M276.96 236.408C276.956 236.413 276.89 236.361 276.768 236.258C276.632 236.14 276.459 235.988 276.244 235.8C276.015 235.603 275.741 235.354 275.444 235.043C275.145 234.735 274.788 234.398 274.44 233.981C274.262 233.778 274.075 233.564 273.882 233.342C273.689 233.118 273.509 232.868 273.311 232.619C272.909 232.125 272.534 231.556 272.127 230.966C271.351 229.762 270.583 228.383 269.92 226.867C269.274 225.344 268.8 223.837 268.458 222.446C268.309 221.746 268.154 221.083 268.071 220.451C268.026 220.136 267.969 219.833 267.938 219.539C267.91 219.245 267.883 218.964 267.857 218.694C267.793 218.156 267.794 217.665 267.776 217.236C267.753 216.806 267.761 216.436 267.775 216.134C267.787 215.849 267.795 215.618 267.803 215.438C267.811 215.279 267.819 215.196 267.826 215.196C267.833 215.197 267.838 215.28 267.843 215.439C267.845 215.62 267.849 215.85 267.853 216.134C267.851 216.435 267.855 216.804 267.888 217.231C267.917 217.658 267.926 218.146 267.998 218.68C268.028 218.948 268.059 219.228 268.091 219.52C268.126 219.812 268.187 220.111 268.236 220.424C268.325 221.051 268.485 221.709 268.638 222.403C268.987 223.782 269.462 225.276 270.105 226.788C270.762 228.293 271.52 229.664 272.282 230.865C272.681 231.454 273.048 232.022 273.443 232.517C273.637 232.767 273.813 233.018 274.001 233.244C274.191 233.467 274.373 233.682 274.548 233.888C274.886 234.308 275.234 234.65 275.524 234.964C275.812 235.282 276.077 235.538 276.297 235.743C276.501 235.942 276.666 236.103 276.795 236.228C276.908 236.341 276.965 236.402 276.96 236.408Z" fill="#FEFEFE"/>
<path d="M287.446 216.171C287.441 216.191 287.117 216.124 286.679 215.834C286.246 215.55 285.712 215.002 285.447 214.233C285.183 213.463 285.266 212.703 285.433 212.212C285.6 211.713 285.813 211.462 285.83 211.474C285.86 211.491 285.694 211.765 285.57 212.251C285.444 212.732 285.39 213.447 285.637 214.167C285.885 214.887 286.367 215.418 286.763 215.719C287.159 216.026 287.459 216.139 287.446 216.171Z" fill="#FEFEFE"/>
<path d="M288.9 207.216C288.848 207.236 288.671 206.901 288.504 206.467C288.337 206.033 288.244 205.665 288.296 205.646C288.347 205.626 288.525 205.962 288.691 206.395C288.858 206.829 288.951 207.196 288.9 207.216Z" fill="#FEFEFE"/>
<path d="M306.044 239.042C306.052 239.054 305.909 239.157 305.643 239.336C305.379 239.517 304.982 239.756 304.479 240.03C303.476 240.58 302.02 241.226 300.33 241.685C298.639 242.141 297.055 242.318 295.912 242.349C295.339 242.366 294.876 242.36 294.556 242.337C294.238 242.318 294.062 242.3 294.063 242.286C294.063 242.272 294.24 242.263 294.558 242.259C294.877 242.258 295.337 242.243 295.905 242.208C297.039 242.14 298.603 241.942 300.277 241.491C301.95 241.036 303.4 240.418 304.414 239.904C304.921 239.648 305.327 239.429 305.602 239.269C305.88 239.112 306.037 239.031 306.044 239.042Z" fill="#FEFEFE"/>
<path d="M267.652 253.058H324.64V241.567H267.652V253.058Z" fill="#FFAC00"/>
<path d="M320.976 241.759C320.84 241.759 320.729 244.253 320.729 247.33C320.729 250.407 320.84 252.901 320.976 252.901C321.113 252.901 321.223 250.407 321.223 247.33C321.223 244.253 321.113 241.759 320.976 241.759Z" fill="#2C3D43"/>
<path d="M315.69 241.759C315.554 241.759 315.443 244.253 315.443 247.33C315.443 250.407 315.554 252.901 315.69 252.901C315.827 252.901 315.938 250.407 315.938 247.33C315.938 244.253 315.827 241.759 315.69 241.759Z" fill="#2C3D43"/>
<path d="M310.47 241.759C310.333 241.759 310.223 244.253 310.223 247.33C310.223 250.407 310.333 252.901 310.47 252.901C310.606 252.901 310.717 250.407 310.717 247.33C310.717 244.253 310.606 241.759 310.47 241.759Z" fill="#2C3D43"/>
<path d="M305.275 241.759C305.138 241.759 305.027 244.253 305.027 247.33C305.027 250.407 305.138 252.901 305.275 252.901C305.412 252.901 305.522 250.407 305.522 247.33C305.522 244.253 305.412 241.759 305.275 241.759Z" fill="#2C3D43"/>
<path d="M300.082 241.759C299.944 241.759 299.834 244.253 299.834 247.33C299.834 250.407 299.944 252.901 300.082 252.901C300.218 252.901 300.329 250.407 300.329 247.33C300.329 244.253 300.218 241.759 300.082 241.759Z" fill="#2C3D43"/>
<path d="M294.888 241.759C294.751 241.759 294.641 244.253 294.641 247.33C294.641 250.407 294.751 252.901 294.888 252.901C295.024 252.901 295.135 250.407 295.135 247.33C295.135 244.253 295.024 241.759 294.888 241.759Z" fill="#2C3D43"/>
<path d="M289.693 241.759C289.556 241.759 289.445 244.253 289.445 247.33C289.445 250.407 289.556 252.901 289.693 252.901C289.83 252.901 289.94 250.407 289.94 247.33C289.94 244.253 289.83 241.759 289.693 241.759Z" fill="#2C3D43"/>
<path d="M284.499 241.759C284.362 241.759 284.252 244.253 284.252 247.33C284.252 250.407 284.362 252.901 284.499 252.901C284.636 252.901 284.747 250.407 284.747 247.33C284.747 244.253 284.636 241.759 284.499 241.759Z" fill="#2C3D43"/>
<path d="M279.306 241.759C279.17 241.759 279.059 244.253 279.059 247.33C279.059 250.407 279.17 252.901 279.306 252.901C279.443 252.901 279.553 250.407 279.553 247.33C279.553 244.253 279.443 241.759 279.306 241.759Z" fill="#2C3D43"/>
<path d="M274.111 241.759C273.974 241.759 273.863 244.253 273.863 247.33C273.863 250.407 273.974 252.901 274.111 252.901C274.248 252.901 274.358 250.407 274.358 247.33C274.358 244.253 274.248 241.759 274.111 241.759Z" fill="#2C3D43"/>
<path d="M268.917 241.759C268.78 241.759 268.67 244.253 268.67 247.33C268.67 250.407 268.78 252.901 268.917 252.901C269.053 252.901 269.165 250.407 269.165 247.33C269.165 244.253 269.053 241.759 268.917 241.759Z" fill="#2C3D43"/>
<path d="M295.854 243.425C295.591 243.425 295.327 243.424 295.064 243.423C295.018 242.395 294.956 241.759 294.887 241.759C294.818 241.759 294.756 242.395 294.711 243.422C293.094 243.412 291.478 243.385 289.865 243.34C289.821 242.361 289.76 241.759 289.693 241.759C289.626 241.759 289.565 242.358 289.521 243.33C287.897 243.281 286.277 243.214 284.661 243.128C284.618 242.275 284.561 241.759 284.499 241.759C284.437 241.759 284.381 242.268 284.337 243.11C282.701 243.02 281.07 242.91 279.448 242.78C279.408 242.137 279.358 241.759 279.305 241.759C279.252 241.759 279.204 242.128 279.164 242.757C277.504 242.622 275.854 242.467 274.216 242.29C274.185 241.949 274.149 241.759 274.111 241.759C274.074 241.759 274.039 241.941 274.008 242.268C272.176 242.068 270.36 241.843 268.562 241.591L323.722 241.579C322.831 241.7 321.935 241.815 321.035 241.925C321.016 241.816 320.996 241.759 320.975 241.759C320.953 241.759 320.932 241.821 320.913 241.939C319.226 242.143 317.525 242.327 315.814 242.489C315.777 242.024 315.736 241.759 315.691 241.759C315.646 241.759 315.604 242.033 315.567 242.512C313.928 242.665 312.277 242.8 310.62 242.915C310.578 242.189 310.526 241.759 310.469 241.759C310.412 241.759 310.359 242.198 310.317 242.936C308.698 243.045 307.072 243.137 305.442 243.21C305.398 242.308 305.339 241.759 305.275 241.759C305.21 241.759 305.152 242.314 305.108 243.224C303.494 243.294 301.876 243.346 300.255 243.379C300.211 242.378 300.149 241.759 300.081 241.759C300.013 241.759 299.951 242.381 299.906 243.386C298.556 243.412 297.205 243.425 295.854 243.425Z" fill="#CC6053"/>
<path d="M320.914 241.939C320.933 241.821 320.955 241.759 320.977 241.759C320.997 241.759 321.017 241.816 321.037 241.925C320.996 241.929 320.954 241.935 320.914 241.939Z" fill="#273136"/>
<path d="M315.566 242.512C315.603 242.033 315.646 241.759 315.691 241.759C315.735 241.759 315.777 242.024 315.813 242.489C315.731 242.497 315.649 242.504 315.566 242.512Z" fill="#273136"/>
<path d="M310.318 242.936C310.361 242.198 310.413 241.759 310.47 241.759C310.527 241.759 310.58 242.189 310.622 242.915C310.52 242.922 310.42 242.929 310.318 242.936Z" fill="#273136"/>
<path d="M305.107 243.224C305.151 242.314 305.21 241.759 305.275 241.759C305.339 241.759 305.398 242.308 305.442 243.21C305.33 243.215 305.219 243.22 305.107 243.224Z" fill="#273136"/>
<path d="M299.906 243.386C299.951 242.381 300.013 241.759 300.081 241.759C300.149 241.759 300.211 242.378 300.255 243.379C300.139 243.382 300.023 243.384 299.906 243.386Z" fill="#273136"/>
<path d="M295.064 243.423C294.946 243.423 294.828 243.422 294.711 243.422C294.756 242.395 294.818 241.759 294.887 241.759C294.956 241.759 295.018 242.395 295.064 243.423Z" fill="#273136"/>
<path d="M289.866 243.34C289.751 243.337 289.636 243.334 289.521 243.33C289.565 242.358 289.626 241.759 289.694 241.759C289.761 241.759 289.822 242.362 289.866 243.34Z" fill="#273136"/>
<path d="M284.662 243.128C284.553 243.122 284.447 243.116 284.338 243.11C284.381 242.268 284.437 241.759 284.499 241.759C284.562 241.759 284.619 242.275 284.662 243.128Z" fill="#273136"/>
<path d="M279.448 242.781C279.353 242.773 279.259 242.765 279.164 242.757C279.204 242.128 279.253 241.759 279.305 241.759C279.359 241.759 279.408 242.137 279.448 242.781Z" fill="#273136"/>
<path d="M274.216 242.291C274.147 242.283 274.077 242.276 274.008 242.268C274.039 241.941 274.074 241.759 274.111 241.759C274.149 241.759 274.185 241.949 274.216 242.291Z" fill="#273136"/>
<path d="M267.639 241.603C267.639 241.74 280.374 241.851 296.08 241.851C311.792 241.851 324.525 241.74 324.525 241.603C324.525 241.466 311.792 241.355 296.08 241.355C280.374 241.355 267.639 241.466 267.639 241.603Z" fill="#2C3D43"/>
<path d="M266.371 264.358H323.358V252.866H266.371V264.358Z" fill="#FFAC00"/>
<path d="M319.694 253.058C319.558 253.058 319.447 255.553 319.447 258.629C319.447 261.707 319.558 264.201 319.694 264.201C319.831 264.201 319.942 261.707 319.942 258.629C319.942 255.553 319.831 253.058 319.694 253.058Z" fill="#2C3D43"/>
<path d="M314.412 253.058C314.275 253.058 314.164 255.553 314.164 258.629C314.164 261.707 314.275 264.201 314.412 264.201C314.548 264.201 314.659 261.707 314.659 258.629C314.659 255.553 314.548 253.058 314.412 253.058Z" fill="#2C3D43"/>
<path d="M309.189 253.058C309.053 253.058 308.941 255.553 308.941 258.629C308.941 261.707 309.053 264.201 309.189 264.201C309.326 264.201 309.436 261.707 309.436 258.629C309.436 255.553 309.326 253.058 309.189 253.058Z" fill="#2C3D43"/>
<path d="M303.996 253.058C303.858 253.058 303.748 255.553 303.748 258.629C303.748 261.707 303.858 264.201 303.996 264.201C304.132 264.201 304.243 261.707 304.243 258.629C304.243 255.553 304.132 253.058 303.996 253.058Z" fill="#2C3D43"/>
<path d="M298.802 253.058C298.665 253.058 298.555 255.553 298.555 258.629C298.555 261.707 298.665 264.201 298.802 264.201C298.938 264.201 299.049 261.707 299.049 258.629C299.049 255.553 298.938 253.058 298.802 253.058Z" fill="#2C3D43"/>
<path d="M293.609 253.058C293.472 253.058 293.361 255.553 293.361 258.629C293.361 261.707 293.472 264.201 293.609 264.201C293.746 264.201 293.856 261.707 293.856 258.629C293.856 255.553 293.746 253.058 293.609 253.058Z" fill="#2C3D43"/>
<path d="M288.413 253.058C288.276 253.058 288.166 255.553 288.166 258.629C288.166 261.707 288.276 264.201 288.413 264.201C288.55 264.201 288.661 261.707 288.661 258.629C288.661 255.553 288.55 253.058 288.413 253.058Z" fill="#2C3D43"/>
<path d="M283.218 253.058C283.082 253.058 282.971 255.553 282.971 258.629C282.971 261.707 283.082 264.201 283.218 264.201C283.355 264.201 283.465 261.707 283.465 258.629C283.465 255.553 283.355 253.058 283.218 253.058Z" fill="#2C3D43"/>
<path d="M278.025 253.058C277.888 253.058 277.777 255.553 277.777 258.629C277.777 261.707 277.888 264.201 278.025 264.201C278.161 264.201 278.272 261.707 278.272 258.629C278.272 255.553 278.161 253.058 278.025 253.058Z" fill="#2C3D43"/>
<path d="M272.831 253.058C272.694 253.058 272.584 255.553 272.584 258.629C272.584 261.707 272.694 264.201 272.831 264.201C272.968 264.201 273.078 261.707 273.078 258.629C273.078 255.553 272.968 253.058 272.831 253.058Z" fill="#2C3D43"/>
<path d="M267.636 253.058C267.5 253.058 267.389 255.553 267.389 258.629C267.389 261.707 267.5 264.201 267.636 264.201C267.773 264.201 267.883 261.707 267.883 258.629C267.883 255.553 267.773 253.058 267.636 253.058Z" fill="#2C3D43"/>
<path d="M294.574 254.725C294.31 254.725 294.047 254.724 293.783 254.723C293.739 253.695 293.676 253.058 293.608 253.058C293.538 253.058 293.476 253.694 293.431 254.722C291.814 254.712 290.198 254.685 288.586 254.64C288.541 253.661 288.48 253.058 288.413 253.058C288.347 253.058 288.286 253.657 288.241 254.63C286.616 254.581 284.997 254.514 283.381 254.428C283.338 253.575 283.281 253.058 283.219 253.058C283.158 253.058 283.101 253.567 283.058 254.41C281.42 254.319 279.79 254.21 278.168 254.08C278.127 253.437 278.078 253.058 278.026 253.058C277.972 253.058 277.924 253.427 277.884 254.057C276.225 253.923 274.574 253.767 272.937 253.59C272.904 253.249 272.869 253.058 272.831 253.058C272.794 253.058 272.759 253.241 272.728 253.568C270.896 253.368 269.081 253.143 267.283 252.891L322.442 252.879C321.551 253 320.656 253.115 319.755 253.224C319.737 253.116 319.716 253.058 319.695 253.058C319.673 253.058 319.653 253.121 319.632 253.239C317.946 253.443 316.245 253.626 314.534 253.789C314.498 253.324 314.456 253.058 314.412 253.058C314.366 253.058 314.324 253.332 314.287 253.812C312.647 253.965 310.998 254.1 309.34 254.215C309.298 253.489 309.246 253.058 309.189 253.058C309.132 253.058 309.079 253.498 309.037 254.235C307.418 254.345 305.793 254.437 304.162 254.509C304.118 253.608 304.06 253.058 303.996 253.058C303.931 253.058 303.872 253.614 303.828 254.524C302.215 254.594 300.596 254.646 298.976 254.679C298.931 253.677 298.869 253.058 298.801 253.058C298.733 253.058 298.672 253.68 298.627 254.686C297.276 254.712 295.925 254.725 294.574 254.725Z" fill="#CC6053"/>
<path d="M319.633 253.239C319.653 253.121 319.674 253.058 319.695 253.058C319.716 253.058 319.737 253.115 319.756 253.224C319.715 253.229 319.674 253.234 319.633 253.239Z" fill="#273136"/>
<path d="M314.287 253.812C314.323 253.332 314.366 253.058 314.411 253.058C314.456 253.058 314.498 253.324 314.534 253.788C314.451 253.796 314.37 253.804 314.287 253.812Z" fill="#273136"/>
<path d="M309.037 254.235C309.079 253.497 309.131 253.058 309.189 253.058C309.245 253.058 309.298 253.489 309.34 254.214C309.239 254.221 309.137 254.228 309.037 254.235Z" fill="#273136"/>
<path d="M303.828 254.524C303.872 253.614 303.931 253.058 303.996 253.058C304.06 253.058 304.118 253.608 304.161 254.509C304.05 254.515 303.939 254.519 303.828 254.524Z" fill="#273136"/>
<path d="M298.627 254.686C298.672 253.68 298.733 253.058 298.801 253.058C298.869 253.058 298.931 253.677 298.976 254.679C298.859 254.681 298.743 254.684 298.627 254.686Z" fill="#273136"/>
<path d="M293.782 254.723C293.665 254.722 293.547 254.721 293.43 254.721C293.474 253.694 293.537 253.058 293.606 253.058C293.675 253.058 293.738 253.695 293.782 254.723Z" fill="#273136"/>
<path d="M288.585 254.64C288.47 254.637 288.355 254.633 288.24 254.63C288.285 253.657 288.346 253.058 288.412 253.058C288.479 253.058 288.54 253.661 288.585 254.64Z" fill="#273136"/>
<path d="M283.382 254.427C283.275 254.421 283.166 254.416 283.059 254.41C283.102 253.567 283.158 253.058 283.22 253.058C283.282 253.058 283.339 253.575 283.382 254.427Z" fill="#273136"/>
<path d="M278.167 254.08C278.072 254.072 277.979 254.065 277.883 254.057C277.923 253.427 277.972 253.058 278.025 253.058C278.077 253.058 278.127 253.436 278.167 254.08Z" fill="#273136"/>
<path d="M272.936 253.59C272.866 253.582 272.796 253.575 272.727 253.568C272.758 253.24 272.793 253.058 272.83 253.058C272.868 253.058 272.903 253.249 272.936 253.59Z" fill="#273136"/>
<path d="M266.357 252.902C266.357 253.039 279.093 253.15 294.799 253.15C310.511 253.15 323.244 253.039 323.244 252.902C323.244 252.766 310.511 252.656 294.799 252.656C279.093 252.656 266.357 252.766 266.357 252.902Z" fill="#2C3D43"/>
<path d="M271.783 275.478H328.771V263.987H271.783V275.478Z" fill="#FFAC00"/>
<path d="M325.106 264.178C324.97 264.178 324.859 266.672 324.859 269.749C324.859 272.827 324.97 275.321 325.106 275.321C325.243 275.321 325.354 272.827 325.354 269.749C325.354 266.672 325.243 264.178 325.106 264.178Z" fill="#2C3D43"/>
<path d="M319.822 264.178C319.685 264.178 319.574 266.672 319.574 269.749C319.574 272.827 319.685 275.321 319.822 275.321C319.959 275.321 320.069 272.827 320.069 269.749C320.069 266.672 319.959 264.178 319.822 264.178Z" fill="#2C3D43"/>
<path d="M314.599 264.178C314.463 264.178 314.352 266.672 314.352 269.749C314.352 272.827 314.463 275.321 314.599 275.321C314.736 275.321 314.846 272.827 314.846 269.749C314.846 266.672 314.736 264.178 314.599 264.178Z" fill="#2C3D43"/>
<path d="M309.405 264.178C309.269 264.178 309.158 266.672 309.158 269.749C309.158 272.827 309.269 275.321 309.405 275.321C309.542 275.321 309.653 272.827 309.653 269.749C309.653 266.672 309.542 264.178 309.405 264.178Z" fill="#2C3D43"/>
<path d="M304.213 264.178C304.076 264.178 303.965 266.672 303.965 269.749C303.965 272.827 304.076 275.321 304.213 275.321C304.349 275.321 304.46 272.827 304.46 269.749C304.46 266.672 304.349 264.178 304.213 264.178Z" fill="#2C3D43"/>
<path d="M299.019 264.178C298.883 264.178 298.771 266.672 298.771 269.749C298.771 272.827 298.883 275.321 299.019 275.321C299.155 275.321 299.266 272.827 299.266 269.749C299.266 266.672 299.155 264.178 299.019 264.178Z" fill="#2C3D43"/>
<path d="M293.823 264.178C293.687 264.178 293.576 266.672 293.576 269.749C293.576 272.827 293.687 275.321 293.823 275.321C293.96 275.321 294.071 272.827 294.071 269.749C294.071 266.672 293.96 264.178 293.823 264.178Z" fill="#2C3D43"/>
<path d="M288.631 264.178C288.494 264.178 288.383 266.672 288.383 269.749C288.383 272.827 288.494 275.321 288.631 275.321C288.767 275.321 288.877 272.827 288.877 269.749C288.877 266.672 288.767 264.178 288.631 264.178Z" fill="#2C3D43"/>
<path d="M283.436 264.178C283.3 264.178 283.189 266.672 283.189 269.749C283.189 272.827 283.3 275.321 283.436 275.321C283.573 275.321 283.684 272.827 283.684 269.749C283.684 266.672 283.573 264.178 283.436 264.178Z" fill="#2C3D43"/>
<path d="M278.243 264.178C278.106 264.178 277.996 266.672 277.996 269.749C277.996 272.827 278.106 275.321 278.243 275.321C278.38 275.321 278.49 272.827 278.49 269.749C278.49 266.672 278.38 264.178 278.243 264.178Z" fill="#2C3D43"/>
<path d="M273.049 264.178C272.912 264.178 272.801 266.672 272.801 269.749C272.801 272.827 272.912 275.321 273.049 275.321C273.185 275.321 273.295 272.827 273.295 269.749C273.295 266.672 273.185 264.178 273.049 264.178Z" fill="#2C3D43"/>
<path d="M299.984 265.844C299.72 265.844 299.458 265.844 299.194 265.843C299.149 264.816 299.086 264.178 299.018 264.178C298.948 264.178 298.886 264.815 298.841 265.841C297.224 265.833 295.608 265.806 293.996 265.76C293.951 264.782 293.89 264.178 293.823 264.178C293.756 264.178 293.696 264.777 293.651 265.75C292.027 265.702 290.407 265.634 288.792 265.547C288.748 264.695 288.691 264.178 288.63 264.178C288.568 264.178 288.511 264.688 288.467 265.53C286.831 265.44 285.2 265.33 283.578 265.2C283.538 264.556 283.488 264.178 283.435 264.178C283.383 264.178 283.334 264.548 283.294 265.178C281.635 265.043 279.985 264.887 278.347 264.711C278.315 264.369 278.279 264.178 278.241 264.178C278.204 264.178 278.17 264.36 278.138 264.688C276.306 264.489 274.491 264.263 272.693 264.011L327.853 263.999C326.961 264.12 326.066 264.235 325.165 264.344C325.146 264.236 325.126 264.178 325.105 264.178C325.084 264.178 325.063 264.242 325.043 264.36C323.356 264.563 321.656 264.746 319.944 264.908C319.908 264.444 319.867 264.178 319.822 264.178C319.776 264.178 319.734 264.453 319.698 264.932C318.057 265.085 316.409 265.219 314.75 265.334C314.708 264.61 314.656 264.178 314.6 264.178C314.542 264.178 314.489 264.618 314.448 265.355C312.828 265.466 311.203 265.557 309.572 265.63C309.528 264.728 309.469 264.178 309.405 264.178C309.341 264.178 309.282 264.734 309.238 265.645C307.625 265.714 306.006 265.766 304.386 265.799C304.341 264.797 304.279 264.178 304.211 264.178C304.144 264.178 304.082 264.8 304.037 265.806C302.686 265.831 301.334 265.844 299.984 265.844Z" fill="#CC6053"/>
<path d="M325.043 264.36C325.063 264.242 325.084 264.178 325.105 264.178C325.126 264.178 325.146 264.236 325.166 264.344C325.126 264.35 325.083 264.354 325.043 264.36Z" fill="#273136"/>
<path d="M319.697 264.931C319.734 264.453 319.776 264.178 319.821 264.178C319.866 264.178 319.908 264.444 319.943 264.908C319.862 264.916 319.78 264.924 319.697 264.931Z" fill="#273136"/>
<path d="M314.447 265.355C314.489 264.618 314.541 264.178 314.599 264.178C314.656 264.178 314.708 264.61 314.75 265.334C314.649 265.341 314.548 265.348 314.447 265.355Z" fill="#273136"/>
<path d="M309.238 265.644C309.282 264.734 309.341 264.178 309.405 264.178C309.469 264.178 309.528 264.728 309.572 265.63C309.461 265.634 309.349 265.64 309.238 265.644Z" fill="#273136"/>
<path d="M304.037 265.806C304.082 264.8 304.144 264.178 304.212 264.178C304.279 264.178 304.341 264.797 304.386 265.799C304.269 265.801 304.153 265.803 304.037 265.806Z" fill="#273136"/>
<path d="M299.194 265.843C299.077 265.842 298.959 265.842 298.842 265.841C298.887 264.815 298.949 264.178 299.019 264.178C299.087 264.178 299.15 264.816 299.194 265.843Z" fill="#273136"/>
<path d="M293.997 265.76C293.882 265.756 293.767 265.753 293.652 265.75C293.697 264.777 293.757 264.178 293.824 264.178C293.892 264.178 293.953 264.782 293.997 265.76Z" fill="#273136"/>
<path d="M288.793 265.547C288.686 265.542 288.577 265.536 288.469 265.53C288.513 264.688 288.569 264.178 288.631 264.178C288.693 264.178 288.75 264.695 288.793 265.547Z" fill="#273136"/>
<path d="M283.577 265.2C283.482 265.193 283.388 265.185 283.293 265.178C283.333 264.548 283.382 264.178 283.434 264.178C283.487 264.178 283.537 264.556 283.577 265.2Z" fill="#273136"/>
<path d="M278.348 264.711C278.278 264.703 278.208 264.695 278.139 264.688C278.17 264.36 278.205 264.178 278.242 264.178C278.28 264.178 278.315 264.369 278.348 264.711Z" fill="#273136"/>
<path d="M271.768 264.022C271.768 264.159 284.503 264.27 300.21 264.27C315.921 264.27 328.654 264.159 328.654 264.022C328.654 263.886 315.921 263.775 300.21 263.775C284.503 263.775 271.768 263.886 271.768 264.022Z" fill="#2C3D43"/>
<path d="M265.107 286.445H322.095V275.393H265.107V286.445Z" fill="#FFAC00"/>
<path d="M318.429 275.577C318.293 275.577 318.182 277.977 318.182 280.935C318.182 283.895 318.293 286.294 318.429 286.294C318.566 286.294 318.677 283.895 318.677 280.935C318.677 277.977 318.566 275.577 318.429 275.577Z" fill="#2C3D43"/>
<path d="M313.146 275.577C313.009 275.577 312.898 277.977 312.898 280.935C312.898 283.895 313.009 286.294 313.146 286.294C313.282 286.294 313.393 283.895 313.393 280.935C313.393 277.977 313.282 275.577 313.146 275.577Z" fill="#2C3D43"/>
<path d="M307.923 275.577C307.786 275.577 307.676 277.977 307.676 280.935C307.676 283.895 307.786 286.294 307.923 286.294C308.059 286.294 308.17 283.895 308.17 280.935C308.17 277.977 308.059 275.577 307.923 275.577Z" fill="#2C3D43"/>
<path d="M302.729 275.577C302.593 275.577 302.482 277.977 302.482 280.935C302.482 283.895 302.593 286.294 302.729 286.294C302.866 286.294 302.976 283.895 302.976 280.935C302.976 277.977 302.866 275.577 302.729 275.577Z" fill="#2C3D43"/>
<path d="M297.537 275.577C297.4 275.577 297.289 277.977 297.289 280.935C297.289 283.895 297.4 286.294 297.537 286.294C297.673 286.294 297.784 283.895 297.784 280.935C297.784 277.977 297.673 275.577 297.537 275.577Z" fill="#2C3D43"/>
<path d="M292.343 275.577C292.206 275.577 292.096 277.977 292.096 280.935C292.096 283.895 292.206 286.294 292.343 286.294C292.479 286.294 292.59 283.895 292.59 280.935C292.59 277.977 292.479 275.577 292.343 275.577Z" fill="#2C3D43"/>
<path d="M287.148 275.577C287.012 275.577 286.9 277.977 286.9 280.935C286.9 283.895 287.012 286.294 287.148 286.294C287.285 286.294 287.395 283.895 287.395 280.935C287.395 277.977 287.285 275.577 287.148 275.577Z" fill="#2C3D43"/>
<path d="M281.954 275.577C281.817 275.577 281.707 277.977 281.707 280.935C281.707 283.895 281.817 286.294 281.954 286.294C282.091 286.294 282.202 283.895 282.202 280.935C282.202 277.977 282.091 275.577 281.954 275.577Z" fill="#2C3D43"/>
<path d="M276.761 275.577C276.624 275.577 276.514 277.977 276.514 280.935C276.514 283.895 276.624 286.294 276.761 286.294C276.897 286.294 277.008 283.895 277.008 280.935C277.008 277.977 276.897 275.577 276.761 275.577Z" fill="#2C3D43"/>
<path d="M271.566 275.577C271.429 275.577 271.318 277.977 271.318 280.935C271.318 283.895 271.429 286.294 271.566 286.294C271.703 286.294 271.813 283.895 271.813 280.935C271.813 277.977 271.703 275.577 271.566 275.577Z" fill="#2C3D43"/>
<path d="M266.372 275.577C266.235 275.577 266.125 277.977 266.125 280.935C266.125 283.895 266.235 286.294 266.372 286.294C266.509 286.294 266.62 283.895 266.62 280.935C266.62 277.977 266.509 275.577 266.372 275.577Z" fill="#2C3D43"/>
<path d="M293.308 277.762C293.052 277.762 292.797 277.761 292.54 277.761C292.496 276.436 292.423 275.577 292.341 275.577C292.26 275.577 292.188 276.436 292.142 277.758C290.542 277.747 288.94 277.713 287.343 277.655C287.298 276.391 287.227 275.577 287.148 275.577C287.068 275.577 286.998 276.385 286.952 277.641C285.344 277.579 283.738 277.494 282.138 277.385C282.094 276.276 282.027 275.577 281.953 275.577C281.881 275.577 281.814 276.265 281.77 277.359C280.147 277.244 278.532 277.105 276.925 276.942C276.881 276.093 276.823 275.577 276.759 275.577C276.697 275.577 276.64 276.08 276.597 276.908C274.951 276.737 273.315 276.54 271.691 276.317C271.655 275.847 271.611 275.577 271.566 275.577C271.521 275.577 271.479 275.834 271.443 276.282C270 276.081 268.567 275.86 267.145 275.617L267.145 275.42L321.177 275.405C320.291 275.559 319.401 275.705 318.507 275.844C318.483 275.671 318.457 275.577 318.43 275.577C318.401 275.577 318.374 275.679 318.349 275.868C316.676 276.126 314.987 276.358 313.289 276.564C313.249 275.942 313.2 275.577 313.146 275.577C313.092 275.577 313.041 275.956 313 276.599C311.374 276.793 309.74 276.963 308.097 277.109C308.052 276.162 307.991 275.577 307.923 275.577C307.855 275.577 307.794 276.174 307.749 277.139C306.145 277.278 304.534 277.394 302.919 277.487C302.873 276.319 302.805 275.577 302.73 275.577C302.653 275.577 302.585 276.328 302.54 277.508C300.941 277.596 299.338 277.661 297.733 277.704C297.688 276.412 297.616 275.577 297.536 275.577C297.455 275.577 297.383 276.416 297.338 277.714C295.996 277.746 294.651 277.762 293.308 277.762Z" fill="#CC6053"/>
<path d="M318.35 275.868C318.374 275.679 318.401 275.577 318.43 275.577C318.457 275.577 318.483 275.671 318.507 275.844C318.455 275.852 318.402 275.86 318.35 275.868Z" fill="#273136"/>
<path d="M313.002 276.599C313.043 275.956 313.093 275.577 313.148 275.577C313.201 275.577 313.25 275.942 313.291 276.564C313.195 276.576 313.098 276.588 313.002 276.599Z" fill="#273136"/>
<path d="M307.748 277.139C307.793 276.174 307.855 275.577 307.922 275.577C307.99 275.577 308.051 276.162 308.096 277.109C307.98 277.119 307.865 277.129 307.748 277.139Z" fill="#273136"/>
<path d="M302.539 277.508C302.584 276.328 302.653 275.577 302.729 275.577C302.805 275.577 302.872 276.319 302.918 277.487C302.792 277.494 302.665 277.501 302.539 277.508Z" fill="#273136"/>
<path d="M297.338 277.714C297.383 276.416 297.454 275.577 297.535 275.577C297.616 275.577 297.687 276.412 297.732 277.704C297.6 277.707 297.47 277.71 297.338 277.714Z" fill="#273136"/>
<path d="M292.541 277.761C292.407 277.76 292.276 277.759 292.143 277.758C292.188 276.436 292.26 275.577 292.342 275.577C292.423 275.577 292.496 276.436 292.541 277.761Z" fill="#273136"/>
<path d="M287.344 277.655C287.213 277.65 287.084 277.646 286.953 277.641C286.999 276.385 287.069 275.577 287.148 275.577C287.228 275.577 287.299 276.391 287.344 277.655Z" fill="#273136"/>
<path d="M282.138 277.385C282.016 277.376 281.892 277.368 281.77 277.359C281.814 276.265 281.881 275.577 281.953 275.577C282.027 275.577 282.094 276.276 282.138 277.385Z" fill="#273136"/>
<path d="M276.926 276.942C276.817 276.931 276.706 276.919 276.598 276.908C276.641 276.08 276.698 275.577 276.76 275.577C276.824 275.577 276.882 276.093 276.926 276.942Z" fill="#273136"/>
<path d="M271.691 276.317C271.609 276.305 271.526 276.294 271.443 276.282C271.48 275.834 271.521 275.577 271.566 275.577C271.612 275.577 271.655 275.847 271.691 276.317Z" fill="#273136"/>
<path d="M265.092 275.428C265.092 275.564 277.827 275.675 293.534 275.675C309.245 275.675 321.978 275.564 321.978 275.428C321.978 275.291 309.245 275.181 293.534 275.181C277.827 275.181 265.092 275.291 265.092 275.428Z" fill="#2C3D43"/>
<path d="M268.771 297.503H325.759V286.451H268.771V297.503Z" fill="#FFAC00"/>
<path d="M322.095 286.635C321.959 286.635 321.848 289.035 321.848 291.994C321.848 294.953 321.959 297.352 322.095 297.352C322.232 297.352 322.342 294.953 322.342 291.994C322.342 289.035 322.232 286.635 322.095 286.635Z" fill="#2C3D43"/>
<path d="M316.809 286.635C316.673 286.635 316.562 289.035 316.562 291.994C316.562 294.953 316.673 297.352 316.809 297.352C316.946 297.352 317.057 294.953 317.057 291.994C317.057 289.035 316.946 286.635 316.809 286.635Z" fill="#2C3D43"/>
<path d="M311.589 286.635C311.452 286.635 311.342 289.035 311.342 291.994C311.342 294.953 311.452 297.352 311.589 297.352C311.725 297.352 311.836 294.953 311.836 291.994C311.836 289.035 311.725 286.635 311.589 286.635Z" fill="#2C3D43"/>
<path d="M306.394 286.635C306.258 286.635 306.146 289.035 306.146 291.994C306.146 294.953 306.258 297.352 306.394 297.352C306.531 297.352 306.641 294.953 306.641 291.994C306.641 289.035 306.531 286.635 306.394 286.635Z" fill="#2C3D43"/>
<path d="M301.2 286.635C301.063 286.635 300.953 289.035 300.953 291.994C300.953 294.953 301.063 297.352 301.2 297.352C301.337 297.352 301.448 294.953 301.448 291.994C301.448 289.035 301.337 286.635 301.2 286.635Z" fill="#2C3D43"/>
<path d="M296.007 286.635C295.87 286.635 295.76 289.035 295.76 291.994C295.76 294.953 295.87 297.352 296.007 297.352C296.143 297.352 296.254 294.953 296.254 291.994C296.254 289.035 296.143 286.635 296.007 286.635Z" fill="#2C3D43"/>
<path d="M290.812 286.635C290.676 286.635 290.564 289.035 290.564 291.994C290.564 294.953 290.676 297.352 290.812 297.352C290.949 297.352 291.059 294.953 291.059 291.994C291.059 289.035 290.949 286.635 290.812 286.635Z" fill="#2C3D43"/>
<path d="M285.618 286.635C285.481 286.635 285.371 289.035 285.371 291.994C285.371 294.953 285.481 297.352 285.618 297.352C285.755 297.352 285.866 294.953 285.866 291.994C285.866 289.035 285.755 286.635 285.618 286.635Z" fill="#2C3D43"/>
<path d="M280.425 286.635C280.288 286.635 280.178 289.035 280.178 291.994C280.178 294.953 280.288 297.352 280.425 297.352C280.561 297.352 280.672 294.953 280.672 291.994C280.672 289.035 280.561 286.635 280.425 286.635Z" fill="#2C3D43"/>
<path d="M275.23 286.635C275.094 286.635 274.982 289.035 274.982 291.994C274.982 294.953 275.094 297.352 275.23 297.352C275.367 297.352 275.477 294.953 275.477 291.994C275.477 289.035 275.367 286.635 275.23 286.635Z" fill="#2C3D43"/>
<path d="M270.036 286.635C269.899 286.635 269.789 289.035 269.789 291.994C269.789 294.953 269.899 297.352 270.036 297.352C270.173 297.352 270.284 294.953 270.284 291.994C270.284 289.035 270.173 286.635 270.036 286.635Z" fill="#2C3D43"/>
<path d="M296.972 289.13C296.721 289.13 296.467 289.13 296.215 289.129C296.171 287.63 296.094 286.635 296.006 286.635C295.918 286.635 295.841 287.629 295.797 289.126C294.202 289.113 292.608 289.075 291.018 289.01C290.973 287.578 290.898 286.635 290.812 286.635C290.727 286.635 290.652 287.57 290.607 288.993C289.006 288.923 287.406 288.827 285.813 288.704C285.768 287.446 285.697 286.635 285.618 286.635C285.539 286.635 285.469 287.432 285.424 288.674C283.808 288.545 282.2 288.388 280.598 288.204C280.554 287.234 280.492 286.635 280.424 286.635C280.357 286.635 280.296 287.218 280.251 288.163C278.613 287.97 276.982 287.748 275.365 287.496C275.326 286.952 275.28 286.635 275.23 286.635C275.182 286.635 275.137 286.936 275.098 287.454C273.277 287.167 271.47 286.842 269.682 286.48L324.841 286.463C323.959 286.636 323.07 286.801 322.179 286.958C322.152 286.75 322.124 286.635 322.094 286.635C322.063 286.635 322.033 286.76 322.005 286.989C320.338 287.28 318.655 287.541 316.963 287.774C316.921 287.061 316.868 286.635 316.81 286.635C316.752 286.635 316.698 287.078 316.656 287.815C315.036 288.034 313.408 288.226 311.771 288.39C311.726 287.312 311.66 286.635 311.588 286.635C311.515 286.635 311.449 287.328 311.403 288.427C309.807 288.583 308.202 288.714 306.593 288.819C306.549 287.494 306.476 286.635 306.394 286.635C306.312 286.635 306.239 287.505 306.194 288.844C304.601 288.943 303.006 289.016 301.407 289.064C301.363 287.602 301.287 286.635 301.2 286.635C301.113 286.635 301.037 287.607 300.993 289.076C299.653 289.113 298.313 289.13 296.972 289.13Z" fill="#CC6053"/>
<path d="M322.006 286.989C322.034 286.761 322.064 286.635 322.095 286.635C322.125 286.635 322.152 286.75 322.18 286.958C322.121 286.969 322.065 286.979 322.006 286.989Z" fill="#273136"/>
<path d="M316.656 287.815C316.699 287.078 316.752 286.635 316.811 286.635C316.868 286.635 316.921 287.061 316.963 287.774C316.861 287.788 316.758 287.802 316.656 287.815Z" fill="#273136"/>
<path d="M311.404 288.427C311.45 287.328 311.515 286.635 311.589 286.635C311.661 286.635 311.727 287.312 311.772 288.39C311.649 288.403 311.527 288.415 311.404 288.427Z" fill="#273136"/>
<path d="M306.195 288.844C306.24 287.505 306.313 286.635 306.395 286.635C306.477 286.635 306.55 287.494 306.594 288.819C306.462 288.827 306.328 288.836 306.195 288.844Z" fill="#273136"/>
<path d="M300.994 289.076C301.038 287.607 301.115 286.635 301.201 286.635C301.288 286.635 301.365 287.602 301.409 289.064C301.27 289.069 301.132 289.073 300.994 289.076Z" fill="#273136"/>
<path d="M296.215 289.129C296.076 289.128 295.937 289.127 295.797 289.126C295.841 287.629 295.918 286.635 296.006 286.635C296.094 286.635 296.171 287.63 296.215 289.129Z" fill="#273136"/>
<path d="M291.018 289.01C290.881 289.005 290.745 288.999 290.607 288.993C290.652 287.57 290.727 286.635 290.813 286.635C290.898 286.635 290.973 287.578 291.018 289.01Z" fill="#273136"/>
<path d="M285.813 288.704C285.683 288.694 285.553 288.684 285.424 288.674C285.469 287.432 285.539 286.635 285.618 286.635C285.697 286.635 285.768 287.446 285.813 288.704Z" fill="#273136"/>
<path d="M280.599 288.204C280.484 288.191 280.367 288.177 280.252 288.163C280.297 287.218 280.358 286.635 280.425 286.635C280.493 286.635 280.554 287.234 280.599 288.204Z" fill="#273136"/>
<path d="M275.366 287.496C275.276 287.482 275.189 287.469 275.1 287.454C275.138 286.936 275.183 286.635 275.232 286.635C275.281 286.635 275.327 286.952 275.366 287.496Z" fill="#273136"/>
<path d="M268.756 286.486C268.756 286.622 281.491 286.733 297.197 286.733C312.909 286.733 325.642 286.622 325.642 286.486C325.642 286.349 312.909 286.239 297.197 286.239C281.491 286.239 268.756 286.349 268.756 286.486Z" fill="#2C3D43"/>
<path d="M265.516 308.404H322.503V297.352H265.516V308.404Z" fill="#FFAC00"/>
<path d="M318.839 297.536C318.702 297.536 318.592 299.935 318.592 302.894C318.592 305.855 318.702 308.253 318.839 308.253C318.975 308.253 319.086 305.855 319.086 302.894C319.086 299.935 318.975 297.536 318.839 297.536Z" fill="#2C3D43"/>
<path d="M313.554 297.536C313.417 297.536 313.307 299.935 313.307 302.894C313.307 305.855 313.417 308.253 313.554 308.253C313.69 308.253 313.801 305.855 313.801 302.894C313.801 299.935 313.69 297.536 313.554 297.536Z" fill="#2C3D43"/>
<path d="M308.331 297.536C308.194 297.536 308.084 299.935 308.084 302.894C308.084 305.855 308.194 308.253 308.331 308.253C308.468 308.253 308.579 305.855 308.579 302.894C308.579 299.935 308.468 297.536 308.331 297.536Z" fill="#2C3D43"/>
<path d="M303.138 297.536C303.001 297.536 302.891 299.935 302.891 302.894C302.891 305.855 303.001 308.253 303.138 308.253C303.274 308.253 303.385 305.855 303.385 302.894C303.385 299.935 303.274 297.536 303.138 297.536Z" fill="#2C3D43"/>
<path d="M297.945 297.536C297.808 297.536 297.697 299.935 297.697 302.894C297.697 305.855 297.808 308.253 297.945 308.253C298.082 308.253 298.192 305.855 298.192 302.894C298.192 299.935 298.082 297.536 297.945 297.536Z" fill="#2C3D43"/>
<path d="M292.751 297.536C292.614 297.536 292.504 299.935 292.504 302.894C292.504 305.855 292.614 308.253 292.751 308.253C292.887 308.253 292.999 305.855 292.999 302.894C292.999 299.935 292.887 297.536 292.751 297.536Z" fill="#2C3D43"/>
<path d="M287.556 297.536C287.42 297.536 287.309 299.935 287.309 302.894C287.309 305.855 287.42 308.253 287.556 308.253C287.693 308.253 287.803 305.855 287.803 302.894C287.803 299.935 287.693 297.536 287.556 297.536Z" fill="#2C3D43"/>
<path d="M282.362 297.536C282.226 297.536 282.115 299.935 282.115 302.894C282.115 305.855 282.226 308.253 282.362 308.253C282.499 308.253 282.61 305.855 282.61 302.894C282.61 299.935 282.499 297.536 282.362 297.536Z" fill="#2C3D43"/>
<path d="M277.169 297.536C277.032 297.536 276.922 299.935 276.922 302.894C276.922 305.855 277.032 308.253 277.169 308.253C277.305 308.253 277.416 305.855 277.416 302.894C277.416 299.935 277.305 297.536 277.169 297.536Z" fill="#2C3D43"/>
<path d="M271.974 297.536C271.838 297.536 271.727 299.935 271.727 302.894C271.727 305.855 271.838 308.253 271.974 308.253C272.111 308.253 272.221 305.855 272.221 302.894C272.221 299.935 272.111 297.536 271.974 297.536Z" fill="#2C3D43"/>
<path d="M266.78 297.536C266.644 297.536 266.533 299.935 266.533 302.894C266.533 305.855 266.644 308.253 266.78 308.253C266.917 308.253 267.028 305.855 267.028 302.894C267.028 299.935 266.917 297.536 266.78 297.536Z" fill="#2C3D43"/>
<path d="M293.717 299.722C293.461 299.722 293.205 299.721 292.949 299.719C292.904 298.396 292.832 297.536 292.75 297.536C292.668 297.536 292.596 298.394 292.551 299.717C290.95 299.706 289.348 299.671 287.752 299.614C287.707 298.35 287.636 297.536 287.556 297.536C287.477 297.536 287.407 298.344 287.361 299.6C285.753 299.538 284.147 299.453 282.547 299.343C282.502 298.235 282.436 297.536 282.362 297.536C282.289 297.536 282.223 298.224 282.178 299.318C280.556 299.204 278.941 299.065 277.333 298.901C277.289 298.052 277.231 297.536 277.168 297.536C277.106 297.536 277.049 298.039 277.005 298.867C275.359 298.696 273.724 298.499 272.1 298.275C272.063 297.806 272.02 297.536 271.974 297.536C271.93 297.536 271.888 297.793 271.852 298.241C270.027 297.987 268.217 297.7 266.426 297.379L321.586 297.364C320.7 297.518 319.81 297.664 318.915 297.803C318.892 297.63 318.865 297.536 318.838 297.536C318.81 297.536 318.783 297.639 318.758 297.827C317.085 298.086 315.396 298.318 313.698 298.523C313.657 297.902 313.608 297.536 313.554 297.536C313.5 297.536 313.45 297.916 313.409 298.558C311.783 298.752 310.149 298.922 308.506 299.068C308.461 298.12 308.4 297.536 308.332 297.536C308.264 297.536 308.202 298.133 308.158 299.098C306.554 299.237 304.943 299.354 303.327 299.446C303.283 298.279 303.214 297.536 303.138 297.536C303.062 297.536 302.993 298.288 302.948 299.467C301.349 299.555 299.747 299.621 298.141 299.663C298.097 298.371 298.025 297.536 297.945 297.536C297.864 297.536 297.792 298.376 297.746 299.673C296.404 299.705 295.06 299.722 293.717 299.722Z" fill="#CC6053"/>
<path d="M318.758 297.827C318.783 297.639 318.81 297.536 318.838 297.536C318.865 297.536 318.891 297.63 318.915 297.803C318.863 297.811 318.81 297.819 318.758 297.827Z" fill="#273136"/>
<path d="M313.41 298.558C313.451 297.916 313.501 297.536 313.555 297.536C313.609 297.536 313.658 297.902 313.699 298.523C313.603 298.535 313.506 298.546 313.41 298.558Z" fill="#273136"/>
<path d="M308.158 299.098C308.203 298.133 308.265 297.536 308.333 297.536C308.401 297.536 308.461 298.12 308.506 299.068C308.39 299.078 308.275 299.088 308.158 299.098Z" fill="#273136"/>
<path d="M302.949 299.467C302.994 298.288 303.063 297.536 303.139 297.536C303.215 297.536 303.283 298.279 303.328 299.446C303.202 299.453 303.075 299.46 302.949 299.467Z" fill="#273136"/>
<path d="M297.746 299.673C297.792 298.376 297.863 297.536 297.944 297.536C298.025 297.536 298.096 298.371 298.141 299.663C298.009 299.666 297.879 299.67 297.746 299.673Z" fill="#273136"/>
<path d="M292.949 299.719C292.815 299.719 292.684 299.719 292.551 299.717C292.596 298.394 292.668 297.536 292.75 297.536C292.832 297.536 292.904 298.396 292.949 299.719Z" fill="#273136"/>
<path d="M287.752 299.614C287.621 299.61 287.493 299.605 287.361 299.6C287.407 298.344 287.477 297.536 287.557 297.536C287.636 297.536 287.707 298.35 287.752 299.614Z" fill="#273136"/>
<path d="M282.547 299.344C282.424 299.335 282.3 299.327 282.178 299.318C282.222 298.225 282.289 297.536 282.361 297.536C282.435 297.536 282.502 298.235 282.547 299.344Z" fill="#273136"/>
<path d="M277.334 298.901C277.225 298.89 277.114 298.878 277.006 298.867C277.049 298.039 277.106 297.536 277.169 297.536C277.232 297.536 277.29 298.052 277.334 298.901Z" fill="#273136"/>
<path d="M272.099 298.275C272.017 298.264 271.934 298.253 271.852 298.241C271.888 297.793 271.93 297.536 271.974 297.536C272.02 297.536 272.063 297.806 272.099 298.275Z" fill="#273136"/>
<path d="M265.5 297.386C265.5 297.524 278.235 297.634 293.942 297.634C309.654 297.634 322.386 297.524 322.386 297.386C322.386 297.251 309.654 297.139 293.942 297.139C278.235 297.139 265.5 297.251 265.5 297.386Z" fill="#2C3D43"/>
<path d="M322.503 308.404C322.497 308.404 322.491 308.34 322.485 308.215C322.481 308.07 322.475 307.887 322.468 307.659C322.461 307.144 322.45 306.425 322.436 305.509C322.423 303.609 322.403 300.891 322.379 297.503L322.379 297.38H322.503C323.492 297.375 324.541 297.371 325.643 297.366L325.506 297.503C325.496 294.275 325.486 290.536 325.474 286.445L325.643 286.614C324.491 286.616 323.249 286.618 321.979 286.621H321.804L321.803 286.445C321.8 283.028 321.797 279.326 321.793 275.478V275.292H321.979C323.193 275.292 324.485 275.291 325.791 275.291C326.754 275.291 327.71 275.291 328.654 275.291L328.468 275.478C328.471 271.389 328.475 267.459 328.478 263.775L328.654 263.951C326.781 263.947 324.976 263.944 323.244 263.941H323.078V263.775C323.091 259.775 323.103 256.168 323.112 253.058L323.113 252.926L323.244 252.926C323.747 252.928 324.199 252.93 324.64 252.932L324.514 253.059C324.502 249.499 324.492 246.641 324.486 244.646C324.49 243.682 324.494 242.926 324.496 242.386C324.501 242.145 324.505 241.953 324.508 241.802C324.513 241.67 324.518 241.603 324.524 241.603C324.53 241.603 324.536 241.67 324.544 241.801C324.55 241.952 324.557 242.145 324.567 242.385C324.58 242.926 324.6 243.68 324.624 244.645C324.657 246.64 324.705 249.497 324.766 253.057L324.767 253.183H324.64C324.199 253.186 323.747 253.188 323.244 253.189L323.376 253.058C323.386 256.168 323.397 259.775 323.41 263.775L323.244 263.609C324.976 263.606 326.781 263.602 328.654 263.599L328.83 263.598V263.775C328.834 267.459 328.837 271.389 328.841 275.478V275.664H328.654C327.71 275.664 326.754 275.664 325.791 275.664C324.485 275.664 323.193 275.664 321.979 275.664L322.165 275.478C322.161 279.326 322.158 283.028 322.154 286.445L321.979 286.269C323.249 286.271 324.491 286.273 325.643 286.276H325.812V286.445C325.8 290.536 325.789 294.275 325.78 297.503V297.64H325.643C324.541 297.635 323.492 297.631 322.503 297.626L322.626 297.503C322.603 300.891 322.583 303.609 322.57 305.509C322.556 306.425 322.545 307.144 322.538 307.659C322.53 307.887 322.525 308.07 322.52 308.215C322.515 308.34 322.508 308.404 322.503 308.404Z" fill="#2C3D43"/>
<path d="M300.374 158.558C300.369 158.561 300.329 158.5 300.258 158.382C300.18 158.245 300.08 158.071 299.957 157.855C299.824 157.628 299.669 157.344 299.513 157.004C299.355 156.665 299.155 156.287 298.988 155.846C298.899 155.626 298.807 155.398 298.71 155.16C298.614 154.92 298.537 154.664 298.445 154.403C298.254 153.881 298.107 153.307 297.94 152.706C297.643 151.495 297.401 150.14 297.286 148.704C297.186 147.266 297.225 145.891 297.338 144.649C297.414 144.03 297.475 143.44 297.587 142.896C297.638 142.624 297.677 142.358 297.735 142.107C297.796 141.858 297.854 141.617 297.909 141.388C298.009 140.927 298.149 140.523 298.256 140.164C298.359 139.805 298.471 139.502 298.568 139.257C298.658 139.026 298.731 138.838 298.788 138.693C298.841 138.564 298.871 138.497 298.876 138.5C298.881 138.502 298.863 138.573 298.821 138.705C298.772 138.854 298.709 139.044 298.632 139.28C298.545 139.528 298.443 139.832 298.35 140.193C298.252 140.552 298.121 140.957 298.029 141.417C297.977 141.647 297.924 141.886 297.867 142.135C297.813 142.385 297.778 142.649 297.729 142.921C297.624 143.462 297.57 144.049 297.499 144.664C297.394 145.899 297.361 147.264 297.461 148.691C297.574 150.117 297.81 151.461 298.096 152.667C298.257 153.265 298.398 153.837 298.583 154.357C298.671 154.618 298.745 154.874 298.836 155.113C298.929 155.351 299.017 155.58 299.103 155.799C299.262 156.241 299.452 156.62 299.602 156.962C299.748 157.305 299.893 157.591 300.017 157.824C300.128 158.044 300.218 158.224 300.289 158.364C300.349 158.489 300.379 158.555 300.374 158.558Z" fill="#FEFEFE"/>
<path d="M318.493 137.914C318.445 137.915 318.394 137.588 318.381 137.184C318.367 136.779 318.394 136.45 318.442 136.448C318.49 136.447 318.541 136.773 318.555 137.178C318.57 137.583 318.542 137.911 318.493 137.914Z" fill="#FEFEFE"/>
<path d="M323.574 168.987C323.577 168.998 323.43 169.044 323.161 169.115C322.892 169.189 322.497 169.273 322.005 169.356C321.023 169.524 319.64 169.642 318.119 169.54C316.596 169.435 315.242 169.132 314.292 168.832C313.816 168.684 313.436 168.548 313.18 168.438C312.923 168.331 312.783 168.267 312.787 168.255C312.792 168.244 312.94 168.287 313.203 168.374C313.466 168.463 313.85 168.582 314.327 168.714C315.28 168.98 316.623 169.261 318.131 169.366C319.638 169.466 321.007 169.369 321.987 169.234C322.478 169.167 322.874 169.102 323.146 169.048C323.418 168.997 323.571 168.975 323.574 168.987Z" fill="#FEFEFE"/>
<path d="M244.226 308.103L139.689 307.619C127.117 307.562 116.97 297.325 117.024 284.752L118.131 22.6759C118.184 10.096 128.427 -0.0576332 141.007 0.000246226L245.545 0.483346C258.118 0.541226 268.264 10.7782 268.211 23.3511L267.103 285.428C267.049 298.008 256.806 308.161 244.226 308.103Z" fill="#2C3D43"/>
<path d="M245.396 9.52811L225.128 9.43473L165.935 9.16154L158.807 9.12836L141.068 9.04656C132.258 9.00643 125.084 16.1171 125.047 24.9271L123.965 280.733C123.928 289.539 131.034 296.708 139.839 296.749L244.167 297.23C252.977 297.271 260.151 290.16 260.188 281.35L261.27 25.5437C261.307 16.7383 254.201 9.56901 245.396 9.52811Z" fill="#F6F6F5"/>
<path d="M246.169 32.7762C246.166 33.497 245.58 34.0797 244.859 34.0766C244.137 34.0743 243.556 33.4877 243.559 32.7662C243.561 32.0454 244.147 31.4635 244.868 31.4658C245.59 31.4689 246.172 32.0554 246.169 32.7762Z" fill="#2C3D43"/>
<path d="M246.154 37.4723C246.151 38.1931 245.564 38.7757 244.843 38.7726C244.123 38.7703 243.54 38.183 243.543 37.4622C243.545 36.7414 244.132 36.1588 244.853 36.1619C245.574 36.1642 246.156 36.7515 246.154 37.4723Z" fill="#2C3D43"/>
<path d="M246.134 42.1681C246.132 42.8889 245.545 43.4707 244.824 43.4684C244.103 43.4661 243.521 42.8788 243.523 42.158C243.526 41.4372 244.113 40.8546 244.834 40.8577C245.555 40.86 246.137 41.4465 246.134 42.1681Z" fill="#2C3D43"/>
<path d="M250.765 147.905H146.195C144.363 147.905 142.877 146.419 142.877 144.586V80.6719C142.877 78.8391 144.363 77.3535 146.195 77.3535H250.765C252.598 77.3535 254.083 78.8391 254.083 80.6719V144.586C254.083 146.419 252.598 147.905 250.765 147.905Z" fill="#E5E5E4"/>
<path d="M247.707 143.325H143.137C141.304 143.325 139.818 141.84 139.818 140.007V76.0923C139.818 74.2595 141.304 72.7739 143.137 72.7739H247.707C249.54 72.7739 251.026 74.2595 251.026 76.0923V140.007C251.026 141.84 249.54 143.325 247.707 143.325Z" fill="#D8D9D9"/>
<path d="M244.18 139.517H139.609C137.777 139.517 136.291 138.032 136.291 136.199V72.2847C136.291 70.4526 137.777 68.967 139.609 68.967H244.18C246.013 68.967 247.498 70.4526 247.498 72.2847V136.199C247.498 138.032 246.013 139.517 244.18 139.517Z" fill="#FFAC00"/>
<path d="M153.389 84.9556C153.389 84.5158 153.054 84.3066 152.426 84.3066H151.017V85.5969H152.426C153.054 85.5969 153.389 85.4032 153.389 84.9556ZM151.017 82.196V83.4269H152.218C152.807 83.4269 153.128 83.2177 153.128 82.8079C153.128 82.3974 152.807 82.196 152.218 82.196H151.017ZM154.604 85.0822C154.604 85.9851 153.888 86.5068 152.516 86.5068H149.816V81.2869H152.367C153.672 81.2869 154.343 81.8309 154.343 82.6436C154.343 83.166 154.075 83.5688 153.65 83.7919C154.231 83.9786 154.604 84.4262 154.604 85.0822Z" fill="#FEFEFE"/>
<path d="M158.574 84.471L157.746 82.4722L156.918 84.471H158.574ZM158.955 85.3886H156.53L156.068 86.5068H154.83L157.157 81.2869H158.351L160.685 86.5068H159.416L158.955 85.3886Z" fill="#FEFEFE"/>
<path d="M166.013 81.2869V86.5068H165.021L162.418 83.3373V86.5068H161.225V81.2869H162.225L164.819 84.4556V81.2869H166.013Z" fill="#FEFEFE"/>
<path d="M179.177 127.754H147.707C147.03 127.754 146.482 127.205 146.482 126.529V126.047C146.482 125.37 147.03 124.822 147.707 124.822H179.177C179.854 124.822 180.403 125.37 180.403 126.047V126.529C180.403 127.205 179.854 127.754 179.177 127.754Z" fill="#FEFEFE"/>
<path d="M235.239 127.754H218.847C218.17 127.754 217.621 127.205 217.621 126.529V126.047C217.621 125.37 218.17 124.822 218.847 124.822H235.239C235.916 124.822 236.464 125.37 236.464 126.047V126.529C236.464 127.205 235.916 127.754 235.239 127.754Z" fill="#FEFEFE"/>
<path d="M152.182 95.7907C146.479 95.7907 140.806 94.4278 136.291 91.2807V72.6513C136.291 70.6162 137.941 68.967 139.976 68.967H243.813C245.848 68.967 247.498 70.6162 247.498 72.6513V93.3451C244.618 92.5055 241.804 91.3309 239.189 89.9973C231.096 85.8694 223.462 80.2913 214.508 78.7572C212.764 78.4577 211.018 78.3211 209.27 78.3211C201.506 78.3211 193.761 81.026 186.594 84.2503C177.814 88.2 169.282 93.0186 159.857 94.9881C157.362 95.5098 154.769 95.7907 152.182 95.7907ZM172.228 86.5068L169.939 83.6129L172.101 81.2869H170.759L168.448 83.7248V81.2869H167.246V86.5068H168.448V85.1864L169.149 84.4556L170.819 86.5068H172.228ZM162.419 83.3373L165.022 86.5068H166.014V81.2869H164.82V84.4556L162.226 81.2869H161.225V86.5068H162.419V83.3373ZM160.686 86.5068L158.352 81.2869H157.158L154.831 86.5068H156.069L156.531 85.3886H158.956L159.417 86.5068H160.686ZM149.816 81.2869V86.5068H152.516C153.888 86.5068 154.604 85.9851 154.604 85.0822C154.604 84.4263 154.231 83.9786 153.649 83.7919C154.075 83.5689 154.343 83.166 154.343 82.6436C154.343 81.8309 153.672 81.2869 152.367 81.2869H149.816ZM152.426 85.597H151.017V84.3066H152.426C153.054 84.3066 153.389 84.5158 153.389 84.9557C153.389 85.4033 153.054 85.597 152.426 85.597ZM152.218 83.4269H151.017V82.196H152.218C152.807 82.196 153.128 82.3974 153.128 82.8079C153.128 83.2177 152.807 83.4269 152.218 83.4269Z" fill="#2D3274"/>
<path d="M152.516 86.5068H149.816V81.2869H152.367C153.672 81.2869 154.343 81.8309 154.343 82.6436C154.343 83.166 154.075 83.5688 153.65 83.7919C154.231 83.9786 154.604 84.4262 154.604 85.0822C154.604 85.9851 153.888 86.5068 152.516 86.5068ZM151.017 84.3066V85.5969H152.426C153.054 85.5969 153.389 85.4032 153.389 84.9556C153.389 84.5158 153.054 84.3066 152.426 84.3066H151.017ZM151.017 82.196V83.4269H152.218C152.807 83.4269 153.128 83.2177 153.128 82.8079C153.128 82.3974 152.807 82.196 152.218 82.196H151.017Z" fill="#FEFEFE"/>
<path d="M158.574 84.4709H156.918L157.746 82.4722L158.574 84.4709Z" fill="#F48C84"/>
<path d="M160.685 86.5068H159.416L158.955 85.3886H156.53L156.068 86.5068H154.83L157.157 81.2869H158.351L160.685 86.5068ZM157.746 82.4722L156.918 84.471H158.574L157.746 82.4722Z" fill="#FEFEFE"/>
<path d="M172.228 86.5068H170.818L169.148 84.4556L168.448 85.1864V86.5068H167.246V81.2869H168.448V83.7247L170.759 81.2869H172.101L169.939 83.6128L172.228 86.5068Z" fill="#FEFEFE"/>
<path d="M160.707 195.875H145.393C141.65 195.875 138.615 192.841 138.615 189.098V173.784C138.615 170.041 141.65 167.006 145.393 167.006H160.707C164.45 167.006 167.484 170.041 167.484 173.784V189.098C167.484 192.841 164.45 195.875 160.707 195.875Z" fill="#FFAC00"/>
<path d="M155.898 185.857H149.59C149.419 185.857 149.27 185.742 149.229 185.576L146.894 176.289H144.704C144.499 176.289 144.332 176.123 144.332 175.917C144.332 175.711 144.499 175.544 144.704 175.544H147.184C147.356 175.544 147.505 175.66 147.546 175.826L149.88 185.113H155.898C156.104 185.113 156.271 185.279 156.271 185.485C156.271 185.691 156.104 185.857 155.898 185.857Z" fill="#FEFEFE"/>
<path d="M151.967 187.639C151.967 188.292 151.439 188.822 150.786 188.822C150.133 188.822 149.604 188.292 149.604 187.639C149.604 186.986 150.133 186.457 150.786 186.457C151.439 186.457 151.967 186.986 151.967 187.639Z" fill="#FFAC00"/>
<path d="M150.785 186.83C150.339 186.83 149.976 187.193 149.976 187.639C149.976 188.085 150.339 188.449 150.785 188.449C151.232 188.449 151.594 188.085 151.594 187.639C151.594 187.193 151.232 186.83 150.785 186.83ZM150.785 189.194C149.928 189.194 149.23 188.497 149.23 187.639C149.23 186.782 149.928 186.084 150.785 186.084C151.643 186.084 152.34 186.782 152.34 187.639C152.34 188.497 151.643 189.194 150.785 189.194Z" fill="#FEFEFE"/>
<path d="M158.529 187.639C158.529 188.292 157.999 188.822 157.346 188.822C156.693 188.822 156.164 188.292 156.164 187.639C156.164 186.986 156.693 186.457 157.346 186.457C157.999 186.457 158.529 186.986 158.529 187.639Z" fill="#FFAC00"/>
<path d="M157.347 186.83C156.901 186.83 156.538 187.193 156.538 187.639C156.538 188.085 156.901 188.449 157.347 188.449C157.794 188.449 158.157 188.085 158.157 187.639C158.157 187.193 157.794 186.83 157.347 186.83ZM157.347 189.194C156.49 189.194 155.793 188.497 155.793 187.639C155.793 186.782 156.49 186.084 157.347 186.084C158.205 186.084 158.902 186.782 158.902 187.639C158.902 188.497 158.205 189.194 157.347 189.194Z" fill="#FEFEFE"/>
<path d="M158.364 184.143H149.375C149.169 184.143 149.002 183.976 149.002 183.77C149.002 183.564 149.169 183.397 149.375 183.397H158.051L159.039 177.837C156.872 177.837 147.784 177.838 147.706 177.837C147.5 177.835 147.335 177.667 147.336 177.462C147.337 177.257 147.504 177.091 147.709 177.091C147.727 177.084 149.029 177.092 150.785 177.092C154.274 177.092 159.484 177.091 159.484 177.091C159.595 177.091 159.699 177.141 159.77 177.225C159.84 177.309 159.87 177.421 159.851 177.53L158.73 183.835C158.699 184.013 158.544 184.143 158.364 184.143Z" fill="#FEFEFE"/>
<path d="M232.709 179.05H179.972C178.363 179.05 177.059 177.746 177.059 176.137V174.991C177.059 173.382 178.363 172.078 179.972 172.078H232.709C234.318 172.078 235.622 173.382 235.622 174.991V176.137C235.622 177.746 234.318 179.05 232.709 179.05Z" fill="#D8D9D9"/>
<path d="M203.75 192.748H179.972C178.363 192.748 177.059 191.444 177.059 189.835V188.689C177.059 187.08 178.363 185.776 179.972 185.776H203.75C205.359 185.776 206.664 187.08 206.664 188.689V189.835C206.664 191.444 205.359 192.748 203.75 192.748Z" fill="#D8D9D9"/>
<path d="M259.959 156.133C259.959 156.244 229.483 156.334 191.898 156.334C154.3 156.334 123.83 156.244 123.83 156.133C123.83 156.022 154.3 155.932 191.898 155.932C229.483 155.932 259.959 156.022 259.959 156.133Z" fill="#D8D9D9"/>
<path d="M224.5 237.385H160.736C153.829 237.385 148.229 231.785 148.229 224.877V219.955C148.229 213.048 153.829 207.448 160.736 207.448H224.5C231.407 207.448 237.007 213.048 237.007 219.955V224.877C237.007 231.785 231.407 237.385 224.5 237.385Z" fill="#2D3274"/>
<path d="M188.98 220.999C188.98 220.385 188.593 220.026 187.819 220.026H186.78V221.962H187.819C188.593 221.962 188.98 221.604 188.98 220.999ZM190.869 220.999C190.869 222.5 189.737 223.436 187.932 223.436H186.78V225.164H184.91V218.553H187.932C189.737 218.553 190.869 219.488 190.869 220.999Z" fill="#FEFEFE"/>
<path d="M195.327 222.5L194.477 220.385L193.627 222.5H195.327ZM195.875 223.879H193.079L192.56 225.164H190.652L193.57 218.553H195.412L198.34 225.164H196.395L195.875 223.879Z" fill="#FEFEFE"/>
<path d="M201.995 222.794V225.164H200.126V222.765L197.604 218.553H199.578L201.146 221.178L202.713 218.553H204.527L201.995 222.794Z" fill="#FEFEFE"/>
<path d="M146.145 39.5681C146.145 42.7499 143.565 45.3298 140.383 45.3298C137.2 45.3298 134.621 42.7499 134.621 39.5681C134.621 36.3855 137.2 33.8064 140.383 33.8064C143.565 33.8064 146.145 36.3855 146.145 39.5681Z" fill="#FFAC00"/>
<path d="M211.366 41.6611H172.422C171.256 41.6611 170.311 40.7158 170.311 39.5497V38.7193C170.311 37.5532 171.256 36.6086 172.422 36.6086H211.366C212.532 36.6086 213.478 37.5532 213.478 38.7193V39.5497C213.478 40.7158 212.532 41.6611 211.366 41.6611Z" fill="#D8D9D9"/>
<path d="M241.043 251.9H152.924V246.015H241.043V251.9Z" fill="#2C3D43"/>
<path d="M157.096 248.958C157.87 249.215 168.19 249.215 168.19 269.599C168.19 289.982 167.675 315.267 178.511 316.041C189.348 316.815 246.369 316.041 246.369 316.041V264.886C246.369 256.359 239.484 249.434 230.957 249.384L157.096 248.958Z" fill="#F6F6F5"/>
<path d="M157.096 248.958C158.199 248.961 173.589 249.007 199.956 249.086C206.605 249.11 213.887 249.137 221.704 249.166C223.658 249.175 225.646 249.184 227.667 249.194C229.677 249.237 231.751 249.086 233.826 249.498C235.89 249.888 237.906 250.707 239.695 251.922C241.477 253.143 243.029 254.754 244.195 256.64C245.364 258.523 246.142 260.683 246.425 262.938C246.562 264.067 246.565 265.213 246.56 266.342C246.561 267.477 246.561 268.619 246.562 269.766C246.563 274.356 246.565 279.042 246.567 283.813C246.568 293.355 246.569 303.234 246.571 313.353C246.571 314.273 246.571 315.192 246.571 316.041V316.24L246.372 316.243C226.43 316.482 207.464 316.661 190.23 316.524C188.076 316.507 185.949 316.47 183.85 316.425C181.746 316.347 179.692 316.371 177.626 316.089C176.6 315.868 175.645 315.406 174.829 314.777C174.035 314.121 173.376 313.339 172.823 312.502C171.74 310.81 171.059 308.948 170.521 307.107C169.475 303.403 169.013 299.711 168.688 296.174C168.373 292.633 168.236 289.224 168.156 285.973C167.988 279.47 168.118 273.586 168.042 268.433C167.941 263.297 167.143 258.84 165.552 255.583C164.774 253.947 163.773 252.669 162.794 251.689C161.781 250.73 160.746 250.143 159.884 249.748C158.123 249.029 157.071 249.017 157.096 248.958C157.21 248.974 157.405 249.005 157.828 249.069C158.308 249.159 159.029 249.306 159.916 249.674C160.79 250.06 161.843 250.643 162.874 251.603C163.873 252.584 164.895 253.87 165.691 255.515C167.318 258.792 168.142 263.271 168.264 268.428C168.361 273.592 168.251 279.468 168.437 285.966C168.526 289.213 168.671 292.616 168.995 296.146C169.326 299.671 169.796 303.35 170.839 307.015C171.374 308.836 172.052 310.671 173.109 312.315C173.648 313.128 174.286 313.88 175.044 314.506C175.823 315.103 176.725 315.537 177.696 315.745C179.67 316.01 181.774 315.992 183.859 316.065C185.955 316.108 188.081 316.142 190.234 316.156C207.461 316.272 226.427 316.081 246.367 315.841L246.169 316.041C246.169 315.192 246.169 314.273 246.169 313.353C246.17 303.234 246.172 293.355 246.173 283.813C246.175 279.042 246.176 274.356 246.178 269.766C246.178 268.619 246.179 267.477 246.18 266.342C246.186 265.203 246.183 264.083 246.051 262.984C245.777 260.784 245.02 258.676 243.881 256.835C242.744 254.992 241.23 253.417 239.49 252.221C237.745 251.032 235.776 250.229 233.76 249.845C231.745 249.44 229.689 249.583 227.68 249.537C225.67 249.523 223.692 249.509 221.747 249.496C213.969 249.435 206.724 249.378 200.107 249.326C173.648 249.099 158.202 248.967 157.096 248.958Z" fill="#2C3D43"/>
<path d="M178.773 316.041C178.773 316.041 187.694 316.041 189.605 302.882C191.884 287.205 189.605 273.469 201.732 272.953C213.859 272.436 246.369 272.953 246.369 272.953V316.041H178.773Z" fill="#D8D9D9"/>
<path d="M200.209 273.107C200.209 273.107 209.989 271.921 209.989 288.176C209.989 304.431 210.247 315.182 221.083 316.385C231.92 317.589 298.488 316.385 298.488 316.385C298.488 316.385 287.91 311.397 287.136 296.69C286.362 281.983 283.266 273.01 272.687 272.724C262.108 272.436 200.209 273.107 200.209 273.107Z" fill="#F6F6F5"/>
<path d="M200.21 273.107C200.321 273.102 200.497 273.095 200.867 273.08C201.312 273.071 201.954 273.057 202.792 273.04C204.497 273.014 206.992 272.977 210.203 272.928C216.653 272.857 225.968 272.755 237.489 272.629C243.253 272.589 249.568 272.546 256.35 272.499C259.742 272.494 263.25 272.489 266.865 272.484C268.672 272.493 270.507 272.5 272.368 272.537C274.233 272.611 276.157 272.849 277.953 273.611C279.737 274.387 281.312 275.669 282.492 277.258C283.681 278.846 284.53 280.681 285.169 282.588C286.377 286.432 286.916 290.523 287.203 294.673C287.272 295.711 287.327 296.76 287.441 297.791L287.595 299.349L287.885 300.893L288.031 301.668L288.242 302.428L288.677 303.95C289.061 304.934 289.399 305.944 289.903 306.885C291.762 310.691 294.76 314.116 298.574 316.204L299.25 316.573L298.493 316.586C297.911 316.596 297.28 316.607 296.648 316.618C278.784 316.911 261.763 317.105 246.282 317.102C238.541 317.085 231.185 317.065 224.3 316.773C222.583 316.655 220.876 316.618 219.234 316.226C217.604 315.829 216.06 315.103 214.846 314.015C213.624 312.939 212.739 311.573 212.127 310.157C211.501 308.74 211.106 307.275 210.824 305.833C210.264 302.945 210.093 300.147 209.987 297.513C209.888 294.874 209.882 292.387 209.879 290.062C209.888 288.898 209.883 287.777 209.828 286.702C209.801 286.165 209.809 285.634 209.753 285.12C209.689 284.606 209.628 284.103 209.567 283.611C209.537 283.365 209.507 283.121 209.477 282.88C209.424 282.644 209.371 282.41 209.32 282.179C209.216 281.716 209.114 281.264 209.015 280.823C208.868 280.395 208.726 279.978 208.587 279.572C208.516 279.369 208.445 279.17 208.376 278.972C208.283 278.785 208.192 278.6 208.102 278.418C207.442 276.927 206.494 275.788 205.541 274.987C204.591 274.171 203.609 273.71 202.789 273.469C201.972 273.209 201.314 273.137 200.876 273.117C200.656 273.102 200.49 273.105 200.378 273.106C200.298 273.107 200.251 273.107 200.21 273.107C200.203 273.112 200.263 273.091 200.377 273.085C200.489 273.078 200.656 273.067 200.877 273.076C201.319 273.083 201.984 273.142 202.813 273.392C203.644 273.622 204.646 274.077 205.618 274.895C206.592 275.697 207.564 276.847 208.243 278.35C209.775 281.309 210.125 285.434 210.104 290.061C210.118 292.385 210.134 294.871 210.243 297.502C210.358 300.13 210.539 302.917 211.102 305.778C211.386 307.205 211.782 308.65 212.398 310.036C213.003 311.423 213.868 312.746 215.051 313.782C216.227 314.829 217.718 315.529 219.31 315.913C220.906 316.29 222.607 316.327 224.316 316.439C231.187 316.718 238.544 316.726 246.282 316.732C261.76 316.715 278.778 316.509 296.641 316.216C297.273 316.205 297.904 316.195 298.486 316.185L298.403 316.567C294.458 314.407 291.447 310.94 289.544 307.061C289.034 306.103 288.689 305.077 288.3 304.076L287.858 302.53L287.645 301.758L287.497 300.972L287.204 299.405L287.048 297.827C286.932 296.773 286.879 295.736 286.811 294.701C286.529 290.566 285.992 286.5 284.805 282.707C284.177 280.827 283.345 279.029 282.191 277.485C281.045 275.939 279.531 274.704 277.807 273.95C276.068 273.21 274.199 272.974 272.36 272.898C270.504 272.858 268.67 272.847 266.863 272.835C263.249 272.834 259.742 272.831 256.351 272.83C249.569 272.859 243.255 272.886 237.49 272.912C225.971 272.983 216.654 273.042 210.205 273.083C206.993 273.099 204.498 273.112 202.793 273.12C201.953 273.12 201.31 273.12 200.865 273.12C200.495 273.113 200.321 273.109 200.21 273.107Z" fill="#2C3D43"/>
<path d="M202.786 273.08C202.786 273.128 202.004 273.048 200.624 273.241C199.268 273.433 197.23 274.027 195.438 275.767C193.618 277.459 192.264 280.224 191.584 283.433C190.884 286.656 190.846 290.31 190.679 294.13C190.519 297.95 190.267 301.624 189.434 304.864C189.033 306.487 188.441 307.97 187.836 309.318C187.221 310.665 186.53 311.88 185.728 312.867C184.93 313.857 184.008 314.585 183.121 315.067C182.226 315.543 181.379 315.766 180.688 315.908C179.991 316.019 179.445 316.068 179.074 316.057C178.703 316.06 178.51 316.055 178.51 316.041C178.51 316.027 178.703 316.006 179.07 315.976C179.437 315.962 179.975 315.887 180.657 315.755C181.331 315.591 182.153 315.351 183.013 314.87C183.864 314.383 184.743 313.664 185.506 312.689C186.273 311.716 186.937 310.519 187.532 309.181C188.119 307.836 188.69 306.375 189.074 304.774C189.877 301.574 190.117 297.929 190.277 294.113C190.445 290.303 190.492 286.625 191.222 283.354C191.932 280.1 193.343 277.277 195.243 275.56C197.114 273.796 199.223 273.233 200.604 273.085C200.955 273.043 201.266 273.019 201.538 273.021C201.81 273.011 202.039 273.01 202.224 273.027C202.594 273.048 202.787 273.066 202.786 273.08Z" fill="#2C3D43"/>
<path d="M235.257 260.768C235.257 260.879 222.755 260.969 207.335 260.969C191.912 260.969 179.412 260.879 179.412 260.768C179.412 260.658 191.912 260.567 207.335 260.567C222.755 260.567 235.257 260.658 235.257 260.768Z" fill="#D8D9D9"/>
<path d="M236.41 269.076C236.41 269.187 224.321 269.277 209.412 269.277C194.498 269.277 182.412 269.187 182.412 269.076C182.412 268.965 194.498 268.875 209.412 268.875C224.321 268.875 236.41 268.965 236.41 269.076Z" fill="#D8D9D9"/>
<path d="M274.486 285.228C274.486 285.34 261.984 285.43 246.566 285.43C231.142 285.43 218.643 285.34 218.643 285.228C218.643 285.118 231.142 285.028 246.566 285.028C261.984 285.028 274.486 285.118 274.486 285.228Z" fill="#D8D9D9"/>
<path d="M275.178 294.921C275.178 295.032 263.709 295.122 249.565 295.122C235.416 295.122 223.949 295.032 223.949 294.921C223.949 294.809 235.416 294.72 249.565 294.72C263.709 294.72 275.178 294.809 275.178 294.921Z" fill="#D8D9D9"/>
<path d="M228.517 89.0457H223.079C221.737 89.0457 220.648 87.9576 220.648 86.6156V81.178C220.648 79.8352 221.737 78.7471 223.079 78.7471H228.517C229.859 78.7471 230.947 79.8352 230.947 81.178V86.6156C230.947 87.9576 229.859 89.0457 228.517 89.0457Z" fill="#FEFEFE"/>
<path d="M56.8574 42.473C58.0351 34.8445 64.8741 29.4008 72.5728 29.9618L73.3376 30.0174C81.5511 31.1001 85.2199 38.68 83.9103 46.8603L81.051 75.8957L80.9129 81.8967L61.3512 83.6709L61.7718 70.9999C61.7718 70.9999 53.9318 69.1887 54.4118 61.2538C54.6433 57.4214 55.7623 49.5683 56.8574 42.473Z" fill="#F8B69C"/>
<path d="M61.7073 70.9835C61.7073 70.9835 66.7483 71.6565 72.317 68.6992C72.317 68.6992 69.5604 74.4223 61.7012 73.132L61.7073 70.9835Z" fill="#F59676"/>
<path d="M59.93 50.3801C59.8652 50.9767 60.3174 51.523 60.9387 51.6018C61.5591 51.6805 62.1155 51.2622 62.1804 50.6664C62.2444 50.0699 61.7937 49.5227 61.1733 49.444C60.5513 49.3645 59.9948 49.7836 59.93 50.3801Z" fill="#2C3D43"/>
<path d="M58.2804 46.4768C58.41 46.6342 59.3137 46.0616 60.5315 46.1542C61.7501 46.2283 62.5982 46.9205 62.741 46.7809C62.8112 46.7191 62.6877 46.4421 62.3188 46.1303C61.9561 45.8201 61.3225 45.4982 60.5632 45.4458C59.8046 45.3948 59.1455 45.6279 58.7573 45.8872C58.3622 46.1473 58.2156 46.405 58.2804 46.4768Z" fill="#2C3D43"/>
<path d="M71.346 51.4688C71.2812 52.0646 71.7327 52.611 72.3547 52.6905C72.9752 52.7692 73.5308 52.3509 73.5956 51.7544C73.6604 51.1586 73.209 50.6114 72.5885 50.532C71.9673 50.4532 71.4101 50.8723 71.346 51.4688Z" fill="#2C3D43"/>
<path d="M70.2371 47.5755C70.3667 47.7338 71.272 47.1619 72.489 47.2537C73.7068 47.3278 74.5557 48.0201 74.6984 47.8804C74.7687 47.8186 74.646 47.5424 74.2755 47.2298C73.9136 46.9204 73.28 46.5978 72.5206 46.5461C71.762 46.4944 71.103 46.7274 70.7148 46.9867C70.3204 47.2468 70.173 47.5045 70.2371 47.5755Z" fill="#2C3D43"/>
<path d="M65.1596 56.2891C65.1704 56.2204 64.4226 56.0337 63.2071 55.7875C62.8985 55.7335 62.6083 55.6501 62.5712 55.4333C62.5141 55.2033 62.6685 54.8776 62.846 54.5265C63.1933 53.7949 63.5567 53.0286 63.9387 52.2245C65.4621 48.9446 66.5888 46.2389 66.4561 46.1788C66.3234 46.1186 64.9813 48.7278 63.458 52.0076C63.0898 52.8171 62.7379 53.5889 62.403 54.3266C62.2595 54.6716 62.028 55.0582 62.153 55.5359C62.2193 55.7744 62.4354 55.9604 62.6307 56.0283C62.8259 56.1039 63.0011 56.1194 63.1539 56.1402C64.384 56.2961 65.1496 56.3578 65.1596 56.2891Z" fill="#2C3D43"/>
<path d="M68.6829 57.3927C68.4862 57.3672 68.3874 58.6892 67.1866 59.545C65.9881 60.4047 64.5897 60.1532 64.5658 60.3376C64.5411 60.4194 64.8606 60.617 65.4548 60.6772C66.0367 60.7397 66.9026 60.6139 67.6373 60.0907C68.3696 59.5651 68.7223 58.8188 68.8072 58.2794C68.8982 57.7299 68.774 57.3919 68.6829 57.3927Z" fill="#2C3D43"/>
<path d="M70.2713 42.7787C70.3678 43.1182 71.5956 43.0503 73.0117 43.3266C74.4348 43.5743 75.5569 44.0767 75.7683 43.7935C75.8625 43.6577 75.685 43.3312 75.242 42.977C74.8037 42.6228 74.0883 42.2647 73.2371 42.1073C72.3859 41.9506 71.5902 42.0293 71.0546 42.2037C70.5144 42.3766 70.2312 42.6174 70.2713 42.7787Z" fill="#2C3D43"/>
<path d="M58.9851 42.9831C59.1788 43.2756 60.0392 43.0495 61.0494 43.1089C62.0619 43.1336 62.9 43.4307 63.1177 43.156C63.2141 43.0217 63.0999 42.7346 62.7457 42.4452C62.3969 42.1574 61.7965 41.8996 61.1011 41.8703C60.4066 41.8418 59.7869 42.0486 59.4149 42.3063C59.0383 42.5649 58.9002 42.8411 58.9851 42.9831Z" fill="#2C3D43"/>
<path d="M82.0742 54.484C82.2131 53.2639 83.3383 52.3749 84.5491 52.5794C86.017 52.8279 87.6013 53.7871 87.281 56.8355C86.7138 62.2429 81.4013 60.5575 81.4082 60.4008C81.4128 60.2951 81.8165 56.7444 82.0742 54.484Z" fill="#F8B69C"/>
<path d="M82.7979 58.4901C82.8234 58.4754 82.8851 58.5665 83.0364 58.656C83.1846 58.7432 83.4462 58.8204 83.7394 58.744C84.3329 58.5943 84.9086 57.7384 85.0375 56.7661C85.1031 56.276 85.0491 55.796 84.9155 55.3901C84.7921 54.9772 84.5652 54.6739 84.2827 54.5929C84.0034 54.4964 83.7819 54.6469 83.7001 54.792C83.6113 54.9355 83.6345 55.0474 83.6044 55.0536C83.5882 55.066 83.4979 54.951 83.565 54.7318C83.599 54.6268 83.6754 54.5064 83.8135 54.4154C83.9547 54.3235 84.1508 54.2896 84.3491 54.3328C84.7627 54.4053 85.0977 54.8283 85.2451 55.2743C85.4149 55.725 85.4866 56.2652 85.4133 56.8162C85.2644 57.902 84.5991 58.8628 83.7935 59.0071C83.403 59.0658 83.0974 58.9176 82.9469 58.7733C82.7941 58.6221 82.7779 58.4978 82.7979 58.4901Z" fill="#F59676"/>
<path d="M86.4063 48.9707C85.9595 50.5211 86.1223 53.0956 84.7347 52.746C81.9843 52.053 82.6441 57.6905 81.3237 57.1379C80.0218 56.5938 78.8712 54.9886 78.7894 51.5213C78.6859 47.1178 80.4586 43.9383 78.723 38.8951C77.5608 36.8716 75.4902 35.4941 73.1573 35.4401C70.8244 35.386 68.5702 36.5668 67.3153 38.5347C67.0684 36.9982 66.3206 34.6807 64.9515 33.9406C63.5825 33.2005 61.7551 33.2877 60.5759 34.3033C59.3974 35.3197 59.0749 37.2598 60.0032 38.5084C59.3766 38.7122 58.628 38.4436 58.2746 37.8864C58.2167 38.6034 58.4721 39.3396 58.9614 39.8659C58.3996 39.7239 57.8933 39.372 57.5661 38.8935C57.702 39.5294 57.8393 40.1653 57.9759 40.8012C55.6569 40.863 53.388 38.618 52.7436 36.6193C51.7674 33.591 52.5206 30.5365 54.2122 27.8424C55.9046 25.1476 58.9352 23.2491 62.117 23.2777C65.2988 23.307 67.9636 24.8142 69.1906 27.7498C71.2558 26.2882 75.4385 25.7819 77.7421 26.8284C80.045 27.8756 81.7157 30.2 81.9727 32.7166C83.4128 32.1077 85.1422 32.5808 86.3554 33.5671C86.4565 33.6497 86.5552 33.7345 86.6502 33.8225C88.314 35.359 88.9954 37.6966 88.571 39.9215C88.402 40.8043 88.0979 41.7173 87.9173 42.4249C87.3833 44.5287 86.4063 48.9707 86.4063 48.9707Z" fill="#2C3D43"/>
<path d="M57.9134 37.7452C57.908 37.7514 57.8447 37.7012 57.729 37.5986C57.6124 37.4975 57.4496 37.3339 57.2729 37.0985C56.9133 36.6386 56.4888 35.8545 56.3646 34.7957C56.2341 33.7577 56.4765 32.384 57.445 31.326C58.371 30.2757 59.9384 29.5287 61.5807 29.7633C62.3917 29.8775 63.1388 30.2031 63.7747 30.6237C64.4129 31.0459 64.9516 31.5583 65.3907 32.1016C66.2797 33.1851 66.789 34.3666 67.0507 35.383C67.3169 36.404 67.3447 37.2652 67.3208 37.8494C67.3007 38.1419 67.2822 38.3688 67.2536 38.5208C67.2305 38.6736 67.2143 38.7523 67.2058 38.7515C67.1394 38.7577 67.4381 37.4373 66.887 35.4277C66.61 34.4361 66.0953 33.2893 65.2209 32.242C64.3643 31.2072 63.0994 30.2271 61.5475 30.0002C59.9986 29.7771 58.4999 30.4794 57.6086 31.4734C56.6794 32.472 56.4294 33.7708 56.5328 34.7787C56.6316 35.8028 57.019 36.5768 57.3485 37.0437C57.6804 37.5168 57.9319 37.7267 57.9134 37.7452Z" fill="#436069"/>
<path d="M56.8528 40.1679C56.8459 40.1717 56.7895 40.0807 56.6892 39.9039C56.5889 39.7264 56.4438 39.4648 56.2648 39.1222C55.9144 38.4353 55.3881 37.4375 54.9914 36.1016C54.7993 35.4349 54.6495 34.6778 54.6357 33.8544C54.6233 33.0356 54.7375 32.1412 55.1049 31.2815C55.466 30.421 56.1143 29.6292 56.9624 29.0705C57.8105 28.5156 58.8331 28.1614 59.9058 28.0958C60.98 28.024 62.028 28.2347 62.9688 28.5858C63.9103 28.9439 64.7522 29.4463 65.4776 30.0143C66.9347 31.151 67.8916 32.6212 68.2188 33.9864C68.5568 35.3546 68.3407 36.5238 68.0583 37.2415C67.9217 37.6073 67.7589 37.865 67.6531 38.0387C67.5351 38.2061 67.4695 38.2903 67.4625 38.2856C67.4386 38.2717 67.7156 37.933 67.9711 37.2091C68.2219 36.496 68.404 35.3523 68.0544 34.0288C67.7164 32.7099 66.7726 31.2907 65.3418 30.1887C63.9295 29.0959 62.0072 28.2092 59.9212 28.335C58.8902 28.3975 57.9055 28.7371 57.0921 29.2665C56.2779 29.7997 55.6597 30.5475 55.3078 31.3687C54.9497 32.189 54.8309 33.0541 54.834 33.8521C54.8394 34.6547 54.9752 35.3955 55.1543 36.0561C55.5239 37.3773 56.024 38.3829 56.3481 39.0805C56.5063 39.4108 56.6337 39.6763 56.7317 39.8816C56.8181 40.066 56.8605 40.164 56.8528 40.1679Z" fill="#436069"/>
<path d="M84.4952 45.4673C84.4674 45.4318 84.9945 45.0614 85.6536 44.2788C86.3111 43.5056 87.0658 42.2685 87.3822 40.7443C87.6979 39.2194 87.498 37.784 87.2016 36.8132C86.9092 35.8331 86.5727 35.2828 86.612 35.262C86.6252 35.255 86.7208 35.3839 86.8652 35.6363C87.0102 35.8879 87.1931 36.2691 87.3629 36.7622C87.7071 37.7392 87.9433 39.2179 87.6168 40.7929C87.2896 42.3673 86.4855 43.6298 85.7809 44.39C85.429 44.7743 85.1095 45.0513 84.8764 45.2242C84.6434 45.3986 84.5045 45.4789 84.4952 45.4673Z" fill="#436069"/>
<path d="M79.5628 45.3114C79.5527 45.2883 79.8336 45.191 80.2619 44.8986C80.6825 44.6068 81.2606 44.0867 81.6279 43.2532L81.8563 42.7354L81.8054 43.2995C81.7367 44.062 81.658 44.9402 81.5723 45.8925L81.3956 45.7868C82.0346 45.3531 82.6566 44.7666 83.1659 44.0535C83.815 43.1529 84.2093 42.1458 84.376 41.2005C84.5419 40.2528 84.4941 39.3722 84.3606 38.6553C84.0851 37.2129 83.5449 36.4374 83.595 36.4158C83.602 36.4119 83.6375 36.4574 83.6977 36.5485C83.7602 36.6388 83.8404 36.7785 83.9384 36.9621C84.1306 37.3302 84.3668 37.8913 84.5265 38.6229C84.6847 39.3514 84.7526 40.2566 84.5936 41.2375C84.4331 42.216 84.0311 43.2625 83.3604 44.1932C82.8341 44.9302 82.1874 45.5337 81.5222 45.9759L81.32 46.1102L81.3454 45.8702C81.4465 44.9194 81.5399 44.0427 81.6202 43.2818L81.7977 43.3289C81.3902 44.1971 80.7682 44.7133 80.3191 44.9858C80.0914 45.1239 79.9008 45.2065 79.7696 45.2559C79.6376 45.3022 79.5658 45.3199 79.5628 45.3114Z" fill="#436069"/>
<path d="M78.0605 33.9053C78.0126 33.9385 77.7819 33.1335 76.8064 32.3417C76.3233 31.9574 75.6589 31.5947 74.8578 31.4357C74.0599 31.2714 73.1346 31.3462 72.2502 31.6711C71.3658 32.0022 70.6149 32.5393 70.0662 33.1467C69.5121 33.7525 69.1416 34.4069 68.8908 34.9764C68.4 36.1294 68.3491 36.9266 68.3005 36.9165C68.2873 36.915 68.2866 36.7174 68.339 36.3655C68.3915 36.0144 68.5027 35.5074 68.7342 34.9116C68.9711 34.3197 69.3361 33.6359 69.9026 32.9993C70.4628 32.3595 71.2431 31.7915 72.1668 31.4465C73.0913 31.1062 74.0645 31.0344 74.9018 31.2189C75.7414 31.3987 76.4267 31.7954 76.9145 32.2113C77.4014 32.6342 77.7009 33.0703 77.8629 33.3882C77.9424 33.5487 77.998 33.6753 78.0257 33.7656C78.0558 33.8543 78.0682 33.9022 78.0605 33.9053Z" fill="#436069"/>
<path d="M76.7929 29.7711C76.7682 29.8159 76.2658 29.4169 75.2996 29.1946C74.3512 28.9654 72.9065 29.0009 71.5807 29.7202C70.2549 30.4456 69.4075 31.5924 68.9468 32.4582C68.4768 33.3334 68.3263 33.9415 68.2831 33.9284C68.2692 33.9245 68.2924 33.7702 68.3665 33.4978C68.4405 33.2253 68.5748 32.8372 68.7955 32.3803C69.2269 31.4766 70.082 30.2689 71.4657 29.5095C72.8556 28.7555 74.3689 28.7493 75.3398 29.0302C75.8321 29.1668 76.2064 29.349 76.4449 29.5025C76.6841 29.6546 76.8007 29.7603 76.7929 29.7711Z" fill="#436069"/>
<path d="M59.3739 285.323L59.9195 300.164C59.9195 300.164 45.0175 305.702 44.8516 308.455L73.6655 308.431L73.7643 285.271L59.3739 285.323Z" fill="#2C3D43"/>
<path d="M68.8279 298.907C69.3859 299.059 69.7718 299.686 69.6429 300.25C69.514 300.814 68.8804 301.212 68.3194 301.069C67.7591 300.927 67.2729 300.189 67.4643 299.644C67.6557 299.098 68.4251 298.671 68.9352 298.944" fill="#D8D9D9"/>
<path d="M73.6653 308.431L73.5843 306.096L45.9874 306.993C45.9874 306.993 44.7056 307.551 44.8514 308.455L73.6653 308.431Z" fill="#2C3D43"/>
<path d="M59.452 300.017C59.4566 300.158 60.1604 300.222 60.8527 300.673C61.5573 301.107 61.9146 301.717 62.0442 301.66C62.1739 301.633 61.9632 300.792 61.1151 300.26C60.2716 299.72 59.4211 299.888 59.452 300.017Z" fill="#FEFEFE"/>
<path d="M56.4309 301.27C56.3992 301.406 57.0081 301.645 57.4866 302.24C57.9828 302.821 58.104 303.464 58.2437 303.457C58.3764 303.48 58.4729 302.656 57.864 301.927C57.262 301.194 56.434 301.136 56.4309 301.27Z" fill="#FEFEFE"/>
<path d="M54.7184 304.889C54.8457 304.918 55.0417 304.215 54.6798 303.445C54.3225 302.672 53.6596 302.369 53.5994 302.486C53.5207 302.602 53.9474 303.015 54.2353 303.652C54.5378 304.282 54.5779 304.875 54.7184 304.889Z" fill="#FEFEFE"/>
<path d="M59.7042 296.622C59.7637 296.75 60.4088 296.555 61.2037 296.608C62.0001 296.645 62.6198 296.912 62.6924 296.791C62.7742 296.689 62.1691 296.169 61.2315 296.119C60.2946 296.063 59.6348 296.511 59.7042 296.622Z" fill="#FEFEFE"/>
<path d="M92.4387 286.681L93.5855 304.613L90.4029 319.056C90.1737 320.097 90.8737 321.115 91.9279 321.274C92.5182 321.361 93.1109 321.163 93.5246 320.733C96.1561 317.993 105.788 307.866 105.631 306.557C105.448 305.043 105.677 287.563 105.677 287.563L92.4387 286.681Z" fill="#2C3D43"/>
<path d="M91.9277 321.274L105.581 305.346L105.612 306.107C105.639 306.764 105.434 307.411 105.029 307.929C103.944 309.316 100.864 313.078 93.5785 320.731C93.1548 321.176 92.5328 321.381 91.9277 321.274Z" fill="#2C3D43"/>
<path d="M102.288 301.607C101.951 301.607 101.608 301.452 101.415 301.172C101.124 300.751 101.209 300.124 101.579 299.775C101.734 299.591 101.98 299.509 102.239 299.509C102.568 299.509 102.916 299.643 103.117 299.874C103.477 300.286 103.308 301.106 102.865 301.428C102.698 301.55 102.494 301.607 102.288 301.607Z" fill="#9FA9AB"/>
<path d="M95.7094 313.261C95.6098 313.315 95.1668 312.391 94.0779 311.929C93.0037 311.435 92.0221 311.729 91.995 311.618C91.9781 311.575 92.1996 311.426 92.6171 311.35C93.0307 311.271 93.6404 311.305 94.2377 311.568C94.8342 311.833 95.2695 312.261 95.4902 312.62C95.7148 312.98 95.7534 313.244 95.7094 313.261Z" fill="#FEFEFE"/>
<path d="M94.5292 315.717C94.4474 315.799 93.847 315.239 92.9078 315.011C91.9732 314.762 91.1783 314.967 91.1452 314.857C91.0896 314.767 91.9377 314.35 93.005 314.628C94.0746 314.894 94.621 315.665 94.5292 315.717Z" fill="#FEFEFE"/>
<path d="M97.9624 310.082C97.8814 310.171 96.963 309.305 95.533 308.822C94.1107 308.318 92.8536 308.43 92.8443 308.311C92.8119 308.216 94.1354 307.912 95.6619 308.45C97.1938 308.971 98.0465 310.028 97.9624 310.082Z" fill="#FEFEFE"/>
<path d="M98.0714 304.602C98.0282 304.712 97.0195 304.338 95.7269 304.344C94.4343 304.333 93.4241 304.703 93.3809 304.593C93.3284 304.507 94.3386 303.941 95.7277 303.949C97.1168 303.946 98.1254 304.516 98.0714 304.602Z" fill="#FEFEFE"/>
<path d="M97.867 299.33C97.8153 299.436 96.7935 298.879 95.433 298.996C94.0701 299.085 93.144 299.79 93.0776 299.692C93.046 299.656 93.2335 299.422 93.6371 299.166C94.0377 298.91 94.6705 298.66 95.4036 298.603C96.1368 298.549 96.7997 298.701 97.2342 298.894C97.6725 299.086 97.8924 299.289 97.867 299.33Z" fill="#FEFEFE"/>
<path d="M95.4236 297.992C95.4013 297.994 95.3503 297.754 95.3712 297.314C95.3935 296.878 95.4931 296.232 95.8381 295.513C96.0186 295.172 96.2031 294.735 96.6939 294.478C96.9385 294.348 97.3121 294.379 97.5343 294.608C97.755 294.831 97.8337 295.123 97.8515 295.408C97.8793 296.547 96.9463 297.69 95.6714 297.906C94.3903 298.1 93.1941 297.413 92.6447 296.45C92.5227 296.2 92.4324 295.891 92.5598 295.582C92.684 295.27 93.0436 295.134 93.3029 295.167C93.8393 295.225 94.1881 295.518 94.5107 295.733C95.1497 296.205 95.5541 296.713 95.7925 297.078C96.0325 297.446 96.1143 297.676 96.0943 297.686C96.0333 297.736 95.6042 296.824 94.3502 295.962C94.0353 295.764 93.6703 295.513 93.2852 295.494C93.0977 295.483 92.9395 295.563 92.8793 295.717C92.816 295.865 92.8631 296.089 92.9688 296.285C93.4326 297.072 94.5269 297.698 95.6073 297.517C96.6839 297.345 97.5019 296.34 97.4888 295.422C97.4818 295.201 97.4139 294.982 97.2904 294.855C97.1693 294.731 96.991 294.703 96.8282 294.776C96.484 294.931 96.2656 295.318 96.0866 295.64C95.3843 296.99 95.5047 298.007 95.4236 297.992Z" fill="#FEFEFE"/>
<path d="M46.7487 159.879C46.7487 159.879 44.3694 168.286 44.9235 178.607C45.1381 182.6 57.9657 297.992 57.9657 297.992L74.2854 296.524L71.4647 188.639L72.1485 189.249C72.1485 189.249 81.8707 234.639 82.5143 241.815C83.0931 248.265 90.8535 300.077 90.8535 300.077L106.69 299.325L103.102 233.826L98.2984 174.362L96.3753 157.041L46.7487 159.879Z" fill="#2D3274"/>
<path d="M74.6034 179.336C74.6134 179.359 74.3433 179.51 73.8363 179.746C73.3269 179.972 72.5784 180.317 71.5682 180.481C71.0642 180.561 70.4924 180.575 69.8943 180.454C69.3008 180.335 68.6696 180.067 68.1641 179.574C67.6594 179.081 67.3422 178.399 67.1462 177.695C66.9486 176.984 66.8429 176.248 66.7102 175.498C66.1993 172.493 65.8705 169.753 65.6876 167.765C65.5958 166.771 65.5387 165.965 65.5101 165.408C65.4823 164.85 65.4808 164.541 65.507 164.539C65.534 164.537 65.5857 164.842 65.6591 165.394C65.7401 166.028 65.8396 166.81 65.9577 167.736C66.2093 169.711 66.5805 172.438 67.0891 175.434C67.3484 176.915 67.5127 178.422 68.4141 179.323C69.3147 180.207 70.5935 180.328 71.5311 180.212C72.5004 180.089 73.2567 179.79 73.7792 179.608C74.3008 179.415 74.5926 179.311 74.6034 179.336Z" fill="#436069"/>
<path d="M69.461 165.152C69.4549 165.135 69.5807 165.06 69.8369 165.05C70.09 165.037 70.4728 165.123 70.8455 165.4C71.2028 165.676 71.5779 166.165 71.5779 166.82C71.5925 167.485 71.06 168.125 70.3786 168.353C69.7041 168.599 68.8876 168.43 68.4856 167.9C68.0781 167.386 68.0673 166.77 68.1753 166.332C68.295 165.883 68.5411 165.577 68.7472 165.43C68.954 165.279 69.0983 165.259 69.1053 165.276C69.1531 165.327 68.5867 165.569 68.4416 166.389C68.3768 166.776 68.4285 167.292 68.7572 167.672C69.0721 168.061 69.6925 168.187 70.2521 167.99C70.8123 167.796 71.219 167.311 71.2237 166.81C71.2445 166.31 70.9636 165.873 70.6726 165.61C70.0491 165.059 69.4541 165.222 69.461 165.152Z" fill="#436069"/>
<path d="M98.0706 173.293C98.0722 173.319 97.8515 173.348 97.4502 173.375C97.0489 173.409 96.4647 173.406 95.7462 173.355C94.31 173.258 92.3251 172.864 90.3063 171.962C88.2898 171.053 86.6746 169.833 85.6474 168.824C85.1311 168.322 84.7406 167.888 84.4999 167.565C84.2537 167.246 84.1279 167.063 84.1487 167.046C84.2012 167.003 84.7684 167.685 85.8311 168.625C86.8899 169.566 88.4912 170.722 90.4637 171.611C92.4378 172.492 94.3656 172.92 95.7724 173.084C97.1816 173.253 98.0683 173.224 98.0706 173.293Z" fill="#436069"/>
<path d="M54.0832 165.131C54.1217 165.152 53.7961 165.88 53.0977 166.962C52.4016 168.042 51.298 169.455 49.8572 170.796C48.4117 172.135 46.9208 173.131 45.7917 173.744C44.6612 174.361 43.911 174.632 43.8933 174.592C43.867 174.535 44.5732 174.178 45.6544 173.51C46.7356 172.843 48.174 171.83 49.5948 170.515C51.0117 169.196 52.1284 167.836 52.8739 166.807C53.6201 165.779 54.0284 165.101 54.0832 165.131Z" fill="#436069"/>
<path d="M37.8885 99.9487C35.4607 107.024 35.7308 106.422 31.1954 127.564C30.3588 131.465 31.8351 137.563 35.3526 139.446C38.8694 141.329 45.1219 139.262 47.2148 135.866L50.585 103.952L37.8885 99.9487Z" fill="#F8B69C"/>
<path d="M96.3876 138.296L96.2942 121.482L96.3606 119.835L113.426 115.851C113.426 115.851 110.076 104.813 107.003 92.9509C105.228 86.1026 99.3217 82.6599 97.8956 81.9167V81.9074L97.5846 81.7608L97.5815 81.7601L81.1584 74.8083C77.843 78.3467 73.0066 81.1843 68.3524 79.8246C65.8072 79.0814 63.1949 77.2022 61.599 75.2143L50.5286 79.0119L50.5278 79.0166C47.6871 80.0545 44.6766 82.0356 42.8754 85.2205C40.5587 89.3168 33.1601 108.105 33.0312 108.525L46.7394 109.756C46.7394 109.756 44.3069 154.219 45.1682 162.163C45.1682 162.163 48.4966 164.465 56.8992 164.862C73.9312 165.666 99.2839 164.456 99.2839 164.456C98.8865 161.89 98.4697 157.605 98.2359 155.435L96.3876 138.296Z" fill="#FFAC00"/>
<path d="M47.2052 93.1953C47.2739 93.1976 46.9096 103.802 46.391 116.876C45.8724 129.956 45.3963 140.552 45.3268 140.55C45.2574 140.547 45.6224 129.946 46.141 116.866C46.6588 103.792 47.1358 93.1922 47.2052 93.1953Z" fill="#2C3D43"/>
<path d="M94.5106 96.1597C94.3894 96.1658 94.7336 105.575 95.2808 117.175C95.8272 128.777 96.3689 138.176 96.4901 138.17C96.612 138.164 96.267 128.757 95.7207 117.154C95.1743 105.555 94.6325 96.1543 94.5106 96.1597Z" fill="#2C3D43"/>
<path d="M113.502 123.853C112.946 119.68 112.485 115.989 112.485 115.989L98.8393 119.157L99.422 121.355L88.874 110.641L87.2032 110.785L81.8945 116.307C81.8945 116.307 86.5226 126.083 89.2144 129.89C92.7164 134.842 98.2243 142.391 105.764 141.756C112.733 141.171 114.499 131.341 113.502 123.853Z" fill="#F8B69C"/>
<path d="M106.11 126.349C106.192 126.268 104.948 124.913 103.11 123.595C101.278 122.271 99.5975 121.522 99.5466 121.625C99.4871 121.738 101.051 122.65 102.853 123.952C104.66 125.248 106.021 126.442 106.11 126.349Z" fill="#F59676"/>
<path d="M70.457 96.6574L75.1445 94.2627L81.2249 96.1959L84.2401 98.9733L88.8735 110.641L92.5855 115.338L86.0359 123.87L81.894 116.307C81.894 116.307 78.3773 114.771 76.9712 112.553C75.5651 110.334 74.93 109.127 74.93 109.127C74.93 109.127 72.8988 108.152 72.5229 107.216C72.1471 106.28 72.1641 105.551 72.1641 105.551L73.1928 104.052C73.1928 104.052 73.0925 102.658 73.5015 102.138C73.9113 101.617 74.3118 101.494 74.3118 101.494C74.3118 101.494 74.0093 100.228 74.4839 99.7751C74.9577 99.3229 77.2907 98.4894 77.2907 98.4894L75.2456 97.328C75.2456 97.328 70.7094 98.7341 70.457 96.6574Z" fill="#F8B69C"/>
<path d="M77.4172 100.893C77.4164 100.953 76.6979 100.97 75.8398 101.155C74.9801 101.332 74.3156 101.606 74.2917 101.552C74.267 101.508 74.9122 101.143 75.7989 100.958C76.6841 100.769 77.4218 100.842 77.4172 100.893Z" fill="#F59676"/>
<path d="M76.011 103.513C76.0079 103.57 75.3951 103.57 74.655 103.684C73.9142 103.794 73.3292 103.976 73.3091 103.922C73.2883 103.874 73.8594 103.6 74.6249 103.486C75.3897 103.368 76.0164 103.461 76.011 103.513Z" fill="#F59676"/>
<path d="M74.0282 107.613C73.9727 107.611 73.9333 107.344 73.9402 107.015C73.9472 106.687 73.9974 106.42 74.0522 106.422C74.1077 106.423 74.1471 106.69 74.1401 107.019C74.134 107.348 74.083 107.613 74.0282 107.613Z" fill="#F59676"/>
<path d="M74.9239 108.878C74.8668 108.879 74.9039 108.31 74.491 107.798C74.0935 107.273 73.5325 107.172 73.5472 107.117C73.5487 107.093 73.6953 107.078 73.9184 107.149C74.1398 107.218 74.4269 107.391 74.6492 107.675C74.8699 107.958 74.9694 108.279 74.9826 108.51C74.9972 108.743 74.9471 108.882 74.9239 108.878Z" fill="#F59676"/>
<path d="M78.5916 105.137C78.5392 105.162 78.3401 104.642 77.7736 104.336C77.2164 104.014 76.67 104.118 76.6623 104.06C76.6561 104.037 76.7843 103.972 77.0135 103.956C77.2396 103.938 77.5645 103.989 77.8716 104.161C78.1788 104.333 78.3925 104.582 78.4967 104.784C78.6024 104.987 78.614 105.131 78.5916 105.137Z" fill="#F59676"/>
<path d="M80.7258 102.543C80.6718 102.566 80.4889 102.081 79.9765 101.764C79.4726 101.432 78.9555 101.47 78.9532 101.411C78.9501 101.387 79.0759 101.34 79.2912 101.343C79.505 101.345 79.8052 101.416 80.0845 101.595C80.3631 101.773 80.5537 102.015 80.6456 102.208C80.7397 102.402 80.749 102.536 80.7258 102.543Z" fill="#F59676"/>
<path d="M82.1583 101.272C82.1282 101.266 82.1421 101.11 82.1089 100.869C82.0773 100.63 81.9831 100.302 81.767 100.011C81.5494 99.7188 81.2631 99.5336 81.0431 99.4348C80.8224 99.3337 80.6681 99.3021 80.6719 99.2712C80.6735 99.2473 80.8386 99.2272 81.0925 99.3021C81.3434 99.3739 81.6814 99.5599 81.9275 99.8909C82.173 100.222 82.254 100.599 82.2501 100.86C82.2486 101.125 82.1814 101.277 82.1583 101.272Z" fill="#F59676"/>
<path d="M80.1725 98.2224C80.1764 98.2926 79.1893 98.3088 78.0078 98.4887C76.8232 98.6723 75.9303 99.0867 75.9049 99.0289C75.8786 98.9887 76.7569 98.4809 77.9754 98.2911C78.5789 98.1915 79.1315 98.1746 79.5289 98.1746C79.9263 98.1761 80.1717 98.1946 80.1725 98.2224Z" fill="#F59676"/>
<path d="M45.5293 137.969L52.1769 118.226C53.1624 118.584 54.1927 118.692 55.2399 118.692C56.5611 118.692 57.9093 118.52 59.2297 118.455C59.4674 118.442 59.7082 118.436 59.9505 118.436C62.1253 118.436 64.4296 118.946 65.6636 120.685C66.4539 121.799 66.6491 123.216 66.8212 124.571C66.9485 125.577 67.0489 126.695 66.4469 127.51C65.9769 128.147 65.1821 128.444 64.4219 128.664C62.6292 129.183 60.7655 129.457 58.8987 129.477C58.7636 129.479 58.6263 129.48 58.4889 129.48C58.3994 129.48 58.3091 129.479 58.2188 129.479C58.1293 129.479 58.0397 129.479 57.9495 129.479C56.443 129.479 54.9011 129.527 53.7327 130.424C52.7048 131.215 52.2117 132.495 51.5318 133.598C50.2013 135.761 47.9957 137.367 45.5293 137.969Z" fill="#CC6053"/>
<path d="M49.6974 101.461L51.7626 123.432C51.8768 124.65 52.3498 125.498 53.1216 125.962L66.4462 125.679C66.9895 125.188 67.5829 123.621 67.4656 121.944L65.9893 100.914C65.9006 99.6508 65.4283 98.737 64.8572 98.7239L50.8218 98.3998C50.1072 98.3836 49.5508 99.8985 49.6974 101.461Z" fill="#2C3D43"/>
<path d="M47.7604 105.88C47.1971 105.23 47.2719 104.175 47.8036 103.498C48.3361 102.82 49.2259 102.495 50.0872 102.482C50.9476 102.47 51.7888 102.735 52.586 103.062C53.57 103.464 54.5146 103.963 55.402 104.549C56.0287 104.963 56.6754 105.497 56.7827 106.241C56.8899 106.984 56.0657 107.81 55.4221 107.424C56.2617 107.801 57.096 108.717 57.2102 109.657C57.3244 110.597 56.8128 111.089 55.899 111.338C56.5828 111.622 57.0041 112.499 56.6731 113.162C56.3242 113.858 55.3488 114.03 54.628 113.734C53.9072 113.439 53.384 112.813 52.8916 112.209C53.3886 113.109 53.3477 114.551 53.1285 115.555C51.1413 114.825 49.1819 112.615 49.7754 110.514C48.8092 109.754 48.3724 108.182 48.9766 107.112C48.1748 106.841 47.2873 105.588 47.3707 104.745" fill="#F8B69C"/>
<path d="M47.5368 103.964L47.3786 113.357L44.943 117.019L33.7715 127.004C33.7715 127.004 35.4284 140.576 40.4693 139.095C45.511 137.613 46.7326 136.648 49.7138 131.172C51.3105 128.239 52.2944 123.469 53.2143 120.732C53.7546 119.127 53.2792 113.958 53.2792 113.958L47.5368 103.964Z" fill="#F8B69C"/>
<path d="M55.8813 111.346C55.8573 111.371 55.5479 111.089 55.0293 110.664C54.5107 110.25 53.7544 109.678 52.7728 109.443C52.2873 109.328 51.8019 109.317 51.3837 109.412C50.9646 109.507 50.6142 109.695 50.358 109.895C49.8394 110.307 49.716 110.734 49.6789 110.713C49.6681 110.709 49.6828 110.602 49.763 110.426C49.8425 110.25 49.9984 110.01 50.2585 109.777C50.5185 109.546 50.8867 109.328 51.3373 109.216C51.7873 109.101 52.3082 109.108 52.8237 109.229C53.8647 109.479 54.6318 110.098 55.1304 110.546C55.6297 111.007 55.8998 111.327 55.8813 111.346Z" fill="#F59676"/>
<path d="M55.7464 107.522C55.7333 107.551 55.3273 107.383 54.7038 107.059C54.3912 106.901 54.0216 106.71 53.5956 106.544C53.1711 106.384 52.6772 106.241 52.1633 106.137C51.647 106.037 51.143 106.014 50.7008 106.089C50.2579 106.164 49.8813 106.339 49.6058 106.535C49.0416 106.934 48.9151 107.386 48.878 107.364C48.8672 107.36 48.8827 107.249 48.9691 107.066C49.0563 106.886 49.2276 106.637 49.5124 106.411C49.7948 106.184 50.1907 105.982 50.6638 105.89C51.1361 105.798 51.6694 105.818 52.2049 105.922C52.7405 106.031 53.2298 106.179 53.6704 106.356C54.1072 106.538 54.4738 106.747 54.7779 106.923C55.3829 107.282 55.758 107.495 55.7464 107.522Z" fill="#F59676"/>
<path d="M34.978 132.404C35.0675 132.395 34.4802 131.071 34.839 128.905C35.0181 127.836 35.4364 126.593 36.1595 125.352C36.8787 124.111 37.9136 122.894 39.1105 121.735C40.3121 120.575 41.5484 119.561 42.6505 118.608C43.7548 117.658 44.7218 116.76 45.4734 115.947C46.2251 115.133 46.7661 114.415 47.1018 113.895C47.4382 113.375 47.5833 113.063 47.5663 113.053C47.5393 113.037 47.3534 113.323 46.9837 113.811C46.6156 114.301 46.0515 114.985 45.2844 115.766C44.5173 116.547 43.5426 117.415 42.4297 118.349C41.3192 119.285 40.0706 120.294 38.8536 121.468C37.6404 122.644 36.5893 123.894 35.8639 125.183C35.1362 126.468 34.731 127.759 34.5805 128.865C34.4339 129.974 34.525 130.888 34.6669 131.492C34.7403 131.795 34.8074 132.026 34.8715 132.178C34.9293 132.33 34.9656 132.408 34.978 132.404Z" fill="#F59676"/>
</svg>
