<svg width="37" height="37" viewBox="0 0 37 37" fill="none" xmlns="http://www.w3.org/2000/svg">
<path d="M4.57955 29.5675H1V36H36V29.5675H4.57955ZM4.57955 29.5675L4.18182 3.83769C4.18182 2.89963 4.73864 1.02349 6.96591 1.02349C9.19318 1.02349 17.9697 1.02349 22.0795 1.02349C22.875 0.889483 24.4659 1.26471 24.4659 3.83769C24.4659 5.08935 24.4659 9.3727 24.4659 14.2904M24.4659 14.2904C24.4659 19.4819 24.4659 25.3804 24.4659 29.1655V14.2904ZM10.9432 11.8783L14.125 7.85797M15.3182 12.2803L18.5 7.85797M24.8636 14.6925C26.0568 14.1564 28.4432 13.8884 28.4432 17.1046C28.4432 20.3209 28.4432 23.5371 28.4432 24.7432C28.4432 26.3513 32.1023 28.281 32.4205 24.7432V9.86812L28.4432 5.84783M8.15909 15.0945V4.64174H20.8864V15.0945H8.15909Z" stroke="#FBFBFB" stroke-width="1.5"/>
</svg>
