<svg width="35" height="37" viewBox="0 0 35 37" fill="none" xmlns="http://www.w3.org/2000/svg">
<path d="M5 5.63552V36H30.0459V12.6786L23.9292 5.63552H11.9491M5 5.63552V1H11.9491V5.63552M5 5.63552H11.9491M21.5042 9.87577L25.7388 14.655M15.2789 16.883L17.3782 18.7156M17.3782 18.7156L19.0431 16.883M17.3782 18.7156V23.4949M17.3782 23.4949L21.5042 21.4466M17.3782 23.4949L21.5042 25.9384M17.3782 23.4949V28.346M17.3782 23.4949L13.0349 25.9384M17.3782 23.4949L12.673 21.4466M21.5042 21.4466L22.771 19.1109M21.5042 21.4466L24.2549 22.0575M21.5042 25.9384L24.2549 25.3275M21.5042 25.9384L22.771 28.346M17.3782 28.346L19.0431 30.5021M17.3782 28.346L15.2789 30.5021M13.0349 25.9384L10.3204 25.3275M13.0349 25.9384L11.9491 28.346M12.673 21.4466L11.9491 18.7156M12.673 21.4466L10.3204 22.0575" stroke="#FBFBFB" stroke-width="1.5"/>
</svg>
