<svg width="37" height="37" viewBox="0 0 37 37" fill="none" xmlns="http://www.w3.org/2000/svg">
<path d="M19.957 1.94748C19.957 1.91938 19.9562 1.89199 19.9547 1.86531M19.9547 1.86531C19.8671 0.3345 17.3116 1.141 17.3116 1.94748V6.87075C15.989 5.50318 13.0791 3.26036 12.0209 5.22966C10.9628 7.19897 14.5193 9.33238 16.4299 10.1529V15.8967L10.2573 12.6145C10.4043 10.6999 10.2573 6.87074 8.4937 6.87075C6.73012 6.87076 7.17101 10.4264 7.61191 12.2043C7.02408 10.2897 5.14298 7.03484 2.32118 9.33236C-0.500624 11.6299 3.79079 13.0248 6.28922 13.4351C3.93779 13.8453 -0.0596533 15.1582 2.76207 17.1275C5.58379 19.0968 7.75887 16.5805 8.4937 15.0762L15.548 18.7686L8.4937 22.0508C7.17101 20.82 4.17293 18.6865 2.76207 19.9994C1.35121 21.3123 4.23178 23.0081 5.84843 23.6919C3.64395 23.8286 -0.324094 24.7586 1.43948 27.3843C3.20306 30.01 6.28929 27.1108 7.61195 25.3329C7.02409 27.1108 6.46563 30.5844 8.93463 30.2562C11.4036 29.928 10.8452 26.2902 10.2573 24.5124L16.4298 21.2302L16.4299 27.7946C14.3724 28.4784 10.6982 30.2562 12.4618 31.8973C14.2254 33.5384 16.1359 31.487 16.8707 30.2562C16.5768 32.1708 16.518 36 18.6343 36C20.7506 36 20.3963 32.4443 19.9547 30.6665C21.2781 32.1708 24.1014 34.523 24.8068 31.8973C25.5123 29.2715 21.8675 28.0681 19.957 27.7946L20.3979 21.2302L26.5704 24.5124C26.7174 26.5638 27.364 30.5844 28.7749 30.2562C30.1857 29.928 29.9506 27.1108 29.6567 25.7432C31.1263 27.1108 34.3301 29.3536 35.3883 27.3843C36.4464 25.415 32.8899 24.1021 30.9793 23.6919C32.8899 23.0081 36.1819 21.3123 34.0656 19.9994C31.9493 18.6865 29.0688 21.0935 27.8931 22.461L22.1615 18.7686L27.8931 15.4864C29.5097 16.7172 33.0075 18.7686 34.0656 17.1275C35.1238 15.4864 32.7429 14.5291 31.4202 14.2556C33.6247 13.7086 37.5046 12.1222 35.3883 10.1529C33.272 8.18363 30.9793 10.4264 30.0976 11.794V8.51182C30.0976 6.2143 26.1295 7.281 26.1295 8.51182V13.0248L19.9547 15.8967V10.1529C24.8022 7.6913 25.6886 5.22965 24.3659 4.81938C23.3078 4.49116 20.9857 6.3237 19.957 7.281L19.9547 1.86531Z" stroke="#FBFBFB" stroke-width="1.5"/>
</svg>
