<svg width="35" height="35" viewBox="0 0 35 35" fill="none" xmlns="http://www.w3.org/2000/svg">
<path d="M19.8264 24.7712C19.8264 30.0024 15.56 34.2504 10.2882 34.2504C5.01632 34.2504 0.75 30.0024 0.75 24.7712C0.75 19.54 5.01632 15.292 10.2882 15.292C15.56 15.292 19.8264 19.54 19.8264 24.7712Z" stroke="#FBFBFB" stroke-width="1.5"/>
<circle cx="10.2977" cy="24.8319" r="6.34459" stroke="#FBFBFB" stroke-width="1.5"/>
<path d="M11.152 24.7716C11.152 25.2395 10.7693 25.6262 10.2881 25.6262C9.807 25.6262 9.42432 25.2395 9.42432 24.7716C9.42432 24.3037 9.807 23.917 10.2881 23.917C10.7693 23.917 11.152 24.3037 11.152 24.7716Z" fill="#FBFBFB" stroke="#FBFBFB" stroke-width="1.5"/>
<path d="M34.25 7.17049C34.25 10.7124 31.3611 13.591 27.7882 13.591C24.2154 13.591 21.3264 10.7124 21.3264 7.17049C21.3264 3.62861 24.2154 0.75 27.7882 0.75C31.3611 0.75 34.25 3.62861 34.25 7.17049Z" stroke="#FBFBFB" stroke-width="1.5"/>
<circle cx="27.9052" cy="7.09465" r="3.75676" stroke="#FBFBFB"/>
<path d="M29.0662 7.33119C29.0662 7.82717 28.6607 8.23659 28.1513 8.23659C27.6419 8.23659 27.2363 7.82717 27.2363 7.33119C27.2363 6.8352 27.6419 6.42578 28.1513 6.42578C28.6607 6.42578 29.0662 6.8352 29.0662 7.33119Z" fill="#FBFBFB" stroke="#FBFBFB" stroke-width="1.5"/>
<path d="M6.62158 16.0815L22.2297 3.78418M30.7432 12.7707L19.3919 27.4328" stroke="#FBFBFB" stroke-width="1.5"/>
</svg>
