<svg width="35" height="45" viewBox="0 0 35 45" fill="none" xmlns="http://www.w3.org/2000/svg">
<path d="M8.01273 18.1481H4.26654C3.99929 18.1481 3.73744 18.2508 3.58027 18.4669C3.05289 19.1923 2.59524 20.4776 3.57667 21.7292C3.73908 21.9363 3.84889 22.1846 3.84889 22.4478V34C3.84889 34.5523 4.2966 35 4.84889 35H29.113C29.6653 35 30.113 34.5523 30.113 34V22.8156C30.113 22.3577 30.4502 21.9577 30.7535 21.6147C31.5611 20.7013 31.7754 18.6751 30.234 18.1827C30.1553 18.1575 30.0712 18.1481 29.9885 18.1481H26.2695M8.01273 18.1481V16.2315C8.01273 15.6792 8.46045 15.2315 9.01273 15.2315H11.8171C12.3694 15.2315 12.8171 15.6792 12.8171 16.2315V18.1481M8.01273 18.1481H12.8171M12.8171 18.1481H21.1448M21.1448 18.1481V16.2315C21.1448 15.6792 21.5925 15.2315 22.1448 15.2315H25.2695C25.8218 15.2315 26.2695 15.6792 26.2695 16.2315V18.1481M21.1448 18.1481H26.2695M23.0666 23.9815V29.1667M20.5042 26.5741H25.6289M8.01273 26.5741H13.4577M15.8652 10.569V10.569C16.4461 10.6343 16.8259 11.2099 16.6576 11.7696L16.1935 13.3122C15.8781 14.361 17.2354 15.0809 17.9267 14.2315L22.3347 8.81583C22.8047 8.23843 22.3011 7.38829 21.5689 7.52299V7.52299C20.9581 7.63536 20.4575 7.03967 20.6733 6.45732L21.1464 5.18098C21.5334 4.13672 20.1808 3.33696 19.4523 4.17934L15.2614 9.02549C14.7684 9.59556 15.1163 10.4848 15.8652 10.569Z" stroke="#FBFBFB" stroke-width="1.5"/>
</svg>
